Graphik-Semibold.ufo
<glyph name="exclam" format="2">
  <advance width="316"/>
  <unicode hex="0021"/>
  <outline>
    <contour>
      <point x="158" y="-9" type="curve" smooth="yes"/>
      <point x="108" y="-9"/>
      <point x="67" y="29"/>
      <point x="67" y="77" type="curve" smooth="yes"/>
      <point x="67" y="126"/>
      <point x="108" y="164"/>
      <point x="158" y="164" type="curve" smooth="yes"/>
      <point x="208" y="164"/>
      <point x="249" y="126"/>
      <point x="249" y="77" type="curve" smooth="yes"/>
      <point x="249" y="29"/>
      <point x="208" y="-9"/>
    </contour>
    <contour>
      <point x="100" y="223" type="line"/>
      <point x="78" y="715" type="line"/>
      <point x="240" y="715" type="line"/>
      <point x="218" y="223" type="line"/>
    </contour>
  </outline>
</glyph>
<glyph name="quotedbl" format="2">
  <advance width="430"/>
  <unicode hex="0022"/>
  <outline>
    <contour>
      <point x="67" y="451" type="line"/>
      <point x="48" y="715" type="line"/>
      <point x="188" y="715" type="line"/>
      <point x="169" y="451" type="line"/>
    </contour>
    <contour>
      <point x="261" y="451" type="line"/>
      <point x="242" y="715" type="line"/>
      <point x="382" y="715" type="line"/>
      <point x="364" y="451" type="line"/>
    </contour>
  </outline>
</glyph>
<glyph name="numbersign" format="2">
  <advance width="549"/>
  <unicode hex="0023"/>
  <outline>
    <contour>
      <point x="264" y="99" type="line"/>
      <point x="287" y="256" type="line"/>
      <point x="212" y="256" type="line"/>
      <point x="189" y="99" type="line"/>
      <point x="87" y="99" type="line"/>
      <point x="110" y="256" type="line"/>
      <point x="36" y="256" type="line"/>
      <point x="36" y="371" type="line"/>
      <point x="127" y="371" type="line"/>
      <point x="141" y="467" type="line"/>
      <point x="61" y="467" type="line"/>
      <point x="61" y="578" type="line"/>
      <point x="157" y="578" type="line"/>
      <point x="178" y="715" type="line"/>
      <point x="279" y="715" type="line"/>
      <point x="259" y="578" type="line"/>
      <point x="334" y="578" type="line"/>
      <point x="355" y="715" type="line"/>
      <point x="456" y="715" type="line"/>
      <point x="435" y="578" type="line"/>
      <point x="513" y="578" type="line"/>
      <point x="513" y="467" type="line"/>
      <point x="419" y="467" type="line"/>
      <point x="405" y="371" type="line"/>
      <point x="488" y="371" type="line"/>
      <point x="488" y="256" type="line"/>
      <point x="388" y="256" type="line"/>
      <point x="365" y="99" type="line"/>
    </contour>
    <contour>
      <point x="243" y="467" type="line"/>
      <point x="229" y="371" type="line"/>
      <point x="304" y="371" type="line"/>
      <point x="318" y="467" type="line"/>
    </contour>
  </outline>
</glyph>
<glyph name="dollar" format="2">
  <advance width="640"/>
  <unicode hex="0024"/>
  <outline>
    <contour>
      <point x="287" y="-135" type="line"/>
      <point x="287" y="-10" type="line"/>
      <point x="114" y="2"/>
      <point x="40" y="97"/>
      <point x="32" y="223" type="curve"/>
      <point x="180" y="223" type="line"/>
      <point x="187" y="165"/>
      <point x="208" y="118"/>
      <point x="287" y="106" type="curve"/>
      <point x="287" y="299" type="line"/>
      <point x="128" y="324"/>
      <point x="52" y="382"/>
      <point x="52" y="514" type="curve" smooth="yes"/>
      <point x="52" y="629"/>
      <point x="144" y="714"/>
      <point x="287" y="724" type="curve"/>
      <point x="287" y="813" type="line"/>
      <point x="358" y="813" type="line"/>
      <point x="358" y="723" type="line"/>
      <point x="494" y="711"/>
      <point x="576" y="643"/>
      <point x="588" y="514" type="curve"/>
      <point x="445" y="514" type="line"/>
      <point x="436" y="566"/>
      <point x="411" y="598"/>
      <point x="358" y="608" type="curve"/>
      <point x="358" y="429" type="line"/>
      <point x="508" y="406"/>
      <point x="600" y="356"/>
      <point x="600" y="217" type="curve" smooth="yes"/>
      <point x="600" y="97"/>
      <point x="516" y="1"/>
      <point x="358" y="-10" type="curve"/>
      <point x="358" y="-135" type="line"/>
    </contour>
    <contour>
      <point x="452" y="200" type="curve" smooth="yes"/>
      <point x="452" y="248"/>
      <point x="432" y="272"/>
      <point x="358" y="288" type="curve"/>
      <point x="358" y="106" type="line"/>
      <point x="416" y="116"/>
      <point x="452" y="151"/>
    </contour>
    <contour>
      <point x="196" y="527" type="curve" smooth="yes"/>
      <point x="196" y="481"/>
      <point x="213" y="456"/>
      <point x="287" y="441" type="curve"/>
      <point x="287" y="610" type="line"/>
      <point x="228" y="602"/>
      <point x="196" y="569"/>
    </contour>
  </outline>
</glyph>
<glyph name="percent" format="2">
  <advance width="811"/>
  <unicode hex="0025"/>
  <outline>
    <contour>
      <point x="209" y="461" type="curve" smooth="yes"/>
      <point x="252" y="461"/>
      <point x="277" y="493"/>
      <point x="277" y="548" type="curve" smooth="yes"/>
      <point x="277" y="601"/>
      <point x="252" y="634"/>
      <point x="209" y="634" type="curve" smooth="yes"/>
      <point x="166" y="634"/>
      <point x="139" y="602"/>
      <point x="139" y="548" type="curve" smooth="yes"/>
      <point x="139" y="491"/>
      <point x="166" y="461"/>
    </contour>
    <contour>
      <point x="208" y="371" type="curve" smooth="yes"/>
      <point x="102" y="371"/>
      <point x="28" y="446"/>
      <point x="28" y="547" type="curve" smooth="yes"/>
      <point x="28" y="647"/>
      <point x="108" y="722"/>
      <point x="209" y="722" type="curve" smooth="yes"/>
      <point x="309" y="722"/>
      <point x="388" y="650"/>
      <point x="388" y="549" type="curve" smooth="yes"/>
      <point x="388" y="447"/>
      <point x="313" y="371"/>
    </contour>
    <contour>
      <point x="124" y="0" type="line"/>
      <point x="599" y="715" type="line"/>
      <point x="689" y="715" type="line"/>
      <point x="214" y="0" type="line"/>
    </contour>
    <contour>
      <point x="603" y="80" type="curve" smooth="yes"/>
      <point x="647" y="80"/>
      <point x="672" y="112"/>
      <point x="672" y="166" type="curve" smooth="yes"/>
      <point x="672" y="220"/>
      <point x="647" y="252"/>
      <point x="603" y="252" type="curve" smooth="yes"/>
      <point x="561" y="252"/>
      <point x="534" y="221"/>
      <point x="534" y="166" type="curve" smooth="yes"/>
      <point x="534" y="110"/>
      <point x="561" y="80"/>
    </contour>
    <contour>
      <point x="603" y="-11" type="curve" smooth="yes"/>
      <point x="497" y="-11"/>
      <point x="423" y="65"/>
      <point x="423" y="165" type="curve" smooth="yes"/>
      <point x="423" y="266"/>
      <point x="503" y="341"/>
      <point x="603" y="341" type="curve" smooth="yes"/>
      <point x="704" y="341"/>
      <point x="783" y="269"/>
      <point x="783" y="168" type="curve" smooth="yes"/>
      <point x="783" y="66"/>
      <point x="708" y="-11"/>
    </contour>
  </outline>
</glyph>
<glyph name="ampersand" format="2">
  <advance width="734"/>
  <unicode hex="0026"/>
  <outline>
    <contour>
      <point x="710" y="371" type="line"/>
      <point x="594" y="146" type="line"/>
      <point x="713" y="0" type="line"/>
      <point x="528" y="0" type="line"/>
      <point x="476" y="64" type="line"/>
      <point x="431" y="23"/>
      <point x="373" y="-10"/>
      <point x="281" y="-10" type="curve" smooth="yes"/>
      <point x="136" y="-10"/>
      <point x="39" y="69"/>
      <point x="39" y="199" type="curve" smooth="yes"/>
      <point x="39" y="298"/>
      <point x="101" y="362"/>
      <point x="198" y="409" type="curve"/>
      <point x="163" y="457"/>
      <point x="148" y="504"/>
      <point x="148" y="544" type="curve" smooth="yes"/>
      <point x="148" y="660"/>
      <point x="245" y="722"/>
      <point x="358" y="722" type="curve" smooth="yes"/>
      <point x="462" y="722"/>
      <point x="552" y="664"/>
      <point x="552" y="562" type="curve" smooth="yes"/>
      <point x="552" y="481"/>
      <point x="501" y="423"/>
      <point x="406" y="383" type="curve"/>
      <point x="518" y="246" type="line"/>
      <point x="582" y="371" type="line"/>
    </contour>
    <contour>
      <point x="302" y="109" type="curve" smooth="yes"/>
      <point x="340" y="109"/>
      <point x="374" y="125"/>
      <point x="401" y="157" type="curve"/>
      <point x="265" y="322" type="line"/>
      <point x="222" y="300"/>
      <point x="191" y="271"/>
      <point x="191" y="215" type="curve" smooth="yes"/>
      <point x="191" y="151"/>
      <point x="231" y="109"/>
    </contour>
    <contour>
      <point x="289" y="542" type="curve" smooth="yes"/>
      <point x="289" y="512"/>
      <point x="307" y="483"/>
      <point x="337" y="447" type="curve"/>
      <point x="397" y="475"/>
      <point x="423" y="505"/>
      <point x="423" y="554" type="curve" smooth="yes"/>
      <point x="423" y="591"/>
      <point x="397" y="618"/>
      <point x="360" y="618" type="curve" smooth="yes"/>
      <point x="320" y="618"/>
      <point x="289" y="592"/>
    </contour>
  </outline>
</glyph>
<glyph name="quotesingle" format="2">
  <advance width="240"/>
  <unicode hex="0027"/>
  <outline>
    <contour>
      <point x="67" y="451" type="line"/>
      <point x="48" y="715" type="line"/>
      <point x="192" y="715" type="line"/>
      <point x="173" y="451" type="line"/>
    </contour>
  </outline>
</glyph>
<glyph name="parenleft" format="2">
  <advance width="343"/>
  <unicode hex="0028"/>
  <outline>
    <contour>
      <point x="210" y="-148" type="line"/>
      <point x="127" y="-50"/>
      <point x="43" y="99"/>
      <point x="43" y="313" type="curve" smooth="yes"/>
      <point x="43" y="527"/>
      <point x="127" y="676"/>
      <point x="210" y="774" type="curve"/>
      <point x="329" y="774" type="line"/>
      <point x="254" y="669"/>
      <point x="184" y="521"/>
      <point x="184" y="313" type="curve" smooth="yes"/>
      <point x="184" y="105"/>
      <point x="254" y="-42"/>
      <point x="329" y="-148" type="curve"/>
    </contour>
  </outline>
</glyph>
<glyph name="parenright" format="2">
  <advance width="343"/>
  <unicode hex="0029"/>
  <outline>
    <contour>
      <point x="15" y="-146" type="line"/>
      <point x="89" y="-41"/>
      <point x="159" y="107"/>
      <point x="159" y="315" type="curve" smooth="yes"/>
      <point x="159" y="523"/>
      <point x="89" y="670"/>
      <point x="15" y="776" type="curve"/>
      <point x="134" y="776" type="line"/>
      <point x="216" y="678"/>
      <point x="300" y="530"/>
      <point x="300" y="315" type="curve" smooth="yes"/>
      <point x="300" y="101"/>
      <point x="216" y="-48"/>
      <point x="134" y="-146" type="curve"/>
    </contour>
  </outline>
</glyph>
<glyph name="asterisk" format="2">
  <advance width="434"/>
  <unicode hex="002A"/>
  <outline>
    <contour>
      <point x="155" y="384" type="line"/>
      <point x="66" y="448" type="line"/>
      <point x="153" y="545" type="line"/>
      <point x="34" y="564" type="line"/>
      <point x="64" y="667" type="line"/>
      <point x="176" y="616" type="line"/>
      <point x="159" y="743" type="line"/>
      <point x="276" y="743" type="line"/>
      <point x="258" y="616" type="line"/>
      <point x="370" y="667" type="line"/>
      <point x="400" y="564" type="line"/>
      <point x="280" y="545" type="line"/>
      <point x="367" y="448" type="line"/>
      <point x="278" y="384" type="line"/>
      <point x="216" y="501" type="line"/>
    </contour>
  </outline>
</glyph>
<glyph name="plus" format="2">
  <advance width="551"/>
  <unicode hex="002B"/>
  <outline>
    <contour>
      <point x="217" y="91" type="line"/>
      <point x="217" y="286" type="line"/>
      <point x="37" y="286" type="line"/>
      <point x="37" y="395" type="line"/>
      <point x="217" y="395" type="line"/>
      <point x="217" y="590" type="line"/>
      <point x="335" y="590" type="line"/>
      <point x="335" y="395" type="line"/>
      <point x="515" y="395" type="line"/>
      <point x="515" y="286" type="line"/>
      <point x="335" y="286" type="line"/>
      <point x="335" y="91" type="line"/>
    </contour>
  </outline>
</glyph>
<glyph name="period" format="2">
  <advance width="293"/>
  <unicode hex="002E"/>
  <outline>
    <contour>
      <point x="146" y="-9" type="curve" smooth="yes"/>
      <point x="96" y="-9"/>
      <point x="57" y="30"/>
      <point x="57" y="79" type="curve" smooth="yes"/>
      <point x="57" y="127"/>
      <point x="96" y="166"/>
      <point x="146" y="166" type="curve" smooth="yes"/>
      <point x="197" y="166"/>
      <point x="236" y="127"/>
      <point x="236" y="79" type="curve" smooth="yes"/>
      <point x="236" y="30"/>
      <point x="197" y="-9"/>
    </contour>
  </outline>
</glyph>
<glyph name="slash" format="2">
  <advance width="423"/>
  <unicode hex="002F"/>
  <outline>
    <contour>
      <point x="-13" y="-148" type="line"/>
      <point x="294" y="776" type="line"/>
      <point x="413" y="776" type="line"/>
      <point x="105" y="-148" type="line"/>
    </contour>
  </outline>
</glyph>
<glyph name="zero" format="2">
  <advance width="713"/>
  <unicode hex="0030"/>
  <outline>
    <contour>
      <point x="360" y="116" type="curve" smooth="yes"/>
      <point x="461" y="116"/>
      <point x="507" y="193"/>
      <point x="507" y="343" type="curve" smooth="yes"/>
      <point x="507" y="375" type="line" smooth="yes"/>
      <point x="507" y="519"/>
      <point x="457" y="600"/>
      <point x="358" y="600" type="curve" smooth="yes"/>
      <point x="258" y="600"/>
      <point x="207" y="523"/>
      <point x="207" y="375" type="curve" smooth="yes"/>
      <point x="207" y="341" type="line" smooth="yes"/>
      <point x="207" y="191"/>
      <point x="260" y="116"/>
    </contour>
    <contour>
      <point x="356" y="-11" type="curve" smooth="yes"/>
      <point x="166" y="-11"/>
      <point x="45" y="121"/>
      <point x="45" y="340" type="curve" smooth="yes"/>
      <point x="45" y="374" type="line" smooth="yes"/>
      <point x="45" y="594"/>
      <point x="173" y="725"/>
      <point x="357" y="725" type="curve" smooth="yes"/>
      <point x="541" y="725"/>
      <point x="668" y="599"/>
      <point x="668" y="377" type="curve" smooth="yes"/>
      <point x="668" y="344" type="line" smooth="yes"/>
      <point x="668" y="125"/>
      <point x="549" y="-11"/>
    </contour>
  </outline>
</glyph>
<glyph name="one" format="2">
  <advance width="431"/>
  <unicode hex="0031"/>
  <outline>
    <contour>
      <point x="177" y="0" type="line"/>
      <point x="177" y="555" type="line"/>
      <point x="32" y="460" type="line"/>
      <point x="32" y="598" type="line"/>
      <point x="197" y="715" type="line"/>
      <point x="339" y="715" type="line"/>
      <point x="339" y="0" type="line"/>
    </contour>
  </outline>
</glyph>
<glyph name="two" format="2">
  <advance width="593"/>
  <unicode hex="0032"/>
  <outline>
    <contour>
      <point x="12" y="0" type="line"/>
      <point x="12" y="26" type="line"/>
      <point x="274" y="303" type="line" smooth="yes"/>
      <point x="343" y="376"/>
      <point x="387" y="439"/>
      <point x="387" y="504" type="curve" smooth="yes"/>
      <point x="387" y="563"/>
      <point x="354" y="601"/>
      <point x="292" y="601" type="curve" smooth="yes"/>
      <point x="229" y="601"/>
      <point x="189" y="564"/>
      <point x="178" y="470" type="curve"/>
      <point x="31" y="470" type="line"/>
      <point x="39" y="635"/>
      <point x="139" y="725"/>
      <point x="299" y="725" type="curve" smooth="yes"/>
      <point x="457" y="725"/>
      <point x="547" y="637"/>
      <point x="547" y="508" type="curve" smooth="yes"/>
      <point x="547" y="413"/>
      <point x="492" y="335"/>
      <point x="409" y="255" type="curve" smooth="yes"/>
      <point x="274" y="123" type="line"/>
      <point x="552" y="123" type="line"/>
      <point x="552" y="0" type="line"/>
    </contour>
  </outline>
</glyph>
<glyph name="three" format="2">
  <advance width="635"/>
  <unicode hex="0033"/>
  <outline>
    <contour>
      <point x="313" y="-11" type="curve" smooth="yes"/>
      <point x="131" y="-11"/>
      <point x="38" y="82"/>
      <point x="32" y="227" type="curve"/>
      <point x="178" y="227" type="line"/>
      <point x="184" y="158"/>
      <point x="221" y="108"/>
      <point x="307" y="108" type="curve" smooth="yes"/>
      <point x="388" y="108"/>
      <point x="426" y="147"/>
      <point x="426" y="211" type="curve" smooth="yes"/>
      <point x="426" y="279"/>
      <point x="388" y="314"/>
      <point x="311" y="314" type="curve" smooth="yes"/>
      <point x="255" y="314" type="line"/>
      <point x="255" y="422" type="line"/>
      <point x="307" y="422" type="line" smooth="yes"/>
      <point x="382" y="422"/>
      <point x="416" y="456"/>
      <point x="416" y="517" type="curve" smooth="yes"/>
      <point x="416" y="568"/>
      <point x="383" y="606"/>
      <point x="317" y="606" type="curve" smooth="yes"/>
      <point x="249" y="606"/>
      <point x="207" y="565"/>
      <point x="199" y="498" type="curve"/>
      <point x="56" y="498" type="line"/>
      <point x="64" y="629"/>
      <point x="157" y="725"/>
      <point x="320" y="725" type="curve" smooth="yes"/>
      <point x="477" y="725"/>
      <point x="569" y="643"/>
      <point x="569" y="531" type="curve" smooth="yes"/>
      <point x="569" y="451"/>
      <point x="522" y="401"/>
      <point x="451" y="376" type="curve"/>
      <point x="534" y="358"/>
      <point x="590" y="299"/>
      <point x="590" y="208" type="curve" smooth="yes"/>
      <point x="590" y="74"/>
      <point x="487" y="-11"/>
    </contour>
  </outline>
</glyph>
<glyph name="four" format="2">
  <advance width="656"/>
  <unicode hex="0034"/>
  <outline>
    <contour>
      <point x="377" y="0" type="line"/>
      <point x="377" y="142" type="line"/>
      <point x="26" y="142" type="line"/>
      <point x="26" y="201" type="line"/>
      <point x="335" y="715" type="line"/>
      <point x="534" y="715" type="line"/>
      <point x="534" y="258" type="line"/>
      <point x="628" y="258" type="line"/>
      <point x="628" y="142" type="line"/>
      <point x="534" y="142" type="line"/>
      <point x="534" y="0" type="line"/>
    </contour>
    <contour>
      <point x="188" y="258" type="line"/>
      <point x="380" y="258" type="line"/>
      <point x="380" y="593" type="line"/>
    </contour>
  </outline>
</glyph>
<glyph name="five" format="2">
  <advance width="615"/>
  <unicode hex="0035"/>
  <outline>
    <contour>
      <point x="297" y="-11" type="curve" smooth="yes"/>
      <point x="121" y="-11"/>
      <point x="39" y="85"/>
      <point x="32" y="213" type="curve"/>
      <point x="181" y="213" type="line"/>
      <point x="190" y="153"/>
      <point x="214" y="113"/>
      <point x="296" y="113" type="curve" smooth="yes"/>
      <point x="369" y="113"/>
      <point x="408" y="164"/>
      <point x="408" y="240" type="curve" smooth="yes"/>
      <point x="408" y="317"/>
      <point x="364" y="365"/>
      <point x="292" y="365" type="curve" smooth="yes"/>
      <point x="225" y="365"/>
      <point x="184" y="341"/>
      <point x="155" y="308" type="curve"/>
      <point x="65" y="308" type="line"/>
      <point x="75" y="715" type="line"/>
      <point x="528" y="715" type="line"/>
      <point x="528" y="592" type="line"/>
      <point x="196" y="592" type="line"/>
      <point x="193" y="413" type="line"/>
      <point x="221" y="447"/>
      <point x="271" y="479"/>
      <point x="352" y="479" type="curve" smooth="yes"/>
      <point x="482" y="479"/>
      <point x="571" y="390"/>
      <point x="571" y="238" type="curve" smooth="yes"/>
      <point x="571" y="86"/>
      <point x="462" y="-11"/>
    </contour>
  </outline>
</glyph>
<glyph name="six" format="2">
  <advance width="654"/>
  <unicode hex="0036"/>
  <outline>
    <contour>
      <point x="339" y="-11" type="curve" smooth="yes"/>
      <point x="123" y="-11"/>
      <point x="45" y="135"/>
      <point x="45" y="330" type="curve" smooth="yes"/>
      <point x="45" y="348" type="line" smooth="yes"/>
      <point x="45" y="590"/>
      <point x="176" y="725"/>
      <point x="351" y="725" type="curve" smooth="yes"/>
      <point x="493" y="725"/>
      <point x="583" y="658"/>
      <point x="599" y="527" type="curve"/>
      <point x="449" y="527" type="line"/>
      <point x="439" y="574"/>
      <point x="415" y="603"/>
      <point x="353" y="603" type="curve" smooth="yes"/>
      <point x="264" y="603"/>
      <point x="209" y="525"/>
      <point x="205" y="378" type="curve"/>
      <point x="238" y="431"/>
      <point x="292" y="467"/>
      <point x="378" y="467" type="curve" smooth="yes"/>
      <point x="513" y="467"/>
      <point x="614" y="379"/>
      <point x="614" y="235" type="curve" smooth="yes"/>
      <point x="614" y="88"/>
      <point x="509" y="-11"/>
    </contour>
    <contour>
      <point x="337" y="106" type="curve" smooth="yes"/>
      <point x="408" y="106"/>
      <point x="455" y="158"/>
      <point x="455" y="233" type="curve" smooth="yes"/>
      <point x="455" y="308"/>
      <point x="410" y="360"/>
      <point x="337" y="360" type="curve" smooth="yes"/>
      <point x="265" y="360"/>
      <point x="215" y="309"/>
      <point x="215" y="238" type="curve" smooth="yes"/>
      <point x="215" y="156"/>
      <point x="265" y="106"/>
    </contour>
  </outline>
</glyph>
<glyph name="seven" format="2">
  <advance width="558"/>
  <unicode hex="0037"/>
  <outline>
    <contour>
      <point x="124" y="0" type="line"/>
      <point x="342" y="584" type="line"/>
      <point x="27" y="584" type="line"/>
      <point x="27" y="715" type="line"/>
      <point x="545" y="715" type="line"/>
      <point x="545" y="697" type="line"/>
      <point x="289" y="0" type="line"/>
    </contour>
  </outline>
</glyph>
<glyph name="eight" format="2">
  <advance width="639"/>
  <unicode hex="0038"/>
  <outline>
    <contour>
      <point x="320" y="-11" type="curve" smooth="yes"/>
      <point x="162" y="-11"/>
      <point x="40" y="62"/>
      <point x="40" y="202" type="curve" smooth="yes"/>
      <point x="40" y="289"/>
      <point x="90" y="352"/>
      <point x="172" y="381" type="curve"/>
      <point x="107" y="408"/>
      <point x="68" y="458"/>
      <point x="68" y="530" type="curve" smooth="yes"/>
      <point x="68" y="654"/>
      <point x="187" y="725"/>
      <point x="321" y="725" type="curve" smooth="yes"/>
      <point x="458" y="725"/>
      <point x="572" y="653"/>
      <point x="572" y="531" type="curve" smooth="yes"/>
      <point x="572" y="459"/>
      <point x="531" y="410"/>
      <point x="468" y="382" type="curve"/>
      <point x="552" y="353"/>
      <point x="599" y="291"/>
      <point x="599" y="206" type="curve" smooth="yes"/>
      <point x="599" y="66"/>
      <point x="479" y="-11"/>
    </contour>
    <contour>
      <point x="320" y="107" type="curve" smooth="yes"/>
      <point x="388" y="107"/>
      <point x="439" y="147"/>
      <point x="439" y="218" type="curve" smooth="yes"/>
      <point x="439" y="288"/>
      <point x="388" y="327"/>
      <point x="321" y="327" type="curve" smooth="yes"/>
      <point x="255" y="327"/>
      <point x="201" y="288"/>
      <point x="201" y="217" type="curve" smooth="yes"/>
      <point x="201" y="146"/>
      <point x="254" y="107"/>
    </contour>
    <contour>
      <point x="322" y="426" type="curve" smooth="yes"/>
      <point x="380" y="426"/>
      <point x="422" y="461"/>
      <point x="422" y="520" type="curve" smooth="yes"/>
      <point x="422" y="575"/>
      <point x="378" y="612"/>
      <point x="321" y="612" type="curve" smooth="yes"/>
      <point x="264" y="612"/>
      <point x="219" y="577"/>
      <point x="219" y="519" type="curve" smooth="yes"/>
      <point x="219" y="461"/>
      <point x="266" y="426"/>
    </contour>
  </outline>
</glyph>
<glyph name="nine" format="2">
  <advance width="655"/>
  <unicode hex="0039"/>
  <outline>
    <contour>
      <point x="310" y="-10" type="curve" smooth="yes"/>
      <point x="155" y="-10"/>
      <point x="63" y="64"/>
      <point x="47" y="193" type="curve"/>
      <point x="198" y="193" type="line"/>
      <point x="208" y="144"/>
      <point x="237" y="113"/>
      <point x="305" y="113" type="curve" smooth="yes"/>
      <point x="400" y="113"/>
      <point x="447" y="188"/>
      <point x="450" y="334" type="curve"/>
      <point x="417" y="282"/>
      <point x="365" y="247"/>
      <point x="279" y="247" type="curve" smooth="yes"/>
      <point x="141" y="247"/>
      <point x="40" y="333"/>
      <point x="40" y="478" type="curve" smooth="yes"/>
      <point x="40" y="626"/>
      <point x="146" y="726"/>
      <point x="317" y="726" type="curve" smooth="yes"/>
      <point x="514" y="726"/>
      <point x="609" y="593"/>
      <point x="609" y="387" type="curve" smooth="yes"/>
      <point x="609" y="355" type="line" smooth="yes"/>
      <point x="609" y="121"/>
      <point x="502" y="-10"/>
    </contour>
    <contour>
      <point x="315" y="355" type="curve" smooth="yes"/>
      <point x="388" y="355"/>
      <point x="437" y="405"/>
      <point x="437" y="475" type="curve" smooth="yes"/>
      <point x="437" y="558"/>
      <point x="388" y="609"/>
      <point x="315" y="609" type="curve" smooth="yes"/>
      <point x="244" y="609"/>
      <point x="197" y="557"/>
      <point x="197" y="482" type="curve" smooth="yes"/>
      <point x="197" y="407"/>
      <point x="243" y="355"/>
    </contour>
  </outline>
</glyph>
<glyph name="semicolon" format="2">
  <advance width="310"/>
  <unicode hex="003B"/>
  <outline>
    <contour>
      <point x="101" y="-123" type="line"/>
      <point x="14" y="-86" type="line"/>
      <point x="102" y="161" type="line"/>
      <point x="237" y="110" type="line"/>
    </contour>
    <contour>
      <point x="167" y="281" type="curve" smooth="yes"/>
      <point x="117" y="281"/>
      <point x="79" y="320"/>
      <point x="79" y="369" type="curve" smooth="yes"/>
      <point x="79" y="417"/>
      <point x="117" y="456"/>
      <point x="167" y="456" type="curve" smooth="yes"/>
      <point x="218" y="456"/>
      <point x="257" y="417"/>
      <point x="257" y="369" type="curve" smooth="yes"/>
      <point x="257" y="320"/>
      <point x="218" y="281"/>
    </contour>
  </outline>
</glyph>
<glyph name="less" format="2">
  <advance width="509"/>
  <unicode hex="003C"/>
  <outline>
    <contour>
      <point x="454" y="72" type="line"/>
      <point x="46" y="308" type="line"/>
      <point x="46" y="337" type="line"/>
      <point x="454" y="572" type="line"/>
      <point x="454" y="440" type="line"/>
      <point x="237" y="323" type="line"/>
      <point x="454" y="202" type="line"/>
    </contour>
  </outline>
</glyph>
<glyph name="equal" format="2">
  <advance width="530"/>
  <unicode hex="003D"/>
  <outline>
    <contour>
      <point x="39" y="178" type="line"/>
      <point x="39" y="281" type="line"/>
      <point x="491" y="281" type="line"/>
      <point x="491" y="178" type="line"/>
    </contour>
    <contour>
      <point x="39" y="368" type="line"/>
      <point x="39" y="472" type="line"/>
      <point x="491" y="472" type="line"/>
      <point x="491" y="368" type="line"/>
    </contour>
  </outline>
</glyph>
<glyph name="greater" format="2">
  <advance width="509"/>
  <unicode hex="003E"/>
  <outline>
    <contour>
      <point x="56" y="73" type="line"/>
      <point x="56" y="205" type="line"/>
      <point x="272" y="322" type="line"/>
      <point x="56" y="443" type="line"/>
      <point x="56" y="573" type="line"/>
      <point x="464" y="337" type="line"/>
      <point x="464" y="308" type="line"/>
    </contour>
  </outline>
</glyph>
<glyph name="question" format="2">
  <advance width="532"/>
  <unicode hex="003F"/>
  <outline>
    <contour>
      <point x="173" y="223" type="line"/>
      <point x="173" y="253" type="line" smooth="yes"/>
      <point x="173" y="331"/>
      <point x="225" y="380"/>
      <point x="272" y="426" type="curve" smooth="yes"/>
      <point x="308" y="461"/>
      <point x="340" y="493"/>
      <point x="340" y="533" type="curve" smooth="yes"/>
      <point x="340" y="579"/>
      <point x="316" y="607"/>
      <point x="263" y="607" type="curve" smooth="yes"/>
      <point x="208" y="607"/>
      <point x="171" y="567"/>
      <point x="164" y="504" type="curve"/>
      <point x="25" y="504" type="line"/>
      <point x="31" y="643"/>
      <point x="130" y="725"/>
      <point x="272" y="725" type="curve" smooth="yes"/>
      <point x="419" y="725"/>
      <point x="494" y="651"/>
      <point x="494" y="545" type="curve" smooth="yes"/>
      <point x="494" y="476"/>
      <point x="455" y="430"/>
      <point x="412" y="388" type="curve" smooth="yes"/>
      <point x="364" y="342"/>
      <point x="313" y="301"/>
      <point x="307" y="248" type="curve"/>
      <point x="307" y="223" type="line"/>
    </contour>
    <contour>
      <point x="239" y="-9" type="curve" smooth="yes"/>
      <point x="188" y="-9"/>
      <point x="147" y="29"/>
      <point x="147" y="77" type="curve" smooth="yes"/>
      <point x="147" y="126"/>
      <point x="188" y="164"/>
      <point x="239" y="164" type="curve" smooth="yes"/>
      <point x="289" y="164"/>
      <point x="330" y="126"/>
      <point x="330" y="77" type="curve" smooth="yes"/>
      <point x="330" y="29"/>
      <point x="289" y="-9"/>
    </contour>
  </outline>
</glyph>
<glyph name="at" format="2">
  <advance width="919"/>
  <unicode hex="0040"/>
  <outline>
    <contour>
      <point x="460" y="-154" type="curve" smooth="yes"/>
      <point x="191" y="-154"/>
      <point x="35" y="33"/>
      <point x="35" y="255" type="curve" smooth="yes"/>
      <point x="35" y="512"/>
      <point x="242" y="690"/>
      <point x="476" y="690" type="curve" smooth="yes"/>
      <point x="714" y="690"/>
      <point x="884" y="539"/>
      <point x="884" y="325" type="curve" smooth="yes"/>
      <point x="884" y="130"/>
      <point x="775" y="58"/>
      <point x="678" y="58" type="curve" smooth="yes"/>
      <point x="593" y="58"/>
      <point x="555" y="88"/>
      <point x="543" y="141" type="curve"/>
      <point x="516" y="88"/>
      <point x="467" y="54"/>
      <point x="403" y="54" type="curve" smooth="yes"/>
      <point x="305" y="54"/>
      <point x="241" y="123"/>
      <point x="241" y="235" type="curve" smooth="yes"/>
      <point x="241" y="374"/>
      <point x="329" y="469"/>
      <point x="438" y="469" type="curve" smooth="yes"/>
      <point x="504" y="469"/>
      <point x="537" y="440"/>
      <point x="552" y="406" type="curve"/>
      <point x="559" y="461" type="line"/>
      <point x="683" y="461" type="line"/>
      <point x="651" y="196" type="line" smooth="yes"/>
      <point x="644" y="150"/>
      <point x="659" y="125"/>
      <point x="696" y="125" type="curve" smooth="yes"/>
      <point x="751" y="125"/>
      <point x="807" y="183"/>
      <point x="807" y="325" type="curve" smooth="yes"/>
      <point x="807" y="502"/>
      <point x="681" y="622"/>
      <point x="477" y="622" type="curve" smooth="yes"/>
      <point x="273" y="622"/>
      <point x="117" y="476"/>
      <point x="117" y="254" type="curve" smooth="yes"/>
      <point x="117" y="67"/>
      <point x="233" y="-86"/>
      <point x="462" y="-86" type="curve" smooth="yes"/>
      <point x="576" y="-86"/>
      <point x="657" y="-50"/>
      <point x="711" y="0" type="curve"/>
      <point x="797" y="0" type="line"/>
      <point x="737" y="-92"/>
      <point x="610" y="-154"/>
    </contour>
    <contour>
      <point x="440" y="152" type="curve" smooth="yes"/>
      <point x="491" y="152"/>
      <point x="538" y="202"/>
      <point x="538" y="285" type="curve" smooth="yes"/>
      <point x="538" y="341"/>
      <point x="510" y="371"/>
      <point x="459" y="371" type="curve" smooth="yes"/>
      <point x="408" y="371"/>
      <point x="368" y="320"/>
      <point x="368" y="240" type="curve" smooth="yes"/>
      <point x="368" y="187"/>
      <point x="395" y="152"/>
    </contour>
  </outline>
</glyph>
<glyph name="A" format="2">
  <advance width="720"/>
  <unicode hex="0041"/>
  <outline>
    <contour>
      <point x="21" y="0" type="line"/>
      <point x="256" y="715" type="line"/>
      <point x="467" y="715" type="line"/>
      <point x="699" y="0" type="line"/>
      <point x="530" y="0" type="line"/>
      <point x="481" y="159" type="line"/>
      <point x="222" y="159" type="line"/>
      <point x="173" y="0" type="line"/>
    </contour>
    <contour>
      <point x="352" y="583" type="line"/>
      <point x="257" y="274" type="line"/>
      <point x="446" y="274" type="line"/>
    </contour>
  </outline>
</glyph>
<glyph name="B" format="2">
  <advance width="659"/>
  <unicode hex="0042"/>
  <outline>
    <contour>
      <point x="77" y="0" type="line"/>
      <point x="77" y="715" type="line"/>
      <point x="358" y="715" type="line" smooth="yes"/>
      <point x="514" y="715"/>
      <point x="595" y="651"/>
      <point x="595" y="529" type="curve" smooth="yes"/>
      <point x="595" y="525" type="line" smooth="yes"/>
      <point x="595" y="450"/>
      <point x="559" y="395"/>
      <point x="479" y="372" type="curve"/>
      <point x="572" y="353"/>
      <point x="622" y="300"/>
      <point x="622" y="204" type="curve" smooth="yes"/>
      <point x="622" y="200" type="line" smooth="yes"/>
      <point x="622" y="69"/>
      <point x="536" y="0"/>
      <point x="371" y="0" type="curve" smooth="yes"/>
    </contour>
    <contour>
      <point x="235" y="112" type="line"/>
      <point x="346" y="112" type="line" smooth="yes"/>
      <point x="426" y="112"/>
      <point x="462" y="148"/>
      <point x="462" y="213" type="curve" smooth="yes"/>
      <point x="462" y="217" type="line" smooth="yes"/>
      <point x="462" y="283"/>
      <point x="426" y="317"/>
      <point x="338" y="317" type="curve" smooth="yes"/>
      <point x="235" y="317" type="line"/>
    </contour>
    <contour>
      <point x="235" y="421" type="line"/>
      <point x="332" y="421" type="line" smooth="yes"/>
      <point x="410" y="421"/>
      <point x="441" y="449"/>
      <point x="441" y="513" type="curve" smooth="yes"/>
      <point x="441" y="517" type="line" smooth="yes"/>
      <point x="441" y="577"/>
      <point x="407" y="604"/>
      <point x="331" y="604" type="curve" smooth="yes"/>
      <point x="235" y="604" type="line"/>
    </contour>
  </outline>
</glyph>
<glyph name="C" format="2">
  <advance width="748"/>
  <unicode hex="0043"/>
  <outline>
    <contour>
      <point x="399" y="-11" type="curve" smooth="yes"/>
      <point x="165" y="-11"/>
      <point x="40" y="133"/>
      <point x="40" y="353" type="curve" smooth="yes"/>
      <point x="40" y="361" type="line" smooth="yes"/>
      <point x="40" y="578"/>
      <point x="192" y="726"/>
      <point x="395" y="726" type="curve" smooth="yes"/>
      <point x="567" y="726"/>
      <point x="695" y="642"/>
      <point x="712" y="466" type="curve"/>
      <point x="546" y="466" type="line"/>
      <point x="534" y="552"/>
      <point x="486" y="598"/>
      <point x="396" y="598" type="curve" smooth="yes"/>
      <point x="283" y="598"/>
      <point x="211" y="510"/>
      <point x="211" y="362" type="curve" smooth="yes"/>
      <point x="211" y="354" type="line" smooth="yes"/>
      <point x="211" y="206"/>
      <point x="279" y="120"/>
      <point x="397" y="120" type="curve" smooth="yes"/>
      <point x="486" y="120"/>
      <point x="548" y="165"/>
      <point x="561" y="257" type="curve"/>
      <point x="720" y="257" type="line"/>
      <point x="702" y="80"/>
      <point x="575" y="-11"/>
    </contour>
  </outline>
</glyph>
<glyph name="F" format="2">
  <advance width="567"/>
  <unicode hex="0046"/>
  <outline>
    <contour>
      <point x="77" y="0" type="line"/>
      <point x="77" y="715" type="line"/>
      <point x="536" y="715" type="line"/>
      <point x="536" y="588" type="line"/>
      <point x="239" y="588" type="line"/>
      <point x="239" y="399" type="line"/>
      <point x="474" y="399" type="line"/>
      <point x="474" y="277" type="line"/>
      <point x="239" y="277" type="line"/>
      <point x="239" y="0" type="line"/>
    </contour>
  </outline>
</glyph>
<glyph name="H" format="2">
  <advance width="764"/>
  <unicode hex="0048"/>
  <outline>
    <contour>
      <point x="77" y="0" type="line"/>
      <point x="77" y="715" type="line"/>
      <point x="239" y="715" type="line"/>
      <point x="239" y="423" type="line"/>
      <point x="526" y="423" type="line"/>
      <point x="526" y="715" type="line"/>
      <point x="688" y="715" type="line"/>
      <point x="688" y="0" type="line"/>
      <point x="526" y="0" type="line"/>
      <point x="526" y="295" type="line"/>
      <point x="239" y="295" type="line"/>
      <point x="239" y="0" type="line"/>
    </contour>
  </outline>
</glyph>
<glyph name="J" format="2">
  <advance width="457"/>
  <unicode hex="004A"/>
  <outline>
    <contour>
      <point x="154" y="-9" type="curve" smooth="yes"/>
      <point x="92" y="-9"/>
      <point x="60" y="0"/>
      <point x="35" y="13" type="curve"/>
      <point x="35" y="137" type="line"/>
      <point x="59" y="128"/>
      <point x="83" y="120"/>
      <point x="125" y="120" type="curve" smooth="yes"/>
      <point x="186" y="120"/>
      <point x="226" y="151"/>
      <point x="226" y="233" type="curve" smooth="yes"/>
      <point x="226" y="715" type="line"/>
      <point x="389" y="715" type="line"/>
      <point x="389" y="231" type="line" smooth="yes"/>
      <point x="389" y="69"/>
      <point x="301" y="-9"/>
    </contour>
  </outline>
</glyph>
<glyph name="K" format="2">
  <advance width="686"/>
  <unicode hex="004B"/>
  <outline>
    <contour>
      <point x="77" y="0" type="line"/>
      <point x="77" y="715" type="line"/>
      <point x="239" y="715" type="line"/>
      <point x="239" y="407" type="line"/>
      <point x="489" y="716" type="line"/>
      <point x="661" y="716" type="line"/>
      <point x="378" y="377" type="line"/>
      <point x="675" y="0" type="line"/>
      <point x="486" y="0" type="line"/>
      <point x="239" y="321" type="line"/>
      <point x="239" y="0" type="line"/>
    </contour>
  </outline>
</glyph>
<glyph name="M" format="2">
  <advance width="911"/>
  <unicode hex="004D"/>
  <outline>
    <contour>
      <point x="77" y="0" type="line"/>
      <point x="77" y="715" type="line"/>
      <point x="291" y="715" type="line"/>
      <point x="458" y="270" type="line"/>
      <point x="623" y="715" type="line"/>
      <point x="833" y="715" type="line"/>
      <point x="833" y="0" type="line"/>
      <point x="672" y="0" type="line"/>
      <point x="672" y="502" type="line"/>
      <point x="474" y="0" type="line"/>
      <point x="421" y="0" type="line"/>
      <point x="222" y="502" type="line"/>
      <point x="222" y="0" type="line"/>
    </contour>
  </outline>
</glyph>
<glyph name="O" format="2">
  <advance width="816"/>
  <unicode hex="004F"/>
  <outline>
    <contour>
      <point x="410" y="118" type="curve" smooth="yes"/>
      <point x="531" y="118"/>
      <point x="607" y="211"/>
      <point x="607" y="355" type="curve" smooth="yes"/>
      <point x="607" y="363" type="line" smooth="yes"/>
      <point x="607" y="502"/>
      <point x="533" y="597"/>
      <point x="408" y="597" type="curve" smooth="yes"/>
      <point x="284" y="597"/>
      <point x="209" y="506"/>
      <point x="209" y="362" type="curve" smooth="yes"/>
      <point x="209" y="354" type="line" smooth="yes"/>
      <point x="209" y="208"/>
      <point x="293" y="118"/>
    </contour>
    <contour>
      <point x="407" y="-11" type="curve" smooth="yes"/>
      <point x="183" y="-11"/>
      <point x="40" y="144"/>
      <point x="40" y="353" type="curve" smooth="yes"/>
      <point x="40" y="361" type="line" smooth="yes"/>
      <point x="40" y="574"/>
      <point x="196" y="725"/>
      <point x="408" y="725" type="curve" smooth="yes"/>
      <point x="623" y="725"/>
      <point x="776" y="580"/>
      <point x="776" y="365" type="curve" smooth="yes"/>
      <point x="776" y="357" type="line" smooth="yes"/>
      <point x="776" y="144"/>
      <point x="630" y="-11"/>
    </contour>
  </outline>
</glyph>
<glyph name="P" format="2">
  <advance width="626"/>
  <unicode hex="0050"/>
  <outline>
    <contour>
      <point x="77" y="0" type="line"/>
      <point x="77" y="715" type="line"/>
      <point x="324" y="715" type="line" smooth="yes"/>
      <point x="498" y="715"/>
      <point x="597" y="638"/>
      <point x="597" y="487" type="curve" smooth="yes"/>
      <point x="597" y="483" type="line" smooth="yes"/>
      <point x="597" y="332"/>
      <point x="492" y="260"/>
      <point x="329" y="260" type="curve" smooth="yes"/>
      <point x="238" y="260" type="line"/>
      <point x="238" y="0" type="line"/>
    </contour>
    <contour>
      <point x="238" y="373" type="line"/>
      <point x="320" y="373" type="line" smooth="yes"/>
      <point x="399" y="373"/>
      <point x="441" y="411"/>
      <point x="441" y="482" type="curve" smooth="yes"/>
      <point x="441" y="486" type="line" smooth="yes"/>
      <point x="441" y="562"/>
      <point x="397" y="592"/>
      <point x="320" y="592" type="curve" smooth="yes"/>
      <point x="238" y="592" type="line"/>
    </contour>
  </outline>
</glyph>
<glyph name="Q" format="2">
  <advance width="816"/>
  <unicode hex="0051"/>
  <outline>
    <contour>
      <point x="639" y="-93" type="line"/>
      <point x="542" y="10" type="line"/>
      <point x="501" y="-3"/>
      <point x="456" y="-11"/>
      <point x="407" y="-11" type="curve" smooth="yes"/>
      <point x="183" y="-11"/>
      <point x="40" y="143"/>
      <point x="40" y="353" type="curve" smooth="yes"/>
      <point x="40" y="361" type="line" smooth="yes"/>
      <point x="40" y="574"/>
      <point x="196" y="725"/>
      <point x="408" y="725" type="curve" smooth="yes"/>
      <point x="623" y="725"/>
      <point x="776" y="579"/>
      <point x="776" y="365" type="curve" smooth="yes"/>
      <point x="776" y="357" type="line" smooth="yes"/>
      <point x="776" y="241"/>
      <point x="733" y="142"/>
      <point x="658" y="76" type="curve"/>
      <point x="731" y="-2" type="line"/>
    </contour>
    <contour>
      <point x="410" y="114" type="curve" smooth="yes"/>
      <point x="422" y="114"/>
      <point x="433" y="115"/>
      <point x="444" y="116" type="curve"/>
      <point x="376" y="190" type="line"/>
      <point x="470" y="278" type="line"/>
      <point x="558" y="183" type="line"/>
      <point x="589" y="225"/>
      <point x="607" y="283"/>
      <point x="607" y="355" type="curve" smooth="yes"/>
      <point x="607" y="363" type="line" smooth="yes"/>
      <point x="607" y="502"/>
      <point x="533" y="597"/>
      <point x="408" y="597" type="curve" smooth="yes"/>
      <point x="284" y="597"/>
      <point x="209" y="507"/>
      <point x="209" y="362" type="curve" smooth="yes"/>
      <point x="209" y="354" type="line" smooth="yes"/>
      <point x="209" y="203"/>
      <point x="292" y="114"/>
    </contour>
  </outline>
</glyph>
<glyph name="R" format="2">
  <advance width="672"/>
  <unicode hex="0052"/>
  <outline>
    <contour>
      <point x="77" y="0" type="line"/>
      <point x="77" y="715" type="line"/>
      <point x="333" y="715" type="line" smooth="yes"/>
      <point x="502" y="715"/>
      <point x="609" y="646"/>
      <point x="609" y="498" type="curve" smooth="yes"/>
      <point x="609" y="494" type="line" smooth="yes"/>
      <point x="609" y="386"/>
      <point x="546" y="329"/>
      <point x="462" y="304" type="curve"/>
      <point x="651" y="0" type="line"/>
      <point x="479" y="0" type="line"/>
      <point x="308" y="276" type="line"/>
      <point x="238" y="276" type="line"/>
      <point x="238" y="0" type="line"/>
    </contour>
    <contour>
      <point x="238" y="386" type="line"/>
      <point x="329" y="386" type="line" smooth="yes"/>
      <point x="410" y="386"/>
      <point x="451" y="420"/>
      <point x="451" y="489" type="curve" smooth="yes"/>
      <point x="451" y="493" type="line" smooth="yes"/>
      <point x="451" y="566"/>
      <point x="407" y="591"/>
      <point x="329" y="591" type="curve" smooth="yes"/>
      <point x="238" y="591" type="line"/>
    </contour>
  </outline>
</glyph>
<glyph name="T" format="2">
  <advance width="597"/>
  <unicode hex="0054"/>
  <outline>
    <contour>
      <point x="217" y="0" type="line"/>
      <point x="217" y="589" type="line"/>
      <point x="24" y="589" type="line"/>
      <point x="24" y="715" type="line"/>
      <point x="573" y="715" type="line"/>
      <point x="573" y="589" type="line"/>
      <point x="380" y="589" type="line"/>
      <point x="380" y="0" type="line"/>
    </contour>
  </outline>
</glyph>
<glyph name="X" format="2">
  <advance width="719"/>
  <unicode hex="0058"/>
  <outline>
    <contour>
      <point x="30" y="0" type="line"/>
      <point x="257" y="367" type="line"/>
      <point x="47" y="715" type="line"/>
      <point x="230" y="715" type="line"/>
      <point x="366" y="477" type="line"/>
      <point x="501" y="715" type="line"/>
      <point x="667" y="715" type="line"/>
      <point x="463" y="372" type="line"/>
      <point x="689" y="0" type="line"/>
      <point x="505" y="0" type="line"/>
      <point x="350" y="266" type="line"/>
      <point x="196" y="0" type="line"/>
    </contour>
  </outline>
</glyph>
<glyph name="Z" format="2">
  <advance width="615"/>
  <unicode hex="005A"/>
  <outline>
    <contour>
      <point x="18" y="0" type="line"/>
      <point x="18" y="20" type="line"/>
      <point x="359" y="589" type="line"/>
      <point x="56" y="589" type="line"/>
      <point x="56" y="715" type="line"/>
      <point x="588" y="715" type="line"/>
      <point x="588" y="696" type="line"/>
      <point x="254" y="127" type="line"/>
      <point x="576" y="127" type="line"/>
      <point x="576" y="0" type="line"/>
    </contour>
  </outline>
</glyph>
<glyph name="bracketleft" format="2">
  <advance width="390"/>
  <unicode hex="005B"/>
  <outline>
    <contour>
      <point x="74" y="-148" type="line"/>
      <point x="74" y="776" type="line"/>
      <point x="350" y="776" type="line"/>
      <point x="350" y="669" type="line"/>
      <point x="219" y="669" type="line"/>
      <point x="219" y="-41" type="line"/>
      <point x="350" y="-41" type="line"/>
      <point x="350" y="-148" type="line"/>
    </contour>
  </outline>
</glyph>
<glyph name="bracketright" format="2">
  <advance width="390"/>
  <unicode hex="005D"/>
  <outline>
    <contour>
      <point x="41" y="-148" type="line"/>
      <point x="41" y="-41" type="line"/>
      <point x="171" y="-41" type="line"/>
      <point x="171" y="669" type="line"/>
      <point x="41" y="669" type="line"/>
      <point x="41" y="776" type="line"/>
      <point x="316" y="776" type="line"/>
      <point x="316" y="-148" type="line"/>
    </contour>
  </outline>
</glyph>
<glyph name="asciicircum" format="2">
  <advance width="522"/>
  <unicode hex="005E"/>
  <outline>
    <contour>
      <point x="31" y="399" type="line"/>
      <point x="196" y="715" type="line"/>
      <point x="326" y="715" type="line"/>
      <point x="492" y="399" type="line"/>
      <point x="363" y="399" type="line"/>
      <point x="260" y="597" type="line"/>
      <point x="156" y="399" type="line"/>
    </contour>
  </outline>
</glyph>
<glyph name="underscore" format="2">
  <advance width="419"/>
  <unicode hex="005F"/>
  <outline>
    <contour>
      <point x="-1" y="-160" type="line"/>
      <point x="-1" y="-81" type="line"/>
      <point x="420" y="-81" type="line"/>
      <point x="420" y="-160" type="line"/>
    </contour>
  </outline>
</glyph>
<glyph name="b" format="2">
  <advance width="637"/>
  <unicode hex="0062"/>
  <outline>
    <contour>
      <point x="376" y="-11" type="curve" smooth="yes"/>
      <point x="295" y="-11"/>
      <point x="236" y="29"/>
      <point x="209" y="83" type="curve"/>
      <point x="209" y="0" type="line"/>
      <point x="64" y="0" type="line"/>
      <point x="64" y="760" type="line"/>
      <point x="209" y="760" type="line"/>
      <point x="209" y="441" type="line"/>
      <point x="238" y="491"/>
      <point x="299" y="535"/>
      <point x="376" y="535" type="curve" smooth="yes"/>
      <point x="504" y="535"/>
      <point x="604" y="440"/>
      <point x="604" y="267" type="curve" smooth="yes"/>
      <point x="604" y="259" type="line" smooth="yes"/>
      <point x="604" y="86"/>
      <point x="506" y="-11"/>
    </contour>
    <contour>
      <point x="333" y="102" type="curve" smooth="yes"/>
      <point x="413" y="102"/>
      <point x="457" y="156"/>
      <point x="457" y="258" type="curve" smooth="yes"/>
      <point x="457" y="266" type="line" smooth="yes"/>
      <point x="457" y="372"/>
      <point x="405" y="424"/>
      <point x="332" y="424" type="curve" smooth="yes"/>
      <point x="256" y="424"/>
      <point x="204" y="371"/>
      <point x="204" y="266" type="curve" smooth="yes"/>
      <point x="204" y="258" type="line" smooth="yes"/>
      <point x="204" y="153"/>
      <point x="254" y="102"/>
    </contour>
  </outline>
</glyph>
<glyph name="f" format="2">
  <advance width="371"/>
  <unicode hex="0066"/>
  <outline>
    <contour>
      <point x="88" y="0" type="line"/>
      <point x="88" y="420" type="line"/>
      <point x="19" y="420" type="line"/>
      <point x="19" y="523" type="line"/>
      <point x="88" y="523" type="line"/>
      <point x="88" y="583" type="line" smooth="yes"/>
      <point x="88" y="705"/>
      <point x="159" y="766"/>
      <point x="275" y="766" type="curve" smooth="yes"/>
      <point x="306" y="766"/>
      <point x="327" y="763"/>
      <point x="350" y="756" type="curve"/>
      <point x="350" y="647" type="line"/>
      <point x="336" y="652"/>
      <point x="318" y="656"/>
      <point x="297" y="656" type="curve" smooth="yes"/>
      <point x="251" y="656"/>
      <point x="232" y="627"/>
      <point x="232" y="587" type="curve" smooth="yes"/>
      <point x="232" y="523" type="line"/>
      <point x="346" y="523" type="line"/>
      <point x="346" y="420" type="line"/>
      <point x="232" y="420" type="line"/>
      <point x="232" y="0" type="line"/>
    </contour>
  </outline>
</glyph>
<glyph name="g" format="2">
  <advance width="636"/>
  <unicode hex="0067"/>
  <outline>
    <contour>
      <point x="296" y="-193" type="curve" smooth="yes"/>
      <point x="127" y="-193"/>
      <point x="50" y="-119"/>
      <point x="36" y="-11" type="curve"/>
      <point x="180" y="-11" type="line"/>
      <point x="189" y="-57"/>
      <point x="222" y="-87"/>
      <point x="296" y="-87" type="curve" smooth="yes"/>
      <point x="384" y="-87"/>
      <point x="428" y="-41"/>
      <point x="428" y="41" type="curve" smooth="yes"/>
      <point x="428" y="120" type="line"/>
      <point x="399" y="69"/>
      <point x="337" y="23"/>
      <point x="260" y="23" type="curve" smooth="yes"/>
      <point x="133" y="23"/>
      <point x="32" y="118"/>
      <point x="32" y="273" type="curve" smooth="yes"/>
      <point x="32" y="280" type="line" smooth="yes"/>
      <point x="32" y="430"/>
      <point x="132" y="535"/>
      <point x="262" y="535" type="curve" smooth="yes"/>
      <point x="347" y="535"/>
      <point x="398" y="498"/>
      <point x="428" y="445" type="curve"/>
      <point x="428" y="523" type="line"/>
      <point x="572" y="523" type="line"/>
      <point x="572" y="41" type="line" smooth="yes"/>
      <point x="571" y="-114"/>
      <point x="468" y="-193"/>
    </contour>
    <contour>
      <point x="303" y="132" type="curve" smooth="yes"/>
      <point x="379" y="132"/>
      <point x="432" y="186"/>
      <point x="432" y="275" type="curve" smooth="yes"/>
      <point x="432" y="282" type="line" smooth="yes"/>
      <point x="432" y="371"/>
      <point x="385" y="425"/>
      <point x="306" y="425" type="curve" smooth="yes"/>
      <point x="225" y="425"/>
      <point x="180" y="367"/>
      <point x="180" y="281" type="curve" smooth="yes"/>
      <point x="180" y="273" type="line" smooth="yes"/>
      <point x="180" y="186"/>
      <point x="231" y="132"/>
    </contour>
  </outline>
</glyph>
<glyph name="j" format="2">
  <advance width="281"/>
  <unicode hex="006A"/>
  <outline>
    <contour>
      <point x="-1" y="-187" type="curve"/>
      <point x="-1" y="-79" type="line"/>
      <point x="49" y="-75"/>
      <point x="68" y="-52"/>
      <point x="68" y="-10" type="curve" smooth="yes"/>
      <point x="68" y="523" type="line"/>
      <point x="212" y="523" type="line"/>
      <point x="212" y="-9" type="line" smooth="yes"/>
      <point x="212" y="-118"/>
      <point x="162" y="-185"/>
    </contour>
    <contour>
      <point x="139" y="594" type="curve" smooth="yes"/>
      <point x="93" y="594"/>
      <point x="57" y="628"/>
      <point x="57" y="673" type="curve" smooth="yes"/>
      <point x="57" y="718"/>
      <point x="93" y="752"/>
      <point x="139" y="752" type="curve" smooth="yes"/>
      <point x="186" y="752"/>
      <point x="222" y="718"/>
      <point x="222" y="673" type="curve" smooth="yes"/>
      <point x="222" y="628"/>
      <point x="186" y="594"/>
    </contour>
  </outline>
</glyph>
<glyph name="k" format="2">
  <advance width="555"/>
  <unicode hex="006B"/>
  <outline>
    <contour>
      <point x="64" y="0" type="line"/>
      <point x="64" y="760" type="line"/>
      <point x="209" y="760" type="line"/>
      <point x="209" y="302" type="line"/>
      <point x="377" y="523" type="line"/>
      <point x="531" y="523" type="line"/>
      <point x="341" y="285" type="line"/>
      <point x="546" y="0" type="line"/>
      <point x="382" y="0" type="line"/>
      <point x="209" y="247" type="line"/>
      <point x="209" y="0" type="line"/>
    </contour>
  </outline>
</glyph>
<glyph name="m" format="2">
  <advance width="923"/>
  <unicode hex="006D"/>
  <outline>
    <contour>
      <point x="64" y="0" type="line"/>
      <point x="64" y="523" type="line"/>
      <point x="209" y="523" type="line"/>
      <point x="209" y="443" type="line"/>
      <point x="235" y="492"/>
      <point x="291" y="535"/>
      <point x="369" y="535" type="curve" smooth="yes"/>
      <point x="438" y="535"/>
      <point x="490" y="506"/>
      <point x="515" y="444" type="curve"/>
      <point x="557" y="507"/>
      <point x="625" y="535"/>
      <point x="691" y="535" type="curve" smooth="yes"/>
      <point x="788" y="535"/>
      <point x="863" y="474"/>
      <point x="863" y="335" type="curve" smooth="yes"/>
      <point x="863" y="0" type="line"/>
      <point x="719" y="0" type="line"/>
      <point x="719" y="319" type="line" smooth="yes"/>
      <point x="719" y="386"/>
      <point x="689" y="416"/>
      <point x="637" y="416" type="curve" smooth="yes"/>
      <point x="581" y="416"/>
      <point x="536" y="380"/>
      <point x="536" y="309" type="curve" smooth="yes"/>
      <point x="536" y="0" type="line"/>
      <point x="392" y="0" type="line"/>
      <point x="392" y="319" type="line" smooth="yes"/>
      <point x="392" y="386"/>
      <point x="361" y="416"/>
      <point x="310" y="416" type="curve" smooth="yes"/>
      <point x="254" y="416"/>
      <point x="209" y="380"/>
      <point x="209" y="309" type="curve" smooth="yes"/>
      <point x="209" y="0" type="line"/>
    </contour>
  </outline>
</glyph>
<glyph name="q" format="2">
  <advance width="637"/>
  <unicode hex="0071"/>
  <outline>
    <contour>
      <point x="428" y="-178" type="line"/>
      <point x="428" y="84" type="line"/>
      <point x="401" y="34"/>
      <point x="337" y="-11"/>
      <point x="260" y="-11" type="curve" smooth="yes"/>
      <point x="133" y="-11"/>
      <point x="33" y="80"/>
      <point x="33" y="254" type="curve" smooth="yes"/>
      <point x="33" y="262" type="line" smooth="yes"/>
      <point x="33" y="434"/>
      <point x="132" y="535"/>
      <point x="263" y="535" type="curve" smooth="yes"/>
      <point x="347" y="535"/>
      <point x="399" y="498"/>
      <point x="428" y="445" type="curve"/>
      <point x="428" y="523" type="line"/>
      <point x="572" y="523" type="line"/>
      <point x="572" y="-178" type="line"/>
    </contour>
    <contour>
      <point x="303" y="102" type="curve" smooth="yes"/>
      <point x="379" y="102"/>
      <point x="432" y="153"/>
      <point x="432" y="259" type="curve" smooth="yes"/>
      <point x="432" y="267" type="line" smooth="yes"/>
      <point x="432" y="371"/>
      <point x="386" y="424"/>
      <point x="307" y="424" type="curve" smooth="yes"/>
      <point x="226" y="424"/>
      <point x="181" y="369"/>
      <point x="181" y="265" type="curve" smooth="yes"/>
      <point x="181" y="257" type="line" smooth="yes"/>
      <point x="181" y="153"/>
      <point x="231" y="102"/>
    </contour>
  </outline>
</glyph>
<glyph name="r" format="2">
  <advance width="409"/>
  <unicode hex="0072"/>
  <outline>
    <contour>
      <point x="64" y="0" type="line"/>
      <point x="64" y="523" type="line"/>
      <point x="209" y="523" type="line"/>
      <point x="209" y="423" type="line"/>
      <point x="242" y="493"/>
      <point x="293" y="530"/>
      <point x="378" y="531" type="curve"/>
      <point x="378" y="396" type="line"/>
      <point x="271" y="397"/>
      <point x="209" y="362"/>
      <point x="209" y="262" type="curve" smooth="yes"/>
      <point x="209" y="0" type="line"/>
    </contour>
  </outline>
</glyph>
<glyph name="s" format="2">
  <advance width="502"/>
  <unicode hex="0073"/>
  <outline>
    <contour>
      <point x="254" y="-11" type="curve" smooth="yes"/>
      <point x="113" y="-11"/>
      <point x="31" y="51"/>
      <point x="26" y="164" type="curve"/>
      <point x="161" y="164" type="line"/>
      <point x="167" y="117"/>
      <point x="190" y="90"/>
      <point x="253" y="90" type="curve" smooth="yes"/>
      <point x="309" y="90"/>
      <point x="335" y="111"/>
      <point x="335" y="147" type="curve" smooth="yes"/>
      <point x="335" y="183"/>
      <point x="304" y="198"/>
      <point x="229" y="209" type="curve" smooth="yes"/>
      <point x="90" y="230"/>
      <point x="36" y="270"/>
      <point x="36" y="372" type="curve" smooth="yes"/>
      <point x="36" y="481"/>
      <point x="136" y="535"/>
      <point x="243" y="535" type="curve" smooth="yes"/>
      <point x="359" y="535"/>
      <point x="446" y="493"/>
      <point x="459" y="373" type="curve"/>
      <point x="326" y="373" type="line"/>
      <point x="318" y="416"/>
      <point x="294" y="436"/>
      <point x="244" y="436" type="curve" smooth="yes"/>
      <point x="197" y="436"/>
      <point x="170" y="414"/>
      <point x="170" y="382" type="curve" smooth="yes"/>
      <point x="170" y="349"/>
      <point x="195" y="336"/>
      <point x="271" y="325" type="curve" smooth="yes"/>
      <point x="402" y="306"/>
      <point x="474" y="273"/>
      <point x="474" y="161" type="curve" smooth="yes"/>
      <point x="474" y="48"/>
      <point x="392" y="-11"/>
    </contour>
  </outline>
</glyph>
<glyph name="u" format="2">
  <advance width="612"/>
  <unicode hex="0075"/>
  <outline>
    <contour>
      <point x="238" y="-11" type="curve" smooth="yes"/>
      <point x="136" y="-11"/>
      <point x="60" y="49"/>
      <point x="60" y="186" type="curve" smooth="yes"/>
      <point x="60" y="523" type="line"/>
      <point x="204" y="523" type="line"/>
      <point x="204" y="206" type="line" smooth="yes"/>
      <point x="204" y="135"/>
      <point x="233" y="101"/>
      <point x="295" y="101" type="curve" smooth="yes"/>
      <point x="356" y="101"/>
      <point x="404" y="139"/>
      <point x="404" y="216" type="curve" smooth="yes"/>
      <point x="404" y="523" type="line"/>
      <point x="548" y="523" type="line"/>
      <point x="548" y="0" type="line"/>
      <point x="404" y="0" type="line"/>
      <point x="404" y="82" type="line"/>
      <point x="377" y="29"/>
      <point x="324" y="-11"/>
    </contour>
  </outline>
</glyph>
<glyph name="v" format="2">
  <advance width="572"/>
  <unicode hex="0076"/>
  <outline>
    <contour>
      <point x="205" y="0" type="line"/>
      <point x="14" y="523" type="line"/>
      <point x="169" y="523" type="line"/>
      <point x="294" y="149" type="line"/>
      <point x="418" y="523" type="line"/>
      <point x="558" y="523" type="line"/>
      <point x="368" y="0" type="line"/>
    </contour>
  </outline>
</glyph>
<glyph name="y" format="2">
  <advance width="567"/>
  <unicode hex="0079"/>
  <outline>
    <contour>
      <point x="130" y="-178" type="line"/>
      <point x="222" y="53" type="line"/>
      <point x="14" y="523" type="line"/>
      <point x="170" y="523" type="line"/>
      <point x="297" y="209" type="line"/>
      <point x="414" y="523" type="line"/>
      <point x="553" y="523" type="line"/>
      <point x="270" y="-178" type="line"/>
    </contour>
  </outline>
</glyph>
<glyph name="z" format="2">
  <advance width="499"/>
  <unicode hex="007A"/>
  <outline>
    <contour>
      <point x="14" y="0" type="line"/>
      <point x="14" y="16" type="line"/>
      <point x="272" y="411" type="line"/>
      <point x="40" y="411" type="line"/>
      <point x="40" y="523" type="line"/>
      <point x="482" y="523" type="line"/>
      <point x="482" y="505" type="line"/>
      <point x="222" y="112" type="line"/>
      <point x="472" y="112" type="line"/>
      <point x="472" y="0" type="line"/>
    </contour>
  </outline>
</glyph>
<glyph name="braceleft" format="2">
  <advance width="405"/>
  <unicode hex="007B"/>
  <outline>
    <contour>
      <point x="364" y="-147" type="line"/>
      <point x="182" y="-147"/>
      <point x="96" y="-82"/>
      <point x="123" y="75" type="curve" smooth="yes"/>
      <point x="139" y="167" type="line" smooth="yes"/>
      <point x="148" y="219"/>
      <point x="121" y="264"/>
      <point x="34" y="264" type="curve"/>
      <point x="34" y="367" type="line"/>
      <point x="121" y="367"/>
      <point x="148" y="412"/>
      <point x="139" y="464" type="curve" smooth="yes"/>
      <point x="123" y="555" type="line" smooth="yes"/>
      <point x="95" y="716"/>
      <point x="182" y="778"/>
      <point x="364" y="778" type="curve"/>
      <point x="364" y="672" type="line"/>
      <point x="280" y="669"/>
      <point x="251" y="644"/>
      <point x="264" y="558" type="curve" smooth="yes"/>
      <point x="279" y="451" type="line" smooth="yes"/>
      <point x="289" y="381"/>
      <point x="248" y="333"/>
      <point x="178" y="316" type="curve"/>
      <point x="249" y="300"/>
      <point x="289" y="252"/>
      <point x="279" y="181" type="curve" smooth="yes"/>
      <point x="264" y="75" type="line" smooth="yes"/>
      <point x="251" y="-12"/>
      <point x="280" y="-39"/>
      <point x="364" y="-42" type="curve"/>
    </contour>
  </outline>
</glyph>
<glyph name="braceright" format="2">
  <advance width="405"/>
  <unicode hex="007D"/>
  <outline>
    <contour>
      <point x="40" y="-147" type="curve"/>
      <point x="40" y="-42" type="line"/>
      <point x="125" y="-39"/>
      <point x="153" y="-12"/>
      <point x="141" y="75" type="curve" smooth="yes"/>
      <point x="126" y="181" type="line" smooth="yes"/>
      <point x="116" y="252"/>
      <point x="156" y="300"/>
      <point x="227" y="316" type="curve"/>
      <point x="156" y="333"/>
      <point x="116" y="381"/>
      <point x="126" y="451" type="curve" smooth="yes"/>
      <point x="141" y="558" type="line" smooth="yes"/>
      <point x="153" y="644"/>
      <point x="125" y="669"/>
      <point x="40" y="672" type="curve"/>
      <point x="40" y="778" type="line"/>
      <point x="222" y="778"/>
      <point x="309" y="716"/>
      <point x="282" y="555" type="curve" smooth="yes"/>
      <point x="266" y="464" type="line" smooth="yes"/>
      <point x="257" y="412"/>
      <point x="284" y="367"/>
      <point x="370" y="367" type="curve"/>
      <point x="370" y="264" type="line"/>
      <point x="284" y="264"/>
      <point x="257" y="219"/>
      <point x="266" y="167" type="curve" smooth="yes"/>
      <point x="282" y="75" type="line" smooth="yes"/>
      <point x="309" y="-82"/>
      <point x="222" y="-147"/>
    </contour>
  </outline>
</glyph>
<glyph name="asciitilde" format="2">
  <advance width="492"/>
  <unicode hex="007E"/>
  <outline>
    <contour>
      <point x="34" y="218" type="line"/>
      <point x="41" y="340"/>
      <point x="102" y="390"/>
      <point x="166" y="390" type="curve" smooth="yes"/>
      <point x="236" y="390"/>
      <point x="281" y="343"/>
      <point x="315" y="343" type="curve" smooth="yes"/>
      <point x="339" y="343"/>
      <point x="356" y="360"/>
      <point x="360" y="392" type="curve"/>
      <point x="458" y="392" type="line"/>
      <point x="453" y="275"/>
      <point x="390" y="219"/>
      <point x="327" y="219" type="curve" smooth="yes"/>
      <point x="255" y="219"/>
      <point x="212" y="266"/>
      <point x="177" y="266" type="curve" smooth="yes"/>
      <point x="152" y="266"/>
      <point x="136" y="248"/>
      <point x="132" y="218" type="curve"/>
    </contour>
  </outline>
</glyph>
<glyph name="exclamdown" format="2">
  <advance width="317"/>
  <unicode hex="00A1"/>
  <outline>
    <contour>
      <point x="77" y="-117" type="line"/>
      <point x="99" y="375" type="line"/>
      <point x="217" y="375" type="line"/>
      <point x="239" y="-117" type="line"/>
    </contour>
    <contour>
      <point x="159" y="434" type="curve" smooth="yes"/>
      <point x="109" y="434"/>
      <point x="67" y="472"/>
      <point x="67" y="521" type="curve" smooth="yes"/>
      <point x="67" y="569"/>
      <point x="109" y="607"/>
      <point x="159" y="607" type="curve" smooth="yes"/>
      <point x="209" y="607"/>
      <point x="250" y="569"/>
      <point x="250" y="521" type="curve" smooth="yes"/>
      <point x="250" y="472"/>
      <point x="209" y="434"/>
    </contour>
  </outline>
</glyph>
<glyph name="cent" format="2">
  <advance width="584"/>
  <unicode hex="00A2"/>
  <outline>
    <contour>
      <point x="272" y="-135" type="line"/>
      <point x="272" y="-9" type="line"/>
      <point x="133" y="4"/>
      <point x="32" y="97"/>
      <point x="32" y="255" type="curve" smooth="yes"/>
      <point x="32" y="263" type="line" smooth="yes"/>
      <point x="32" y="418"/>
      <point x="136" y="517"/>
      <point x="272" y="533" type="curve"/>
      <point x="272" y="629" type="line"/>
      <point x="343" y="629" type="line"/>
      <point x="343" y="533" type="line"/>
      <point x="453" y="524"/>
      <point x="545" y="463"/>
      <point x="557" y="332" type="curve"/>
      <point x="422" y="332" type="line"/>
      <point x="415" y="384"/>
      <point x="385" y="413"/>
      <point x="343" y="423" type="curve"/>
      <point x="343" y="95" type="line"/>
      <point x="390" y="106"/>
      <point x="426" y="140"/>
      <point x="432" y="199" type="curve"/>
      <point x="560" y="199" type="line"/>
      <point x="552" y="84"/>
      <point x="471" y="3"/>
      <point x="343" y="-9" type="curve"/>
      <point x="343" y="-135" type="line"/>
    </contour>
    <contour>
      <point x="176" y="257" type="line" smooth="yes"/>
      <point x="176" y="167"/>
      <point x="212" y="113"/>
      <point x="272" y="97" type="curve"/>
      <point x="272" y="422" type="line"/>
      <point x="214" y="406"/>
      <point x="176" y="351"/>
      <point x="176" y="265" type="curve" smooth="yes"/>
    </contour>
  </outline>
</glyph>
<glyph name="sterling" format="2">
  <advance width="635"/>
  <unicode hex="00A3"/>
  <outline>
    <contour>
      <point x="39" y="297" type="line"/>
      <point x="39" y="396" type="line"/>
      <point x="96" y="396" type="line"/>
      <point x="87" y="428"/>
      <point x="81" y="463"/>
      <point x="81" y="504" type="curve" smooth="yes"/>
      <point x="81" y="642"/>
      <point x="192" y="725"/>
      <point x="336" y="725" type="curve" smooth="yes"/>
      <point x="500" y="725"/>
      <point x="580" y="636"/>
      <point x="588" y="503" type="curve"/>
      <point x="439" y="503" type="line"/>
      <point x="428" y="568"/>
      <point x="401" y="601"/>
      <point x="340" y="601" type="curve" smooth="yes"/>
      <point x="282" y="601"/>
      <point x="242" y="560"/>
      <point x="242" y="497" type="curve" smooth="yes"/>
      <point x="242" y="461"/>
      <point x="246" y="428"/>
      <point x="252" y="396" type="curve"/>
      <point x="443" y="396" type="line"/>
      <point x="443" y="297" type="line"/>
      <point x="272" y="297" type="line"/>
      <point x="276" y="271"/>
      <point x="279" y="243"/>
      <point x="279" y="214" type="curve" smooth="yes"/>
      <point x="279" y="191"/>
      <point x="274" y="171"/>
      <point x="267" y="153" type="curve"/>
      <point x="315" y="139"/>
      <point x="355" y="119"/>
      <point x="388" y="119" type="curve" smooth="yes"/>
      <point x="431" y="119"/>
      <point x="458" y="138"/>
      <point x="461" y="188" type="curve"/>
      <point x="605" y="188" type="line"/>
      <point x="599" y="75"/>
      <point x="535" y="-9"/>
      <point x="417" y="-9" type="curve" smooth="yes"/>
      <point x="321" y="-9"/>
      <point x="254" y="47"/>
      <point x="203" y="47" type="curve" smooth="yes"/>
      <point x="167" y="47"/>
      <point x="151" y="25"/>
      <point x="148" y="0" type="curve"/>
      <point x="25" y="0" type="line"/>
      <point x="30" y="66"/>
      <point x="63" y="134"/>
      <point x="131" y="157" type="curve"/>
      <point x="136" y="173"/>
      <point x="140" y="191"/>
      <point x="140" y="214" type="curve" smooth="yes"/>
      <point x="140" y="242"/>
      <point x="134" y="269"/>
      <point x="126" y="297" type="curve"/>
    </contour>
  </outline>
</glyph>
<glyph name="yen" format="2">
  <advance width="621"/>
  <unicode hex="00A5"/>
  <outline>
    <contour>
      <point x="71" y="289" type="line"/>
      <point x="71" y="356" type="line"/>
      <point x="215" y="356" type="line"/>
      <point x="17" y="715" type="line"/>
      <point x="193" y="715" type="line"/>
      <point x="322" y="449" type="line"/>
      <point x="448" y="715" type="line"/>
      <point x="603" y="715" type="line"/>
      <point x="416" y="356" type="line"/>
      <point x="561" y="356" type="line"/>
      <point x="561" y="289" type="line"/>
      <point x="397" y="289" type="line"/>
      <point x="397" y="228" type="line"/>
      <point x="561" y="228" type="line"/>
      <point x="561" y="162" type="line"/>
      <point x="397" y="162" type="line"/>
      <point x="397" y="0" type="line"/>
      <point x="235" y="0" type="line"/>
      <point x="235" y="162" type="line"/>
      <point x="71" y="162" type="line"/>
      <point x="71" y="228" type="line"/>
      <point x="235" y="228" type="line"/>
      <point x="235" y="289" type="line"/>
    </contour>
  </outline>
</glyph>
<glyph name="section" format="2">
  <advance width="582"/>
  <unicode hex="00A7"/>
  <outline>
    <contour>
      <point x="283" y="-137" type="curve" smooth="yes"/>
      <point x="154" y="-137"/>
      <point x="77" y="-71"/>
      <point x="73" y="39" type="curve"/>
      <point x="208" y="39" type="line"/>
      <point x="211" y="-6"/>
      <point x="232" y="-35"/>
      <point x="284" y="-35" type="curve" smooth="yes"/>
      <point x="335" y="-35"/>
      <point x="358" y="-9"/>
      <point x="358" y="27" type="curve" smooth="yes"/>
      <point x="358" y="66"/>
      <point x="333" y="83"/>
      <point x="239" y="106" type="curve" smooth="yes"/>
      <point x="112" y="137"/>
      <point x="29" y="181"/>
      <point x="29" y="292" type="curve" smooth="yes"/>
      <point x="29" y="359"/>
      <point x="72" y="406"/>
      <point x="139" y="428" type="curve"/>
      <point x="105" y="458"/>
      <point x="88" y="496"/>
      <point x="88" y="548" type="curve" smooth="yes"/>
      <point x="88" y="655"/>
      <point x="181" y="725"/>
      <point x="299" y="725" type="curve" smooth="yes"/>
      <point x="426" y="725"/>
      <point x="501" y="660"/>
      <point x="505" y="551" type="curve"/>
      <point x="372" y="551" type="line"/>
      <point x="368" y="595"/>
      <point x="349" y="621"/>
      <point x="297" y="621" type="curve" smooth="yes"/>
      <point x="247" y="621"/>
      <point x="224" y="594"/>
      <point x="224" y="559" type="curve" smooth="yes"/>
      <point x="224" y="519"/>
      <point x="246" y="503"/>
      <point x="339" y="480" type="curve" smooth="yes"/>
      <point x="464" y="450"/>
      <point x="553" y="412"/>
      <point x="553" y="294" type="curve" smooth="yes"/>
      <point x="553" y="231"/>
      <point x="511" y="182"/>
      <point x="444" y="157" type="curve"/>
      <point x="477" y="128"/>
      <point x="494" y="90"/>
      <point x="494" y="38" type="curve" smooth="yes"/>
      <point x="494" y="-64"/>
      <point x="405" y="-137"/>
    </contour>
    <contour>
      <point x="353" y="210" type="line"/>
      <point x="395" y="220"/>
      <point x="413" y="242"/>
      <point x="413" y="274" type="curve" smooth="yes"/>
      <point x="413" y="317"/>
      <point x="378" y="330"/>
      <point x="305" y="352" type="curve" smooth="yes"/>
      <point x="229" y="375" type="line"/>
      <point x="191" y="368"/>
      <point x="169" y="344"/>
      <point x="169" y="310" type="curve" smooth="yes"/>
      <point x="169" y="271"/>
      <point x="205" y="255"/>
      <point x="279" y="233" type="curve" smooth="yes"/>
    </contour>
  </outline>
</glyph>
<glyph name="dieresis" format="2">
  <advance width="400"/>
  <unicode hex="00A8"/>
  <outline>
    <contour>
      <point x="98" y="600" type="curve" smooth="yes"/>
      <point x="57" y="600"/>
      <point x="24" y="632"/>
      <point x="24" y="672" type="curve" smooth="yes"/>
      <point x="24" y="712"/>
      <point x="57" y="744"/>
      <point x="98" y="744" type="curve" smooth="yes"/>
      <point x="139" y="744"/>
      <point x="172" y="712"/>
      <point x="172" y="672" type="curve" smooth="yes"/>
      <point x="172" y="632"/>
      <point x="139" y="600"/>
    </contour>
    <contour>
      <point x="302" y="600" type="curve" smooth="yes"/>
      <point x="261" y="600"/>
      <point x="228" y="632"/>
      <point x="228" y="672" type="curve" smooth="yes"/>
      <point x="228" y="712"/>
      <point x="261" y="744"/>
      <point x="302" y="744" type="curve" smooth="yes"/>
      <point x="343" y="744"/>
      <point x="376" y="712"/>
      <point x="376" y="672" type="curve" smooth="yes"/>
      <point x="376" y="632"/>
      <point x="343" y="600"/>
    </contour>
  </outline>
</glyph>
<glyph name="copyright" format="2">
  <advance width="843"/>
  <unicode hex="00A9"/>
  <outline>
    <contour>
      <point x="426" y="152" type="curve" smooth="yes"/>
      <point x="292" y="152"/>
      <point x="222" y="232"/>
      <point x="222" y="353" type="curve" smooth="yes"/>
      <point x="222" y="361" type="line" smooth="yes"/>
      <point x="222" y="483"/>
      <point x="308" y="563"/>
      <point x="423" y="563" type="curve" smooth="yes"/>
      <point x="524" y="563"/>
      <point x="597" y="515"/>
      <point x="605" y="413" type="curve"/>
      <point x="496" y="413" type="line"/>
      <point x="490" y="455"/>
      <point x="467" y="478"/>
      <point x="423" y="478" type="curve" smooth="yes"/>
      <point x="368" y="478"/>
      <point x="334" y="437"/>
      <point x="334" y="361" type="curve" smooth="yes"/>
      <point x="334" y="354" type="line" smooth="yes"/>
      <point x="334" y="279"/>
      <point x="366" y="238"/>
      <point x="425" y="238" type="curve" smooth="yes"/>
      <point x="468" y="238"/>
      <point x="499" y="260"/>
      <point x="505" y="307" type="curve"/>
      <point x="609" y="307" type="line"/>
      <point x="602" y="205"/>
      <point x="528" y="152"/>
    </contour>
    <contour>
      <point x="421" y="32" type="curve" smooth="yes"/>
      <point x="595" y="32"/>
      <point x="742" y="164"/>
      <point x="742" y="359" type="curve" smooth="yes"/>
      <point x="742" y="551"/>
      <point x="599" y="683"/>
      <point x="423" y="683" type="curve" smooth="yes"/>
      <point x="244" y="683"/>
      <point x="101" y="550"/>
      <point x="101" y="357" type="curve" smooth="yes"/>
      <point x="101" y="162"/>
      <point x="249" y="32"/>
    </contour>
    <contour>
      <point x="421" y="-16" type="curve" smooth="yes"/>
      <point x="212" y="-16"/>
      <point x="44" y="146"/>
      <point x="44" y="357" type="curve" smooth="yes"/>
      <point x="44" y="565"/>
      <point x="211" y="731"/>
      <point x="423" y="731" type="curve" smooth="yes"/>
      <point x="637" y="731"/>
      <point x="800" y="566"/>
      <point x="800" y="359" type="curve" smooth="yes"/>
      <point x="800" y="147"/>
      <point x="632" y="-16"/>
    </contour>
  </outline>
</glyph>
<glyph name="ordfeminine" format="2">
  <advance width="460"/>
  <unicode hex="00AA"/>
  <outline>
    <contour>
      <point x="169" y="288" type="curve" smooth="yes"/>
      <point x="93" y="288"/>
      <point x="28" y="325"/>
      <point x="28" y="413" type="curve" smooth="yes"/>
      <point x="28" y="511"/>
      <point x="113" y="545"/>
      <point x="245" y="545" type="curve" smooth="yes"/>
      <point x="292" y="545" type="line"/>
      <point x="292" y="564" type="line" smooth="yes"/>
      <point x="292" y="608"/>
      <point x="276" y="631"/>
      <point x="231" y="631" type="curve" smooth="yes"/>
      <point x="189" y="631"/>
      <point x="171" y="608"/>
      <point x="166" y="578" type="curve"/>
      <point x="44" y="578" type="line"/>
      <point x="51" y="676"/>
      <point x="129" y="724"/>
      <point x="237" y="724" type="curve" smooth="yes"/>
      <point x="347" y="724"/>
      <point x="419" y="679"/>
      <point x="419" y="567" type="curve" smooth="yes"/>
      <point x="419" y="298" type="line"/>
      <point x="294" y="298" type="line"/>
      <point x="294" y="347" type="line"/>
      <point x="272" y="315"/>
      <point x="235" y="288"/>
    </contour>
    <contour>
      <point x="210" y="378" type="curve" smooth="yes"/>
      <point x="257" y="378"/>
      <point x="292" y="402"/>
      <point x="292" y="444" type="curve" smooth="yes"/>
      <point x="292" y="475" type="line"/>
      <point x="249" y="475" type="line" smooth="yes"/>
      <point x="190" y="475"/>
      <point x="156" y="461"/>
      <point x="156" y="423" type="curve" smooth="yes"/>
      <point x="156" y="394"/>
      <point x="172" y="378"/>
    </contour>
  </outline>
</glyph>
<glyph name="guillemotleft" format="2">
  <advance width="487"/>
  <unicode hex="00AB"/>
  <outline>
    <contour>
      <point x="168" y="75" type="line"/>
      <point x="41" y="261" type="line"/>
      <point x="168" y="447" type="line"/>
      <point x="271" y="447" type="line"/>
      <point x="149" y="261" type="line"/>
      <point x="271" y="75" type="line"/>
    </contour>
    <contour>
      <point x="347" y="75" type="line"/>
      <point x="220" y="261" type="line"/>
      <point x="347" y="447" type="line"/>
      <point x="450" y="447" type="line"/>
      <point x="328" y="261" type="line"/>
      <point x="450" y="75" type="line"/>
    </contour>
  </outline>
</glyph>
<glyph name="registered" format="2">
  <advance width="516"/>
  <unicode hex="00AE"/>
  <outline>
    <contour>
      <point x="176" y="396" type="line"/>
      <point x="176" y="615" type="line"/>
      <point x="261" y="615" type="line" smooth="yes"/>
      <point x="318" y="615"/>
      <point x="350" y="592"/>
      <point x="350" y="546" type="curve" smooth="yes"/>
      <point x="350" y="545" type="line" smooth="yes"/>
      <point x="350" y="513"/>
      <point x="333" y="496"/>
      <point x="310" y="486" type="curve"/>
      <point x="363" y="396" type="line"/>
      <point x="299" y="396" type="line"/>
      <point x="254" y="475" type="line"/>
      <point x="238" y="475" type="line"/>
      <point x="238" y="396" type="line"/>
    </contour>
    <contour>
      <point x="238" y="515" type="line"/>
      <point x="258" y="515" type="line" smooth="yes"/>
      <point x="279" y="515"/>
      <point x="290" y="524"/>
      <point x="290" y="542" type="curve" smooth="yes"/>
      <point x="290" y="543" type="line" smooth="yes"/>
      <point x="290" y="561"/>
      <point x="278" y="568"/>
      <point x="258" y="568" type="curve" smooth="yes"/>
      <point x="238" y="568" type="line"/>
    </contour>
    <contour>
      <point x="258" y="319" type="curve" smooth="yes"/>
      <point x="362" y="319"/>
      <point x="442" y="394"/>
      <point x="442" y="503" type="curve" smooth="yes"/>
      <point x="442" y="612"/>
      <point x="365" y="687"/>
      <point x="258" y="687" type="curve" smooth="yes"/>
      <point x="151" y="687"/>
      <point x="74" y="611"/>
      <point x="74" y="502" type="curve" smooth="yes"/>
      <point x="74" y="392"/>
      <point x="155" y="319"/>
    </contour>
    <contour>
      <point x="258" y="281" type="curve" smooth="yes"/>
      <point x="132" y="281"/>
      <point x="31" y="377"/>
      <point x="31" y="502" type="curve" smooth="yes"/>
      <point x="31" y="625"/>
      <point x="131" y="725"/>
      <point x="258" y="725" type="curve" smooth="yes"/>
      <point x="386" y="725"/>
      <point x="484" y="626"/>
      <point x="484" y="503" type="curve" smooth="yes"/>
      <point x="484" y="378"/>
      <point x="384" y="281"/>
    </contour>
  </outline>
</glyph>
<glyph name="macron" format="2">
  <advance width="400"/>
  <unicode hex="00AF"/>
  <outline>
    <contour>
      <point x="54" y="625" type="line"/>
      <point x="54" y="712" type="line"/>
      <point x="345" y="712" type="line"/>
      <point x="345" y="625" type="line"/>
    </contour>
  </outline>
</glyph>
<glyph name="degree" format="2">
  <advance width="443"/>
  <unicode hex="00B0"/>
  <outline>
    <contour>
      <point x="222" y="456" type="curve" smooth="yes"/>
      <point x="275" y="456"/>
      <point x="312" y="500"/>
      <point x="312" y="556" type="curve" smooth="yes"/>
      <point x="312" y="614"/>
      <point x="275" y="658"/>
      <point x="222" y="658" type="curve" smooth="yes"/>
      <point x="168" y="658"/>
      <point x="129" y="614"/>
      <point x="129" y="556" type="curve" smooth="yes"/>
      <point x="129" y="500"/>
      <point x="168" y="456"/>
    </contour>
    <contour>
      <point x="222" y="390" type="curve" smooth="yes"/>
      <point x="127" y="390"/>
      <point x="50" y="466"/>
      <point x="50" y="556" type="curve" smooth="yes"/>
      <point x="50" y="648"/>
      <point x="127" y="724"/>
      <point x="222" y="724" type="curve" smooth="yes"/>
      <point x="317" y="724"/>
      <point x="393" y="648"/>
      <point x="393" y="556" type="curve" smooth="yes"/>
      <point x="393" y="466"/>
      <point x="317" y="390"/>
    </contour>
  </outline>
</glyph>
<glyph name="plusminus" format="2">
  <advance width="551"/>
  <unicode hex="00B1"/>
  <outline>
    <contour>
      <point x="217" y="165" type="line"/>
      <point x="217" y="336" type="line"/>
      <point x="37" y="336" type="line"/>
      <point x="37" y="444" type="line"/>
      <point x="217" y="444" type="line"/>
      <point x="217" y="616" type="line"/>
      <point x="335" y="616" type="line"/>
      <point x="335" y="444" type="line"/>
      <point x="515" y="444" type="line"/>
      <point x="515" y="336" type="line"/>
      <point x="335" y="336" type="line"/>
      <point x="335" y="165" type="line"/>
    </contour>
    <contour>
      <point x="37" y="0" type="line"/>
      <point x="37" y="100" type="line"/>
      <point x="516" y="100" type="line"/>
      <point x="516" y="0" type="line"/>
    </contour>
  </outline>
</glyph>
<glyph name="threesuperior" format="2">
  <advance width="351"/>
  <unicode hex="00B3"/>
  <outline>
    <contour>
      <point x="174" y="345" type="curve" smooth="yes"/>
      <point x="68" y="345"/>
      <point x="22" y="397"/>
      <point x="19" y="471" type="curve"/>
      <point x="115" y="471" type="line"/>
      <point x="118" y="443"/>
      <point x="134" y="422"/>
      <point x="168" y="422" type="curve" smooth="yes"/>
      <point x="200" y="422"/>
      <point x="216" y="438"/>
      <point x="216" y="463" type="curve" smooth="yes"/>
      <point x="216" y="490"/>
      <point x="200" y="504"/>
      <point x="166" y="504" type="curve" smooth="yes"/>
      <point x="137" y="504" type="line"/>
      <point x="137" y="568" type="line"/>
      <point x="165" y="568" type="line" smooth="yes"/>
      <point x="199" y="568"/>
      <point x="214" y="583"/>
      <point x="214" y="608" type="curve" smooth="yes"/>
      <point x="214" y="629"/>
      <point x="201" y="644"/>
      <point x="174" y="644" type="curve" smooth="yes"/>
      <point x="147" y="644"/>
      <point x="129" y="627"/>
      <point x="125" y="599" type="curve"/>
      <point x="29" y="599" type="line"/>
      <point x="34" y="669"/>
      <point x="84" y="720"/>
      <point x="176" y="720" type="curve" smooth="yes"/>
      <point x="265" y="720"/>
      <point x="317" y="681"/>
      <point x="317" y="620" type="curve" smooth="yes"/>
      <point x="317" y="579"/>
      <point x="293" y="553"/>
      <point x="253" y="542" type="curve"/>
      <point x="296" y="534"/>
      <point x="326" y="504"/>
      <point x="326" y="460" type="curve" smooth="yes"/>
      <point x="326" y="391"/>
      <point x="273" y="345"/>
    </contour>
  </outline>
</glyph>
<glyph name="acute" format="2">
  <advance width="400"/>
  <unicode hex="00B4"/>
  <outline>
    <contour>
      <point x="140" y="594" type="line"/>
      <point x="197" y="753" type="line"/>
      <point x="349" y="753" type="line"/>
      <point x="245" y="594" type="line"/>
    </contour>
  </outline>
</glyph>
<glyph name="paragraph" format="2">
  <advance width="564"/>
  <unicode hex="00B6"/>
  <outline>
    <contour>
      <point x="263" y="-100" type="line"/>
      <point x="263" y="335" type="line"/>
      <point x="253" y="335" type="line" smooth="yes"/>
      <point x="122" y="335"/>
      <point x="34" y="397"/>
      <point x="34" y="522" type="curve" smooth="yes"/>
      <point x="34" y="652"/>
      <point x="126" y="715"/>
      <point x="253" y="715" type="curve" smooth="yes"/>
      <point x="486" y="715" type="line"/>
      <point x="486" y="-100" type="line"/>
      <point x="412" y="-100" type="line"/>
      <point x="412" y="654" type="line"/>
      <point x="336" y="654" type="line"/>
      <point x="336" y="-100" type="line"/>
    </contour>
  </outline>
</glyph>
<glyph name="periodcentered" format="2">
  <advance width="293"/>
  <unicode hex="00B7"/>
  <outline>
    <contour>
      <point x="146" y="239" type="curve" smooth="yes"/>
      <point x="96" y="239"/>
      <point x="57" y="278"/>
      <point x="57" y="327" type="curve" smooth="yes"/>
      <point x="57" y="375"/>
      <point x="96" y="414"/>
      <point x="146" y="414" type="curve" smooth="yes"/>
      <point x="197" y="414"/>
      <point x="236" y="375"/>
      <point x="236" y="327" type="curve" smooth="yes"/>
      <point x="236" y="278"/>
      <point x="197" y="239"/>
    </contour>
  </outline>
</glyph>
<glyph name="cedilla" format="2">
  <advance width="400"/>
  <unicode hex="00B8"/>
  <outline>
    <contour>
      <point x="205" y="-222" type="curve" smooth="yes"/>
      <point x="138" y="-222"/>
      <point x="95" y="-188"/>
      <point x="88" y="-132" type="curve"/>
      <point x="162" y="-132" type="line"/>
      <point x="165" y="-148"/>
      <point x="177" y="-163"/>
      <point x="200" y="-163" type="curve" smooth="yes"/>
      <point x="222" y="-163"/>
      <point x="235" y="-149"/>
      <point x="235" y="-130" type="curve" smooth="yes"/>
      <point x="235" y="-112"/>
      <point x="222" y="-99"/>
      <point x="201" y="-99" type="curve" smooth="yes"/>
      <point x="186" y="-99"/>
      <point x="176" y="-104"/>
      <point x="170" y="-109" type="curve"/>
      <point x="134" y="-74" type="line"/>
      <point x="179" y="0" type="line"/>
      <point x="244" y="0" type="line"/>
      <point x="215" y="-48" type="line"/>
      <point x="268" y="-42"/>
      <point x="319" y="-69"/>
      <point x="319" y="-132" type="curve" smooth="yes"/>
      <point x="319" y="-190"/>
      <point x="271" y="-222"/>
    </contour>
  </outline>
</glyph>
<glyph name="onesuperior" format="2">
  <advance width="266"/>
  <unicode hex="00B9"/>
  <outline>
    <contour>
      <point x="103" y="352" type="line"/>
      <point x="103" y="610" type="line"/>
      <point x="21" y="561" type="line"/>
      <point x="21" y="650" type="line"/>
      <point x="118" y="715" type="line"/>
      <point x="213" y="715" type="line"/>
      <point x="213" y="352" type="line"/>
    </contour>
  </outline>
</glyph>
<glyph name="ordmasculine" format="2">
  <advance width="511"/>
  <unicode hex="00BA"/>
  <outline>
    <contour>
      <point x="256" y="386" type="curve" smooth="yes"/>
      <point x="316" y="386"/>
      <point x="347" y="430"/>
      <point x="347" y="504" type="curve" smooth="yes"/>
      <point x="347" y="510" type="line" smooth="yes"/>
      <point x="347" y="583"/>
      <point x="315" y="626"/>
      <point x="256" y="626" type="curve" smooth="yes"/>
      <point x="198" y="626"/>
      <point x="164" y="584"/>
      <point x="164" y="510" type="curve" smooth="yes"/>
      <point x="164" y="504" type="line" smooth="yes"/>
      <point x="164" y="429"/>
      <point x="196" y="386"/>
    </contour>
    <contour>
      <point x="255" y="288" type="curve" smooth="yes"/>
      <point x="129" y="288"/>
      <point x="32" y="369"/>
      <point x="32" y="500" type="curve" smooth="yes"/>
      <point x="32" y="506" type="line" smooth="yes"/>
      <point x="32" y="640"/>
      <point x="129" y="724"/>
      <point x="256" y="724" type="curve" smooth="yes"/>
      <point x="383" y="724"/>
      <point x="479" y="642"/>
      <point x="479" y="511" type="curve" smooth="yes"/>
      <point x="479" y="505" type="line" smooth="yes"/>
      <point x="479" y="371"/>
      <point x="382" y="288"/>
    </contour>
  </outline>
</glyph>
<glyph name="guillemotright" format="2">
  <advance width="487"/>
  <unicode hex="00BB"/>
  <outline>
    <contour>
      <point x="38" y="75" type="line"/>
      <point x="159" y="261" type="line"/>
      <point x="38" y="447" type="line"/>
      <point x="141" y="447" type="line"/>
      <point x="267" y="261" type="line"/>
      <point x="141" y="75" type="line"/>
    </contour>
    <contour>
      <point x="217" y="75" type="line"/>
      <point x="338" y="261" type="line"/>
      <point x="217" y="447" type="line"/>
      <point x="320" y="447" type="line"/>
      <point x="446" y="261" type="line"/>
      <point x="320" y="75" type="line"/>
    </contour>
  </outline>
</glyph>
<glyph name="onequarter" format="2">
  <advance width="753"/>
  <unicode hex="00BC"/>
  <outline>
    <contour>
      <point x="106" y="352" type="line"/>
      <point x="106" y="610" type="line"/>
      <point x="24" y="561" type="line"/>
      <point x="24" y="650" type="line"/>
      <point x="121" y="715" type="line"/>
      <point x="216" y="715" type="line"/>
      <point x="216" y="352" type="line"/>
    </contour>
    <contour>
      <point x="60" y="0" type="line"/>
      <point x="600" y="715" type="line"/>
      <point x="684" y="715" type="line"/>
      <point x="144" y="0" type="line"/>
    </contour>
    <contour>
      <point x="578" y="0" type="line"/>
      <point x="578" y="69" type="line"/>
      <point x="397" y="69" type="line"/>
      <point x="397" y="109" type="line"/>
      <point x="552" y="363" type="line"/>
      <point x="683" y="363" type="line"/>
      <point x="683" y="143" type="line"/>
      <point x="730" y="143" type="line"/>
      <point x="730" y="69" type="line"/>
      <point x="683" y="69" type="line"/>
      <point x="683" y="0" type="line"/>
    </contour>
    <contour>
      <point x="496" y="143" type="line"/>
      <point x="581" y="143" type="line"/>
      <point x="581" y="289" type="line"/>
    </contour>
  </outline>
</glyph>
<glyph name="onehalf" format="2">
  <advance width="760"/>
  <unicode hex="00BD"/>
  <outline>
    <contour>
      <point x="47" y="0" type="line"/>
      <point x="587" y="715" type="line"/>
      <point x="671" y="715" type="line"/>
      <point x="131" y="0" type="line"/>
    </contour>
    <contour>
      <point x="106" y="352" type="line"/>
      <point x="106" y="610" type="line"/>
      <point x="24" y="561" type="line"/>
      <point x="24" y="650" type="line"/>
      <point x="121" y="715" type="line"/>
      <point x="216" y="715" type="line"/>
      <point x="216" y="352" type="line"/>
    </contour>
    <contour>
      <point x="433" y="0" type="line"/>
      <point x="433" y="15" type="line"/>
      <point x="561" y="149" type="line" smooth="yes"/>
      <point x="600" y="188"/>
      <point x="624" y="218"/>
      <point x="624" y="249" type="curve" smooth="yes"/>
      <point x="624" y="273"/>
      <point x="611" y="288"/>
      <point x="586" y="288" type="curve" smooth="yes"/>
      <point x="560" y="288"/>
      <point x="544" y="270"/>
      <point x="539" y="230" type="curve"/>
      <point x="440" y="230" type="line"/>
      <point x="444" y="320"/>
      <point x="501" y="368"/>
      <point x="591" y="368" type="curve" smooth="yes"/>
      <point x="684" y="368"/>
      <point x="730" y="320"/>
      <point x="730" y="255" type="curve" smooth="yes"/>
      <point x="730" y="206"/>
      <point x="701" y="167"/>
      <point x="658" y="126" type="curve" smooth="yes"/>
      <point x="609" y="79" type="line"/>
      <point x="733" y="79" type="line"/>
      <point x="733" y="0" type="line"/>
    </contour>
  </outline>
</glyph>
<glyph name="threequarters" format="2">
  <advance width="773"/>
  <unicode hex="00BE"/>
  <outline>
    <contour>
      <point x="177" y="345" type="curve" smooth="yes"/>
      <point x="71" y="345"/>
      <point x="25" y="397"/>
      <point x="22" y="471" type="curve"/>
      <point x="118" y="471" type="line"/>
      <point x="121" y="443"/>
      <point x="137" y="422"/>
      <point x="171" y="422" type="curve" smooth="yes"/>
      <point x="203" y="422"/>
      <point x="219" y="438"/>
      <point x="219" y="463" type="curve" smooth="yes"/>
      <point x="219" y="490"/>
      <point x="203" y="504"/>
      <point x="169" y="504" type="curve" smooth="yes"/>
      <point x="140" y="504" type="line"/>
      <point x="140" y="568" type="line"/>
      <point x="168" y="568" type="line" smooth="yes"/>
      <point x="202" y="568"/>
      <point x="217" y="583"/>
      <point x="217" y="608" type="curve" smooth="yes"/>
      <point x="217" y="629"/>
      <point x="204" y="644"/>
      <point x="177" y="644" type="curve" smooth="yes"/>
      <point x="150" y="644"/>
      <point x="132" y="627"/>
      <point x="128" y="599" type="curve"/>
      <point x="32" y="599" type="line"/>
      <point x="37" y="669"/>
      <point x="87" y="720"/>
      <point x="179" y="720" type="curve" smooth="yes"/>
      <point x="268" y="720"/>
      <point x="320" y="681"/>
      <point x="320" y="620" type="curve" smooth="yes"/>
      <point x="320" y="579"/>
      <point x="296" y="553"/>
      <point x="256" y="542" type="curve"/>
      <point x="299" y="534"/>
      <point x="329" y="504"/>
      <point x="329" y="460" type="curve" smooth="yes"/>
      <point x="329" y="391"/>
      <point x="276" y="345"/>
    </contour>
    <contour>
      <point x="103" y="0" type="line"/>
      <point x="643" y="715" type="line"/>
      <point x="727" y="715" type="line"/>
      <point x="187" y="0" type="line"/>
    </contour>
    <contour>
      <point x="596" y="0" type="line"/>
      <point x="596" y="69" type="line"/>
      <point x="415" y="69" type="line"/>
      <point x="415" y="109" type="line"/>
      <point x="570" y="363" type="line"/>
      <point x="701" y="363" type="line"/>
      <point x="701" y="143" type="line"/>
      <point x="748" y="143" type="line"/>
      <point x="748" y="69" type="line"/>
      <point x="701" y="69" type="line"/>
      <point x="701" y="0" type="line"/>
    </contour>
    <contour>
      <point x="514" y="143" type="line"/>
      <point x="599" y="143" type="line"/>
      <point x="599" y="289" type="line"/>
    </contour>
  </outline>
</glyph>
<glyph name="questiondown" format="2">
  <advance width="532"/>
  <unicode hex="00BF"/>
  <outline>
    <contour>
      <point x="359" y="375" type="line"/>
      <point x="359" y="345" type="line" smooth="yes"/>
      <point x="359" y="267"/>
      <point x="307" y="218"/>
      <point x="260" y="173" type="curve" smooth="yes"/>
      <point x="223" y="138"/>
      <point x="192" y="106"/>
      <point x="192" y="66" type="curve" smooth="yes"/>
      <point x="192" y="20"/>
      <point x="216" y="-9"/>
      <point x="269" y="-9" type="curve" smooth="yes"/>
      <point x="324" y="-9"/>
      <point x="361" y="31"/>
      <point x="368" y="94" type="curve"/>
      <point x="507" y="94" type="line"/>
      <point x="501" y="-44"/>
      <point x="402" y="-126"/>
      <point x="260" y="-126" type="curve" smooth="yes"/>
      <point x="112" y="-126"/>
      <point x="37" y="-52"/>
      <point x="37" y="54" type="curve" smooth="yes"/>
      <point x="37" y="122"/>
      <point x="76" y="168"/>
      <point x="119" y="210" type="curve" smooth="yes"/>
      <point x="167" y="257"/>
      <point x="219" y="297"/>
      <point x="225" y="350" type="curve"/>
      <point x="225" y="375" type="line"/>
    </contour>
    <contour>
      <point x="293" y="607" type="curve" smooth="yes"/>
      <point x="344" y="607"/>
      <point x="384" y="569"/>
      <point x="384" y="521" type="curve" smooth="yes"/>
      <point x="384" y="473"/>
      <point x="344" y="434"/>
      <point x="293" y="434" type="curve" smooth="yes"/>
      <point x="243" y="434"/>
      <point x="202" y="473"/>
      <point x="202" y="521" type="curve" smooth="yes"/>
      <point x="202" y="569"/>
      <point x="243" y="607"/>
    </contour>
  </outline>
</glyph>
<glyph name="Atilde" format="2">
  <advance width="720"/>
  <unicode hex="00C3"/>
  <outline>
    <contour>
      <point x="21" y="0" type="line"/>
      <point x="256" y="715" type="line"/>
      <point x="467" y="715" type="line"/>
      <point x="699" y="0" type="line"/>
      <point x="530" y="0" type="line"/>
      <point x="481" y="159" type="line"/>
      <point x="222" y="159" type="line"/>
      <point x="173" y="0" type="line"/>
    </contour>
    <contour>
      <point x="420" y="764" type="curve" smooth="yes"/>
      <point x="368" y="764"/>
      <point x="334" y="801"/>
      <point x="305" y="801" type="curve" smooth="yes"/>
      <point x="287" y="801"/>
      <point x="274" y="785"/>
      <point x="270" y="764" type="curve"/>
      <point x="184" y="764" type="line"/>
      <point x="191" y="856"/>
      <point x="239" y="904"/>
      <point x="298" y="904" type="curve" smooth="yes"/>
      <point x="347" y="904"/>
      <point x="382" y="866"/>
      <point x="414" y="866" type="curve" smooth="yes"/>
      <point x="432" y="866"/>
      <point x="444" y="882"/>
      <point x="448" y="903" type="curve"/>
      <point x="535" y="903" type="line"/>
      <point x="527" y="811"/>
      <point x="477" y="764"/>
    </contour>
    <contour>
      <point x="352" y="583" type="line"/>
      <point x="257" y="274" type="line"/>
      <point x="446" y="274" type="line"/>
    </contour>
  </outline>
</glyph>
<glyph name="Aring" format="2">
  <advance width="720"/>
  <unicode hex="00C5"/>
  <outline>
    <contour>
      <point x="21" y="0" type="line"/>
      <point x="256" y="715" type="line"/>
      <point x="467" y="715" type="line"/>
      <point x="699" y="0" type="line"/>
      <point x="530" y="0" type="line"/>
      <point x="481" y="159" type="line"/>
      <point x="222" y="159" type="line"/>
      <point x="173" y="0" type="line"/>
    </contour>
    <contour>
      <point x="359" y="750" type="curve" smooth="yes"/>
      <point x="296" y="750"/>
      <point x="244" y="800"/>
      <point x="244" y="861" type="curve" smooth="yes"/>
      <point x="244" y="923"/>
      <point x="296" y="973"/>
      <point x="359" y="973" type="curve" smooth="yes"/>
      <point x="422" y="973"/>
      <point x="474" y="923"/>
      <point x="474" y="861" type="curve" smooth="yes"/>
      <point x="474" y="800"/>
      <point x="422" y="750"/>
    </contour>
    <contour>
      <point x="352" y="583" type="line"/>
      <point x="257" y="274" type="line"/>
      <point x="446" y="274" type="line"/>
    </contour>
    <contour>
      <point x="359" y="808" type="curve" smooth="yes"/>
      <point x="387" y="808"/>
      <point x="408" y="830"/>
      <point x="408" y="861" type="curve" smooth="yes"/>
      <point x="408" y="892"/>
      <point x="387" y="915"/>
      <point x="359" y="915" type="curve" smooth="yes"/>
      <point x="330" y="915"/>
      <point x="310" y="892"/>
      <point x="310" y="861" type="curve" smooth="yes"/>
      <point x="310" y="830"/>
      <point x="330" y="808"/>
    </contour>
  </outline>
</glyph>
<glyph name="Ccedilla" format="2">
  <advance width="748"/>
  <unicode hex="00C7"/>
  <outline>
    <contour>
      <point x="379" y="-222" type="curve" smooth="yes"/>
      <point x="312" y="-222"/>
      <point x="269" y="-188"/>
      <point x="262" y="-132" type="curve"/>
      <point x="336" y="-132" type="line"/>
      <point x="339" y="-148"/>
      <point x="351" y="-163"/>
      <point x="374" y="-163" type="curve" smooth="yes"/>
      <point x="396" y="-163"/>
      <point x="409" y="-149"/>
      <point x="409" y="-130" type="curve" smooth="yes"/>
      <point x="409" y="-112"/>
      <point x="396" y="-99"/>
      <point x="375" y="-99" type="curve" smooth="yes"/>
      <point x="360" y="-99"/>
      <point x="350" y="-104"/>
      <point x="344" y="-109" type="curve"/>
      <point x="308" y="-74" type="line"/>
      <point x="348" y="-8" type="line"/>
      <point x="147" y="11"/>
      <point x="40" y="149"/>
      <point x="40" y="353" type="curve" smooth="yes"/>
      <point x="40" y="361" type="line" smooth="yes"/>
      <point x="40" y="578"/>
      <point x="192" y="726"/>
      <point x="395" y="726" type="curve" smooth="yes"/>
      <point x="567" y="726"/>
      <point x="695" y="642"/>
      <point x="712" y="466" type="curve"/>
      <point x="546" y="466" type="line"/>
      <point x="534" y="552"/>
      <point x="486" y="598"/>
      <point x="396" y="598" type="curve" smooth="yes"/>
      <point x="283" y="598"/>
      <point x="211" y="510"/>
      <point x="211" y="362" type="curve" smooth="yes"/>
      <point x="211" y="354" type="line" smooth="yes"/>
      <point x="211" y="206"/>
      <point x="279" y="120"/>
      <point x="397" y="120" type="curve" smooth="yes"/>
      <point x="486" y="120"/>
      <point x="548" y="165"/>
      <point x="561" y="257" type="curve"/>
      <point x="720" y="257" type="line"/>
      <point x="702" y="84"/>
      <point x="581" y="-6"/>
      <point x="411" y="-11" type="curve"/>
      <point x="389" y="-48" type="line"/>
      <point x="442" y="-42"/>
      <point x="493" y="-69"/>
      <point x="493" y="-132" type="curve" smooth="yes"/>
      <point x="493" y="-190"/>
      <point x="445" y="-222"/>
    </contour>
  </outline>
</glyph>
<glyph name="Eacute" format="2">
  <advance width="595"/>
  <unicode hex="00C9"/>
  <outline>
    <contour>
      <point x="255" y="763" type="line"/>
      <point x="308" y="902" type="line"/>
      <point x="465" y="902" type="line"/>
      <point x="364" y="763" type="line"/>
    </contour>
    <contour>
      <point x="77" y="0" type="line"/>
      <point x="77" y="715" type="line"/>
      <point x="543" y="715" type="line"/>
      <point x="543" y="589" type="line"/>
      <point x="238" y="589" type="line"/>
      <point x="238" y="422" type="line"/>
      <point x="482" y="422" type="line"/>
      <point x="482" y="304" type="line"/>
      <point x="238" y="304" type="line"/>
      <point x="238" y="126" type="line"/>
      <point x="559" y="126" type="line"/>
      <point x="559" y="0" type="line"/>
    </contour>
  </outline>
</glyph>
<glyph name="Edieresis" format="2">
  <advance width="595"/>
  <unicode hex="00CB"/>
  <outline>
    <contour>
      <point x="77" y="0" type="line"/>
      <point x="77" y="715" type="line"/>
      <point x="543" y="715" type="line"/>
      <point x="543" y="589" type="line"/>
      <point x="238" y="589" type="line"/>
      <point x="238" y="422" type="line"/>
      <point x="482" y="422" type="line"/>
      <point x="482" y="304" type="line"/>
      <point x="238" y="304" type="line"/>
      <point x="238" y="126" type="line"/>
      <point x="559" y="126" type="line"/>
      <point x="559" y="0" type="line"/>
    </contour>
    <contour>
      <point x="209" y="769" type="curve" smooth="yes"/>
      <point x="168" y="769"/>
      <point x="135" y="802"/>
      <point x="135" y="842" type="curve" smooth="yes"/>
      <point x="135" y="882"/>
      <point x="168" y="914"/>
      <point x="209" y="914" type="curve" smooth="yes"/>
      <point x="249" y="914"/>
      <point x="283" y="882"/>
      <point x="283" y="842" type="curve" smooth="yes"/>
      <point x="283" y="802"/>
      <point x="249" y="769"/>
    </contour>
    <contour>
      <point x="424" y="769" type="curve" smooth="yes"/>
      <point x="384" y="769"/>
      <point x="351" y="802"/>
      <point x="351" y="842" type="curve" smooth="yes"/>
      <point x="351" y="882"/>
      <point x="384" y="914"/>
      <point x="424" y="914" type="curve" smooth="yes"/>
      <point x="465" y="914"/>
      <point x="498" y="882"/>
      <point x="498" y="842" type="curve" smooth="yes"/>
      <point x="498" y="802"/>
      <point x="465" y="769"/>
    </contour>
  </outline>
</glyph>
<glyph name="Icircumflex" format="2">
  <advance width="325"/>
  <unicode hex="00CE"/>
  <outline>
    <contour>
      <point x="81" y="0" type="line"/>
      <point x="81" y="715" type="line"/>
      <point x="244" y="715" type="line"/>
      <point x="244" y="0" type="line"/>
    </contour>
    <contour>
      <point x="-10" y="763" type="line"/>
      <point x="102" y="902" type="line"/>
      <point x="225" y="902" type="line"/>
      <point x="333" y="763" type="line"/>
      <point x="229" y="763" type="line"/>
      <point x="161" y="816" type="line"/>
      <point x="92" y="763" type="line"/>
    </contour>
  </outline>
</glyph>
<glyph name="Idieresis" format="2">
  <advance width="325"/>
  <unicode hex="00CF"/>
  <outline>
    <contour>
      <point x="81" y="0" type="line"/>
      <point x="81" y="715" type="line"/>
      <point x="244" y="715" type="line"/>
      <point x="244" y="0" type="line"/>
    </contour>
    <contour>
      <point x="54" y="769" type="curve" smooth="yes"/>
      <point x="13" y="769"/>
      <point x="-20" y="802"/>
      <point x="-20" y="842" type="curve" smooth="yes"/>
      <point x="-20" y="882"/>
      <point x="13" y="914"/>
      <point x="54" y="914" type="curve" smooth="yes"/>
      <point x="94" y="914"/>
      <point x="128" y="882"/>
      <point x="128" y="842" type="curve" smooth="yes"/>
      <point x="128" y="802"/>
      <point x="94" y="769"/>
    </contour>
    <contour>
      <point x="269" y="769" type="curve" smooth="yes"/>
      <point x="229" y="769"/>
      <point x="196" y="802"/>
      <point x="196" y="842" type="curve" smooth="yes"/>
      <point x="196" y="882"/>
      <point x="229" y="914"/>
      <point x="269" y="914" type="curve" smooth="yes"/>
      <point x="310" y="914"/>
      <point x="343" y="882"/>
      <point x="343" y="842" type="curve" smooth="yes"/>
      <point x="343" y="802"/>
      <point x="310" y="769"/>
    </contour>
  </outline>
</glyph>
<glyph name="Ntilde" format="2">
  <advance width="758"/>
  <unicode hex="00D1"/>
  <outline>
    <contour>
      <point x="455" y="764" type="curve" smooth="yes"/>
      <point x="403" y="764"/>
      <point x="369" y="801"/>
      <point x="340" y="801" type="curve" smooth="yes"/>
      <point x="322" y="801"/>
      <point x="309" y="785"/>
      <point x="305" y="764" type="curve"/>
      <point x="219" y="764" type="line"/>
      <point x="226" y="856"/>
      <point x="274" y="904"/>
      <point x="333" y="904" type="curve" smooth="yes"/>
      <point x="382" y="904"/>
      <point x="417" y="866"/>
      <point x="449" y="866" type="curve" smooth="yes"/>
      <point x="467" y="866"/>
      <point x="479" y="882"/>
      <point x="483" y="903" type="curve"/>
      <point x="570" y="903" type="line"/>
      <point x="562" y="811"/>
      <point x="512" y="764"/>
    </contour>
    <contour>
      <point x="77" y="0" type="line"/>
      <point x="77" y="715" type="line"/>
      <point x="265" y="715" type="line"/>
      <point x="537" y="244" type="line"/>
      <point x="537" y="715" type="line"/>
      <point x="681" y="715" type="line"/>
      <point x="681" y="0" type="line"/>
      <point x="519" y="0" type="line"/>
      <point x="221" y="509" type="line"/>
      <point x="221" y="0" type="line"/>
    </contour>
  </outline>
</glyph>
<glyph name="Otilde" format="2">
  <advance width="816"/>
  <unicode hex="00D5"/>
  <outline>
    <contour>
      <point x="468" y="764" type="curve" smooth="yes"/>
      <point x="416" y="764"/>
      <point x="382" y="801"/>
      <point x="353" y="801" type="curve" smooth="yes"/>
      <point x="335" y="801"/>
      <point x="322" y="785"/>
      <point x="318" y="764" type="curve"/>
      <point x="232" y="764" type="line"/>
      <point x="239" y="856"/>
      <point x="287" y="904"/>
      <point x="346" y="904" type="curve" smooth="yes"/>
      <point x="395" y="904"/>
      <point x="430" y="866"/>
      <point x="462" y="866" type="curve" smooth="yes"/>
      <point x="480" y="866"/>
      <point x="492" y="882"/>
      <point x="496" y="903" type="curve"/>
      <point x="583" y="903" type="line"/>
      <point x="575" y="811"/>
      <point x="525" y="764"/>
    </contour>
    <contour>
      <point x="410" y="118" type="curve" smooth="yes"/>
      <point x="531" y="118"/>
      <point x="607" y="211"/>
      <point x="607" y="355" type="curve" smooth="yes"/>
      <point x="607" y="363" type="line" smooth="yes"/>
      <point x="607" y="502"/>
      <point x="533" y="597"/>
      <point x="408" y="597" type="curve" smooth="yes"/>
      <point x="284" y="597"/>
      <point x="209" y="506"/>
      <point x="209" y="362" type="curve" smooth="yes"/>
      <point x="209" y="354" type="line" smooth="yes"/>
      <point x="209" y="208"/>
      <point x="293" y="118"/>
    </contour>
    <contour>
      <point x="407" y="-11" type="curve" smooth="yes"/>
      <point x="183" y="-11"/>
      <point x="40" y="144"/>
      <point x="40" y="353" type="curve" smooth="yes"/>
      <point x="40" y="361" type="line" smooth="yes"/>
      <point x="40" y="574"/>
      <point x="196" y="725"/>
      <point x="408" y="725" type="curve" smooth="yes"/>
      <point x="623" y="725"/>
      <point x="776" y="580"/>
      <point x="776" y="365" type="curve" smooth="yes"/>
      <point x="776" y="357" type="line" smooth="yes"/>
      <point x="776" y="144"/>
      <point x="630" y="-11"/>
    </contour>
  </outline>
</glyph>
<glyph name="Odieresis" format="2">
  <advance width="816"/>
  <unicode hex="00D6"/>
  <outline>
    <contour>
      <point x="299" y="769" type="curve" smooth="yes"/>
      <point x="258" y="769"/>
      <point x="225" y="802"/>
      <point x="225" y="842" type="curve" smooth="yes"/>
      <point x="225" y="882"/>
      <point x="258" y="914"/>
      <point x="299" y="914" type="curve" smooth="yes"/>
      <point x="339" y="914"/>
      <point x="373" y="882"/>
      <point x="373" y="842" type="curve" smooth="yes"/>
      <point x="373" y="802"/>
      <point x="339" y="769"/>
    </contour>
    <contour>
      <point x="514" y="769" type="curve" smooth="yes"/>
      <point x="474" y="769"/>
      <point x="441" y="802"/>
      <point x="441" y="842" type="curve" smooth="yes"/>
      <point x="441" y="882"/>
      <point x="474" y="914"/>
      <point x="514" y="914" type="curve" smooth="yes"/>
      <point x="555" y="914"/>
      <point x="588" y="882"/>
      <point x="588" y="842" type="curve" smooth="yes"/>
      <point x="588" y="802"/>
      <point x="555" y="769"/>
    </contour>
    <contour>
      <point x="410" y="118" type="curve" smooth="yes"/>
      <point x="531" y="118"/>
      <point x="607" y="211"/>
      <point x="607" y="355" type="curve" smooth="yes"/>
      <point x="607" y="363" type="line" smooth="yes"/>
      <point x="607" y="502"/>
      <point x="533" y="597"/>
      <point x="408" y="597" type="curve" smooth="yes"/>
      <point x="284" y="597"/>
      <point x="209" y="506"/>
      <point x="209" y="362" type="curve" smooth="yes"/>
      <point x="209" y="354" type="line" smooth="yes"/>
      <point x="209" y="208"/>
      <point x="293" y="118"/>
    </contour>
    <contour>
      <point x="407" y="-11" type="curve" smooth="yes"/>
      <point x="183" y="-11"/>
      <point x="40" y="144"/>
      <point x="40" y="353" type="curve" smooth="yes"/>
      <point x="40" y="361" type="line" smooth="yes"/>
      <point x="40" y="574"/>
      <point x="196" y="725"/>
      <point x="408" y="725" type="curve" smooth="yes"/>
      <point x="623" y="725"/>
      <point x="776" y="580"/>
      <point x="776" y="365" type="curve" smooth="yes"/>
      <point x="776" y="357" type="line" smooth="yes"/>
      <point x="776" y="144"/>
      <point x="630" y="-11"/>
    </contour>
  </outline>
</glyph>
<glyph name="multiply" format="2">
  <advance width="534"/>
  <unicode hex="00D7"/>
  <outline>
    <contour>
      <point x="114" y="105" type="line"/>
      <point x="37" y="182" type="line"/>
      <point x="190" y="335" type="line"/>
      <point x="35" y="489" type="line"/>
      <point x="112" y="567" type="line"/>
      <point x="266" y="412" type="line"/>
      <point x="420" y="565" type="line"/>
      <point x="497" y="488" type="line"/>
      <point x="344" y="335" type="line"/>
      <point x="499" y="181" type="line"/>
      <point x="420" y="103" type="line"/>
      <point x="266" y="258" type="line"/>
    </contour>
  </outline>
</glyph>
<glyph name="Ugrave" format="2">
  <advance width="739"/>
  <unicode hex="00D9"/>
  <outline>
    <contour>
      <point x="321" y="763" type="line"/>
      <point x="222" y="902" type="line"/>
      <point x="378" y="902" type="line"/>
      <point x="430" y="763" type="line"/>
    </contour>
    <contour>
      <point x="366" y="-11" type="curve" smooth="yes"/>
      <point x="178" y="-11"/>
      <point x="71" y="89"/>
      <point x="71" y="279" type="curve" smooth="yes"/>
      <point x="71" y="715" type="line"/>
      <point x="234" y="715" type="line"/>
      <point x="234" y="289" type="line" smooth="yes"/>
      <point x="234" y="170"/>
      <point x="269" y="118"/>
      <point x="367" y="118" type="curve" smooth="yes"/>
      <point x="463" y="118"/>
      <point x="505" y="164"/>
      <point x="505" y="295" type="curve" smooth="yes"/>
      <point x="505" y="715" type="line"/>
      <point x="668" y="715" type="line"/>
      <point x="668" y="285" type="line" smooth="yes"/>
      <point x="668" y="90"/>
      <point x="559" y="-11"/>
    </contour>
  </outline>
</glyph>
<glyph name="Udieresis" format="2">
  <advance width="739"/>
  <unicode hex="00DC"/>
  <outline>
    <contour>
      <point x="366" y="-11" type="curve" smooth="yes"/>
      <point x="178" y="-11"/>
      <point x="71" y="89"/>
      <point x="71" y="279" type="curve" smooth="yes"/>
      <point x="71" y="715" type="line"/>
      <point x="234" y="715" type="line"/>
      <point x="234" y="289" type="line" smooth="yes"/>
      <point x="234" y="170"/>
      <point x="269" y="118"/>
      <point x="367" y="118" type="curve" smooth="yes"/>
      <point x="463" y="118"/>
      <point x="505" y="164"/>
      <point x="505" y="295" type="curve" smooth="yes"/>
      <point x="505" y="715" type="line"/>
      <point x="668" y="715" type="line"/>
      <point x="668" y="285" type="line" smooth="yes"/>
      <point x="668" y="90"/>
      <point x="559" y="-11"/>
    </contour>
    <contour>
      <point x="260" y="769" type="curve" smooth="yes"/>
      <point x="219" y="769"/>
      <point x="186" y="802"/>
      <point x="186" y="842" type="curve" smooth="yes"/>
      <point x="186" y="882"/>
      <point x="219" y="914"/>
      <point x="260" y="914" type="curve" smooth="yes"/>
      <point x="300" y="914"/>
      <point x="334" y="882"/>
      <point x="334" y="842" type="curve" smooth="yes"/>
      <point x="334" y="802"/>
      <point x="300" y="769"/>
    </contour>
    <contour>
      <point x="475" y="769" type="curve" smooth="yes"/>
      <point x="435" y="769"/>
      <point x="402" y="802"/>
      <point x="402" y="842" type="curve" smooth="yes"/>
      <point x="402" y="882"/>
      <point x="435" y="914"/>
      <point x="475" y="914" type="curve" smooth="yes"/>
      <point x="516" y="914"/>
      <point x="549" y="882"/>
      <point x="549" y="842" type="curve" smooth="yes"/>
      <point x="549" y="802"/>
      <point x="516" y="769"/>
    </contour>
  </outline>
</glyph>
<glyph name="Thorn" format="2">
  <advance width="626"/>
  <unicode hex="00DE"/>
  <outline>
    <contour>
      <point x="77" y="0" type="line"/>
      <point x="77" y="715" type="line"/>
      <point x="238" y="715" type="line"/>
      <point x="238" y="592" type="line"/>
      <point x="324" y="592" type="line" smooth="yes"/>
      <point x="498" y="592"/>
      <point x="597" y="523"/>
      <point x="597" y="371" type="curve" smooth="yes"/>
      <point x="597" y="367" type="line" smooth="yes"/>
      <point x="597" y="217"/>
      <point x="492" y="146"/>
      <point x="329" y="146" type="curve" smooth="yes"/>
      <point x="238" y="146" type="line"/>
      <point x="238" y="0" type="line"/>
    </contour>
    <contour>
      <point x="238" y="260" type="line"/>
      <point x="320" y="260" type="line" smooth="yes"/>
      <point x="399" y="260"/>
      <point x="441" y="296"/>
      <point x="441" y="367" type="curve" smooth="yes"/>
      <point x="441" y="371" type="line" smooth="yes"/>
      <point x="441" y="446"/>
      <point x="397" y="474"/>
      <point x="320" y="474" type="curve" smooth="yes"/>
      <point x="238" y="474" type="line"/>
    </contour>
  </outline>
</glyph>
<glyph name="germandbls" format="2">
  <advance width="619"/>
  <unicode hex="00DF"/>
  <outline>
    <contour>
      <point x="364" y="-10" type="curve" smooth="yes"/>
      <point x="321" y="-10"/>
      <point x="287" y="-2"/>
      <point x="270" y="3" type="curve"/>
      <point x="270" y="115" type="line"/>
      <point x="284" y="109"/>
      <point x="306" y="103"/>
      <point x="333" y="103" type="curve" smooth="yes"/>
      <point x="387" y="103"/>
      <point x="441" y="128"/>
      <point x="441" y="231" type="curve" smooth="yes"/>
      <point x="441" y="237" type="line" smooth="yes"/>
      <point x="441" y="335"/>
      <point x="377" y="377"/>
      <point x="282" y="376" type="curve"/>
      <point x="282" y="486" type="line"/>
      <point x="365" y="485"/>
      <point x="396" y="536"/>
      <point x="396" y="583" type="curve" smooth="yes"/>
      <point x="396" y="587" type="line" smooth="yes"/>
      <point x="396" y="641"/>
      <point x="364" y="673"/>
      <point x="304" y="673" type="curve" smooth="yes"/>
      <point x="246" y="673"/>
      <point x="208" y="631"/>
      <point x="208" y="563" type="curve" smooth="yes"/>
      <point x="208" y="0" type="line"/>
      <point x="64" y="0" type="line"/>
      <point x="64" y="552" type="line" smooth="yes"/>
      <point x="64" y="701"/>
      <point x="178" y="773"/>
      <point x="311" y="773" type="curve" smooth="yes"/>
      <point x="446" y="773"/>
      <point x="533" y="707"/>
      <point x="533" y="591" type="curve" smooth="yes"/>
      <point x="533" y="589" type="line" smooth="yes"/>
      <point x="533" y="522"/>
      <point x="486" y="462"/>
      <point x="414" y="440" type="curve"/>
      <point x="511" y="417"/>
      <point x="588" y="344"/>
      <point x="588" y="230" type="curve" smooth="yes"/>
      <point x="588" y="223" type="line" smooth="yes"/>
      <point x="588" y="59"/>
      <point x="488" y="-10"/>
    </contour>
  </outline>
</glyph>
<glyph name="aring" format="2">
  <advance width="564"/>
  <unicode hex="00E5"/>
  <outline>
    <contour>
      <point x="205" y="-11" type="curve" smooth="yes"/>
      <point x="110" y="-11"/>
      <point x="30" y="35"/>
      <point x="30" y="145" type="curve" smooth="yes"/>
      <point x="30" y="267"/>
      <point x="142" y="313"/>
      <point x="302" y="313" type="curve" smooth="yes"/>
      <point x="361" y="313" type="line"/>
      <point x="361" y="334" type="line" smooth="yes"/>
      <point x="361" y="396"/>
      <point x="342" y="430"/>
      <point x="276" y="430" type="curve" smooth="yes"/>
      <point x="219" y="430"/>
      <point x="193" y="401"/>
      <point x="187" y="356" type="curve"/>
      <point x="50" y="356" type="line"/>
      <point x="59" y="480"/>
      <point x="157" y="535"/>
      <point x="285" y="535" type="curve" smooth="yes"/>
      <point x="413" y="535"/>
      <point x="504" y="483"/>
      <point x="504" y="341" type="curve" smooth="yes"/>
      <point x="504" y="0" type="line"/>
      <point x="363" y="0" type="line"/>
      <point x="363" y="63" type="line"/>
      <point x="333" y="21"/>
      <point x="287" y="-11"/>
    </contour>
    <contour>
      <point x="248" y="90" type="curve" smooth="yes"/>
      <point x="312" y="90"/>
      <point x="361" y="125"/>
      <point x="361" y="183" type="curve" smooth="yes"/>
      <point x="361" y="227" type="line"/>
      <point x="305" y="227" type="line" smooth="yes"/>
      <point x="221" y="227"/>
      <point x="172" y="209"/>
      <point x="172" y="153" type="curve" smooth="yes"/>
      <point x="172" y="115"/>
      <point x="195" y="90"/>
    </contour>
    <contour>
      <point x="284" y="643" type="curve" smooth="yes"/>
      <point x="312" y="643"/>
      <point x="332" y="665"/>
      <point x="332" y="696" type="curve" smooth="yes"/>
      <point x="332" y="726"/>
      <point x="312" y="749"/>
      <point x="284" y="749" type="curve" smooth="yes"/>
      <point x="256" y="749"/>
      <point x="236" y="726"/>
      <point x="236" y="696" type="curve" smooth="yes"/>
      <point x="236" y="665"/>
      <point x="256" y="643"/>
    </contour>
    <contour>
      <point x="284" y="585" type="curve" smooth="yes"/>
      <point x="221" y="585"/>
      <point x="170" y="635"/>
      <point x="170" y="696" type="curve" smooth="yes"/>
      <point x="170" y="756"/>
      <point x="221" y="806"/>
      <point x="284" y="806" type="curve" smooth="yes"/>
      <point x="347" y="806"/>
      <point x="398" y="756"/>
      <point x="398" y="696" type="curve" smooth="yes"/>
      <point x="398" y="635"/>
      <point x="347" y="585"/>
    </contour>
  </outline>
</glyph>
<glyph name="ccedilla" format="2">
  <advance width="578"/>
  <unicode hex="00E7"/>
  <outline>
    <contour>
      <point x="282" y="-222" type="curve" smooth="yes"/>
      <point x="215" y="-222"/>
      <point x="172" y="-188"/>
      <point x="165" y="-132" type="curve"/>
      <point x="239" y="-132" type="line"/>
      <point x="242" y="-148"/>
      <point x="254" y="-163"/>
      <point x="277" y="-163" type="curve" smooth="yes"/>
      <point x="299" y="-163"/>
      <point x="312" y="-149"/>
      <point x="312" y="-130" type="curve" smooth="yes"/>
      <point x="312" y="-112"/>
      <point x="299" y="-99"/>
      <point x="278" y="-99" type="curve" smooth="yes"/>
      <point x="263" y="-99"/>
      <point x="253" y="-104"/>
      <point x="247" y="-109" type="curve"/>
      <point x="211" y="-74" type="line"/>
      <point x="251" y="-7" type="line"/>
      <point x="123" y="11"/>
      <point x="32" y="103"/>
      <point x="32" y="255" type="curve" smooth="yes"/>
      <point x="32" y="263" type="line" smooth="yes"/>
      <point x="32" y="432"/>
      <point x="153" y="535"/>
      <point x="302" y="535" type="curve" smooth="yes"/>
      <point x="423" y="535"/>
      <point x="535" y="482"/>
      <point x="548" y="332" type="curve"/>
      <point x="411" y="332" type="line"/>
      <point x="401" y="393"/>
      <point x="364" y="421"/>
      <point x="305" y="421" type="curve" smooth="yes"/>
      <point x="230" y="421"/>
      <point x="180" y="365"/>
      <point x="180" y="265" type="curve" smooth="yes"/>
      <point x="180" y="257" type="line" smooth="yes"/>
      <point x="180" y="152"/>
      <point x="227" y="98"/>
      <point x="308" y="98" type="curve" smooth="yes"/>
      <point x="366" y="98"/>
      <point x="413" y="132"/>
      <point x="420" y="199" type="curve"/>
      <point x="551" y="199" type="line"/>
      <point x="543" y="78"/>
      <point x="458" y="-6"/>
      <point x="314" y="-11" type="curve"/>
      <point x="292" y="-48" type="line"/>
      <point x="345" y="-42"/>
      <point x="396" y="-69"/>
      <point x="396" y="-132" type="curve" smooth="yes"/>
      <point x="396" y="-190"/>
      <point x="348" y="-222"/>
    </contour>
  </outline>
</glyph>
<glyph name="edieresis" format="2">
  <advance width="587"/>
  <unicode hex="00EB"/>
  <outline>
    <contour>
      <point x="196" y="600" type="curve" smooth="yes"/>
      <point x="155" y="600"/>
      <point x="122" y="632"/>
      <point x="122" y="672" type="curve" smooth="yes"/>
      <point x="122" y="712"/>
      <point x="155" y="744"/>
      <point x="196" y="744" type="curve" smooth="yes"/>
      <point x="237" y="744"/>
      <point x="270" y="712"/>
      <point x="270" y="672" type="curve" smooth="yes"/>
      <point x="270" y="632"/>
      <point x="237" y="600"/>
    </contour>
    <contour>
      <point x="400" y="600" type="curve" smooth="yes"/>
      <point x="359" y="600"/>
      <point x="326" y="632"/>
      <point x="326" y="672" type="curve" smooth="yes"/>
      <point x="326" y="712"/>
      <point x="359" y="744"/>
      <point x="400" y="744" type="curve" smooth="yes"/>
      <point x="441" y="744"/>
      <point x="474" y="712"/>
      <point x="474" y="672" type="curve" smooth="yes"/>
      <point x="474" y="632"/>
      <point x="441" y="600"/>
    </contour>
    <contour>
      <point x="305" y="-11" type="curve" smooth="yes"/>
      <point x="147" y="-11"/>
      <point x="32" y="88"/>
      <point x="32" y="255" type="curve" smooth="yes"/>
      <point x="32" y="263" type="line" smooth="yes"/>
      <point x="32" y="428"/>
      <point x="149" y="535"/>
      <point x="301" y="535" type="curve" smooth="yes"/>
      <point x="436" y="535"/>
      <point x="556" y="456"/>
      <point x="556" y="269" type="curve" smooth="yes"/>
      <point x="556" y="229" type="line"/>
      <point x="179" y="229" type="line"/>
      <point x="183" y="142"/>
      <point x="230" y="92"/>
      <point x="309" y="92" type="curve" smooth="yes"/>
      <point x="376" y="92"/>
      <point x="409" y="121"/>
      <point x="418" y="165" type="curve"/>
      <point x="555" y="165" type="line"/>
      <point x="538" y="52"/>
      <point x="448" y="-11"/>
    </contour>
    <contour>
      <point x="181" y="318" type="curve"/>
      <point x="415" y="318" type="line"/>
      <point x="410" y="397"/>
      <point x="370" y="435"/>
      <point x="301" y="435" type="curve" smooth="yes"/>
      <point x="236" y="435"/>
      <point x="192" y="392"/>
    </contour>
  </outline>
</glyph>
<glyph name="iacute" format="2">
  <advance width="281"/>
  <unicode hex="00ED"/>
  <outline>
    <contour>
      <point x="83" y="594" type="line"/>
      <point x="140" y="753" type="line"/>
      <point x="292" y="753" type="line"/>
      <point x="188" y="594" type="line"/>
    </contour>
    <contour>
      <point x="68" y="0" type="line"/>
      <point x="68" y="523" type="line"/>
      <point x="212" y="523" type="line"/>
      <point x="212" y="0" type="line"/>
    </contour>
  </outline>
</glyph>
<glyph name="icircumflex" format="2">
  <advance width="281"/>
  <unicode hex="00EE"/>
  <outline>
    <contour>
      <point x="-29" y="595" type="line"/>
      <point x="88" y="751" type="line"/>
      <point x="197" y="751" type="line"/>
      <point x="311" y="595" type="line"/>
      <point x="209" y="595" type="line"/>
      <point x="140" y="658" type="line"/>
      <point x="70" y="595" type="line"/>
    </contour>
    <contour>
      <point x="68" y="0" type="line"/>
      <point x="68" y="523" type="line"/>
      <point x="212" y="523" type="line"/>
      <point x="212" y="0" type="line"/>
    </contour>
  </outline>
</glyph>
<glyph name="idieresis" format="2">
  <advance width="281"/>
  <unicode hex="00EF"/>
  <outline>
    <contour>
      <point x="40" y="600" type="curve" smooth="yes"/>
      <point x="0" y="600"/>
      <point x="-33" y="632"/>
      <point x="-33" y="672" type="curve" smooth="yes"/>
      <point x="-33" y="712"/>
      <point x="0" y="744"/>
      <point x="40" y="744" type="curve" smooth="yes"/>
      <point x="81" y="744"/>
      <point x="114" y="712"/>
      <point x="114" y="672" type="curve" smooth="yes"/>
      <point x="114" y="632"/>
      <point x="81" y="600"/>
    </contour>
    <contour>
      <point x="239" y="600" type="curve" smooth="yes"/>
      <point x="199" y="600"/>
      <point x="166" y="632"/>
      <point x="166" y="672" type="curve" smooth="yes"/>
      <point x="166" y="712"/>
      <point x="199" y="744"/>
      <point x="239" y="744" type="curve" smooth="yes"/>
      <point x="280" y="744"/>
      <point x="313" y="712"/>
      <point x="313" y="672" type="curve" smooth="yes"/>
      <point x="313" y="632"/>
      <point x="280" y="600"/>
    </contour>
    <contour>
      <point x="68" y="0" type="line"/>
      <point x="68" y="523" type="line"/>
      <point x="212" y="523" type="line"/>
      <point x="212" y="0" type="line"/>
    </contour>
  </outline>
</glyph>
<glyph name="eth" format="2">
  <advance width="616"/>
  <unicode hex="00F0"/>
  <outline>
    <contour>
      <point x="157" y="562" type="line"/>
      <point x="131" y="619" type="line"/>
      <point x="237" y="665" type="line"/>
      <point x="196" y="700"/>
      <point x="153" y="732"/>
      <point x="114" y="760" type="curve"/>
      <point x="279" y="760" type="line"/>
      <point x="301" y="747"/>
      <point x="325" y="732"/>
      <point x="349" y="713" type="curve"/>
      <point x="448" y="756" type="line"/>
      <point x="473" y="698" type="line"/>
      <point x="404" y="668" type="line"/>
      <point x="496" y="582"/>
      <point x="583" y="455"/>
      <point x="583" y="297" type="curve" smooth="yes"/>
      <point x="583" y="275" type="line" smooth="yes"/>
      <point x="583" y="101"/>
      <point x="470" y="-11"/>
      <point x="305" y="-11" type="curve" smooth="yes"/>
      <point x="149" y="-11"/>
      <point x="32" y="94"/>
      <point x="32" y="261" type="curve" smooth="yes"/>
      <point x="32" y="271" type="line" smooth="yes"/>
      <point x="32" y="430"/>
      <point x="147" y="530"/>
      <point x="268" y="530" type="curve" smooth="yes"/>
      <point x="325" y="530"/>
      <point x="360" y="511"/>
      <point x="391" y="476" type="curve"/>
      <point x="367" y="527"/>
      <point x="330" y="574"/>
      <point x="287" y="618" type="curve"/>
    </contour>
    <contour>
      <point x="308" y="99" type="curve" smooth="yes"/>
      <point x="389" y="99"/>
      <point x="436" y="159"/>
      <point x="436" y="258" type="curve" smooth="yes"/>
      <point x="436" y="265" type="line" smooth="yes"/>
      <point x="436" y="365"/>
      <point x="390" y="425"/>
      <point x="309" y="425" type="curve" smooth="yes"/>
      <point x="229" y="425"/>
      <point x="180" y="367"/>
      <point x="180" y="267" type="curve" smooth="yes"/>
      <point x="180" y="259" type="line" smooth="yes"/>
      <point x="180" y="158"/>
      <point x="226" y="99"/>
    </contour>
  </outline>
</glyph>
<glyph name="ograve" format="2">
  <advance width="616"/>
  <unicode hex="00F2"/>
  <outline>
    <contour>
      <point x="308" y="99" type="curve" smooth="yes"/>
      <point x="389" y="99"/>
      <point x="436" y="159"/>
      <point x="436" y="258" type="curve" smooth="yes"/>
      <point x="436" y="265" type="line" smooth="yes"/>
      <point x="436" y="365"/>
      <point x="389" y="425"/>
      <point x="308" y="425" type="curve" smooth="yes"/>
      <point x="228" y="425"/>
      <point x="180" y="367"/>
      <point x="180" y="267" type="curve" smooth="yes"/>
      <point x="180" y="259" type="line" smooth="yes"/>
      <point x="180" y="159"/>
      <point x="226" y="99"/>
    </contour>
    <contour>
      <point x="307" y="-11" type="curve" smooth="yes"/>
      <point x="151" y="-11"/>
      <point x="32" y="93"/>
      <point x="32" y="256" type="curve" smooth="yes"/>
      <point x="32" y="264" type="line" smooth="yes"/>
      <point x="32" y="428"/>
      <point x="151" y="535"/>
      <point x="308" y="535" type="curve" smooth="yes"/>
      <point x="465" y="535"/>
      <point x="583" y="430"/>
      <point x="583" y="267" type="curve" smooth="yes"/>
      <point x="583" y="259" type="line" smooth="yes"/>
      <point x="583" y="94"/>
      <point x="464" y="-11"/>
    </contour>
    <contour>
      <point x="260" y="594" type="line"/>
      <point x="156" y="753" type="line"/>
      <point x="308" y="753" type="line"/>
      <point x="365" y="594" type="line"/>
    </contour>
  </outline>
</glyph>
<glyph name="otilde" format="2">
  <advance width="616"/>
  <unicode hex="00F5"/>
  <outline>
    <contour>
      <point x="308" y="99" type="curve" smooth="yes"/>
      <point x="389" y="99"/>
      <point x="436" y="159"/>
      <point x="436" y="258" type="curve" smooth="yes"/>
      <point x="436" y="265" type="line" smooth="yes"/>
      <point x="436" y="365"/>
      <point x="389" y="425"/>
      <point x="308" y="425" type="curve" smooth="yes"/>
      <point x="228" y="425"/>
      <point x="180" y="367"/>
      <point x="180" y="267" type="curve" smooth="yes"/>
      <point x="180" y="259" type="line" smooth="yes"/>
      <point x="180" y="159"/>
      <point x="226" y="99"/>
    </contour>
    <contour>
      <point x="307" y="-11" type="curve" smooth="yes"/>
      <point x="151" y="-11"/>
      <point x="32" y="93"/>
      <point x="32" y="256" type="curve" smooth="yes"/>
      <point x="32" y="264" type="line" smooth="yes"/>
      <point x="32" y="428"/>
      <point x="151" y="535"/>
      <point x="308" y="535" type="curve" smooth="yes"/>
      <point x="465" y="535"/>
      <point x="583" y="430"/>
      <point x="583" y="267" type="curve" smooth="yes"/>
      <point x="583" y="259" type="line" smooth="yes"/>
      <point x="583" y="94"/>
      <point x="464" y="-11"/>
    </contour>
    <contour>
      <point x="367" y="598" type="curve" smooth="yes"/>
      <point x="316" y="598"/>
      <point x="284" y="636"/>
      <point x="254" y="636" type="curve" smooth="yes"/>
      <point x="237" y="636"/>
      <point x="223" y="620"/>
      <point x="219" y="599" type="curve"/>
      <point x="136" y="599" type="line"/>
      <point x="143" y="691"/>
      <point x="187" y="740"/>
      <point x="246" y="740" type="curve" smooth="yes"/>
      <point x="295" y="740"/>
      <point x="329" y="703"/>
      <point x="361" y="703" type="curve" smooth="yes"/>
      <point x="379" y="703"/>
      <point x="391" y="718"/>
      <point x="395" y="740" type="curve"/>
      <point x="479" y="740" type="line"/>
      <point x="471" y="647"/>
      <point x="424" y="598"/>
    </contour>
  </outline>
</glyph>
<glyph name="odieresis" format="2">
  <advance width="616"/>
  <unicode hex="00F6"/>
  <outline>
    <contour>
      <point x="205" y="600" type="curve" smooth="yes"/>
      <point x="164" y="600"/>
      <point x="131" y="632"/>
      <point x="131" y="672" type="curve" smooth="yes"/>
      <point x="131" y="712"/>
      <point x="164" y="744"/>
      <point x="205" y="744" type="curve" smooth="yes"/>
      <point x="246" y="744"/>
      <point x="279" y="712"/>
      <point x="279" y="672" type="curve" smooth="yes"/>
      <point x="279" y="632"/>
      <point x="246" y="600"/>
    </contour>
    <contour>
      <point x="409" y="600" type="curve" smooth="yes"/>
      <point x="368" y="600"/>
      <point x="335" y="632"/>
      <point x="335" y="672" type="curve" smooth="yes"/>
      <point x="335" y="712"/>
      <point x="368" y="744"/>
      <point x="409" y="744" type="curve" smooth="yes"/>
      <point x="450" y="744"/>
      <point x="483" y="712"/>
      <point x="483" y="672" type="curve" smooth="yes"/>
      <point x="483" y="632"/>
      <point x="450" y="600"/>
    </contour>
    <contour>
      <point x="308" y="99" type="curve" smooth="yes"/>
      <point x="389" y="99"/>
      <point x="436" y="159"/>
      <point x="436" y="258" type="curve" smooth="yes"/>
      <point x="436" y="265" type="line" smooth="yes"/>
      <point x="436" y="365"/>
      <point x="389" y="425"/>
      <point x="308" y="425" type="curve" smooth="yes"/>
      <point x="228" y="425"/>
      <point x="180" y="367"/>
      <point x="180" y="267" type="curve" smooth="yes"/>
      <point x="180" y="259" type="line" smooth="yes"/>
      <point x="180" y="159"/>
      <point x="226" y="99"/>
    </contour>
    <contour>
      <point x="307" y="-11" type="curve" smooth="yes"/>
      <point x="151" y="-11"/>
      <point x="32" y="93"/>
      <point x="32" y="256" type="curve" smooth="yes"/>
      <point x="32" y="264" type="line" smooth="yes"/>
      <point x="32" y="428"/>
      <point x="151" y="535"/>
      <point x="308" y="535" type="curve" smooth="yes"/>
      <point x="465" y="535"/>
      <point x="583" y="430"/>
      <point x="583" y="267" type="curve" smooth="yes"/>
      <point x="583" y="259" type="line" smooth="yes"/>
      <point x="583" y="94"/>
      <point x="464" y="-11"/>
    </contour>
  </outline>
</glyph>
<glyph name="divide" format="2">
  <advance width="553"/>
  <unicode hex="00F7"/>
  <outline>
    <contour>
      <point x="276" y="60" type="curve" smooth="yes"/>
      <point x="230" y="60"/>
      <point x="193" y="96"/>
      <point x="193" y="142" type="curve" smooth="yes"/>
      <point x="193" y="187"/>
      <point x="230" y="224"/>
      <point x="276" y="224" type="curve" smooth="yes"/>
      <point x="322" y="224"/>
      <point x="360" y="187"/>
      <point x="360" y="142" type="curve" smooth="yes"/>
      <point x="360" y="96"/>
      <point x="322" y="60"/>
    </contour>
    <contour>
      <point x="37" y="289" type="line"/>
      <point x="37" y="393" type="line"/>
      <point x="516" y="393" type="line"/>
      <point x="516" y="289" type="line"/>
    </contour>
    <contour>
      <point x="276" y="458" type="curve" smooth="yes"/>
      <point x="230" y="458"/>
      <point x="193" y="494"/>
      <point x="193" y="540" type="curve" smooth="yes"/>
      <point x="193" y="586"/>
      <point x="230" y="622"/>
      <point x="276" y="622" type="curve" smooth="yes"/>
      <point x="322" y="622"/>
      <point x="360" y="586"/>
      <point x="360" y="540" type="curve" smooth="yes"/>
      <point x="360" y="494"/>
      <point x="322" y="458"/>
    </contour>
  </outline>
</glyph>
<glyph name="udieresis" format="2">
  <advance width="612"/>
  <unicode hex="00FC"/>
  <outline>
    <contour>
      <point x="203" y="600" type="curve" smooth="yes"/>
      <point x="162" y="600"/>
      <point x="129" y="632"/>
      <point x="129" y="672" type="curve" smooth="yes"/>
      <point x="129" y="712"/>
      <point x="162" y="744"/>
      <point x="203" y="744" type="curve" smooth="yes"/>
      <point x="244" y="744"/>
      <point x="277" y="712"/>
      <point x="277" y="672" type="curve" smooth="yes"/>
      <point x="277" y="632"/>
      <point x="244" y="600"/>
    </contour>
    <contour>
      <point x="407" y="600" type="curve" smooth="yes"/>
      <point x="366" y="600"/>
      <point x="333" y="632"/>
      <point x="333" y="672" type="curve" smooth="yes"/>
      <point x="333" y="712"/>
      <point x="366" y="744"/>
      <point x="407" y="744" type="curve" smooth="yes"/>
      <point x="448" y="744"/>
      <point x="481" y="712"/>
      <point x="481" y="672" type="curve" smooth="yes"/>
      <point x="481" y="632"/>
      <point x="448" y="600"/>
    </contour>
    <contour>
      <point x="238" y="-11" type="curve" smooth="yes"/>
      <point x="136" y="-11"/>
      <point x="60" y="49"/>
      <point x="60" y="186" type="curve" smooth="yes"/>
      <point x="60" y="523" type="line"/>
      <point x="204" y="523" type="line"/>
      <point x="204" y="206" type="line" smooth="yes"/>
      <point x="204" y="135"/>
      <point x="233" y="101"/>
      <point x="295" y="101" type="curve" smooth="yes"/>
      <point x="356" y="101"/>
      <point x="404" y="139"/>
      <point x="404" y="216" type="curve" smooth="yes"/>
      <point x="404" y="523" type="line"/>
      <point x="548" y="523" type="line"/>
      <point x="548" y="0" type="line"/>
      <point x="404" y="0" type="line"/>
      <point x="404" y="82" type="line"/>
      <point x="377" y="29"/>
      <point x="324" y="-11"/>
    </contour>
  </outline>
</glyph>
<glyph name="ydieresis" format="2">
  <advance width="567"/>
  <unicode hex="00FF"/>
  <outline>
    <contour>
      <point x="130" y="-178" type="line"/>
      <point x="222" y="53" type="line"/>
      <point x="14" y="523" type="line"/>
      <point x="170" y="523" type="line"/>
      <point x="297" y="209" type="line"/>
      <point x="414" y="523" type="line"/>
      <point x="553" y="523" type="line"/>
      <point x="270" y="-178" type="line"/>
    </contour>
    <contour>
      <point x="191" y="600" type="curve" smooth="yes"/>
      <point x="150" y="600"/>
      <point x="117" y="632"/>
      <point x="117" y="672" type="curve" smooth="yes"/>
      <point x="117" y="712"/>
      <point x="150" y="744"/>
      <point x="191" y="744" type="curve" smooth="yes"/>
      <point x="232" y="744"/>
      <point x="265" y="712"/>
      <point x="265" y="672" type="curve" smooth="yes"/>
      <point x="265" y="632"/>
      <point x="232" y="600"/>
    </contour>
    <contour>
      <point x="395" y="600" type="curve" smooth="yes"/>
      <point x="354" y="600"/>
      <point x="321" y="632"/>
      <point x="321" y="672" type="curve" smooth="yes"/>
      <point x="321" y="712"/>
      <point x="354" y="744"/>
      <point x="395" y="744" type="curve" smooth="yes"/>
      <point x="436" y="744"/>
      <point x="469" y="712"/>
      <point x="469" y="672" type="curve" smooth="yes"/>
      <point x="469" y="632"/>
      <point x="436" y="600"/>
    </contour>
  </outline>
</glyph>
<glyph name="Amacron" format="2">
  <advance width="720"/>
  <unicode hex="0100"/>
  <outline>
    <contour>
      <point x="21" y="0" type="line"/>
      <point x="256" y="715" type="line"/>
      <point x="467" y="715" type="line"/>
      <point x="699" y="0" type="line"/>
      <point x="530" y="0" type="line"/>
      <point x="481" y="159" type="line"/>
      <point x="222" y="159" type="line"/>
      <point x="173" y="0" type="line"/>
    </contour>
    <contour>
      <point x="352" y="583" type="line"/>
      <point x="257" y="274" type="line"/>
      <point x="446" y="274" type="line"/>
    </contour>
    <contour>
      <point x="208" y="777" type="line"/>
      <point x="208" y="868" type="line"/>
      <point x="510" y="868" type="line"/>
      <point x="510" y="777" type="line"/>
    </contour>
  </outline>
</glyph>
<glyph name="Abreve" format="2">
  <advance width="720"/>
  <unicode hex="0102"/>
  <outline>
    <contour>
      <point x="21" y="0" type="line"/>
      <point x="256" y="715" type="line"/>
      <point x="467" y="715" type="line"/>
      <point x="699" y="0" type="line"/>
      <point x="530" y="0" type="line"/>
      <point x="481" y="159" type="line"/>
      <point x="222" y="159" type="line"/>
      <point x="173" y="0" type="line"/>
    </contour>
    <contour>
      <point x="358" y="757" type="curve" smooth="yes"/>
      <point x="269" y="757"/>
      <point x="210" y="815"/>
      <point x="205" y="903" type="curve"/>
      <point x="302" y="903" type="line"/>
      <point x="307" y="871"/>
      <point x="325" y="851"/>
      <point x="358" y="851" type="curve" smooth="yes"/>
      <point x="391" y="851"/>
      <point x="411" y="871"/>
      <point x="417" y="903" type="curve"/>
      <point x="513" y="903" type="line"/>
      <point x="507" y="815"/>
      <point x="445" y="757"/>
    </contour>
    <contour>
      <point x="352" y="583" type="line"/>
      <point x="257" y="274" type="line"/>
      <point x="446" y="274" type="line"/>
    </contour>
  </outline>
</glyph>
<glyph name="abreve" format="2">
  <advance width="564"/>
  <unicode hex="0103"/>
  <outline>
    <contour>
      <point x="205" y="-11" type="curve" smooth="yes"/>
      <point x="110" y="-11"/>
      <point x="30" y="35"/>
      <point x="30" y="145" type="curve" smooth="yes"/>
      <point x="30" y="267"/>
      <point x="142" y="313"/>
      <point x="302" y="313" type="curve" smooth="yes"/>
      <point x="361" y="313" type="line"/>
      <point x="361" y="334" type="line" smooth="yes"/>
      <point x="361" y="396"/>
      <point x="342" y="430"/>
      <point x="276" y="430" type="curve" smooth="yes"/>
      <point x="219" y="430"/>
      <point x="193" y="401"/>
      <point x="187" y="356" type="curve"/>
      <point x="50" y="356" type="line"/>
      <point x="59" y="480"/>
      <point x="157" y="535"/>
      <point x="285" y="535" type="curve" smooth="yes"/>
      <point x="413" y="535"/>
      <point x="504" y="483"/>
      <point x="504" y="341" type="curve" smooth="yes"/>
      <point x="504" y="0" type="line"/>
      <point x="363" y="0" type="line"/>
      <point x="363" y="63" type="line"/>
      <point x="333" y="21"/>
      <point x="287" y="-11"/>
    </contour>
    <contour>
      <point x="248" y="90" type="curve" smooth="yes"/>
      <point x="312" y="90"/>
      <point x="361" y="125"/>
      <point x="361" y="183" type="curve" smooth="yes"/>
      <point x="361" y="227" type="line"/>
      <point x="305" y="227" type="line" smooth="yes"/>
      <point x="221" y="227"/>
      <point x="172" y="209"/>
      <point x="172" y="153" type="curve" smooth="yes"/>
      <point x="172" y="115"/>
      <point x="195" y="90"/>
    </contour>
    <contour>
      <point x="283" y="598" type="curve" smooth="yes"/>
      <point x="196" y="598"/>
      <point x="136" y="655"/>
      <point x="131" y="747" type="curve"/>
      <point x="226" y="747" type="line"/>
      <point x="230" y="714"/>
      <point x="248" y="693"/>
      <point x="283" y="693" type="curve" smooth="yes"/>
      <point x="318" y="693"/>
      <point x="338" y="714"/>
      <point x="344" y="747" type="curve"/>
      <point x="437" y="747" type="line"/>
      <point x="432" y="655"/>
      <point x="368" y="598"/>
    </contour>
  </outline>
</glyph>
<glyph name="Aogonek" format="2">
  <advance width="720"/>
  <unicode hex="0104"/>
  <outline>
    <contour>
      <point x="618" y="-182" type="curve" smooth="yes"/>
      <point x="546" y="-182"/>
      <point x="501" y="-151"/>
      <point x="501" y="-101" type="curve" smooth="yes"/>
      <point x="501" y="-55"/>
      <point x="542" y="-21"/>
      <point x="584" y="0" type="curve"/>
      <point x="530" y="0" type="line"/>
      <point x="481" y="159" type="line"/>
      <point x="222" y="159" type="line"/>
      <point x="173" y="0" type="line"/>
      <point x="21" y="0" type="line"/>
      <point x="256" y="715" type="line"/>
      <point x="467" y="715" type="line"/>
      <point x="696" y="10" type="line"/>
      <point x="650" y="-17"/>
      <point x="628" y="-45"/>
      <point x="628" y="-69" type="curve" smooth="yes"/>
      <point x="628" y="-89"/>
      <point x="640" y="-99"/>
      <point x="661" y="-99" type="curve" smooth="yes"/>
      <point x="675" y="-99"/>
      <point x="688" y="-97"/>
      <point x="699" y="-92" type="curve"/>
      <point x="699" y="-167" type="line"/>
      <point x="681" y="-175"/>
      <point x="655" y="-182"/>
    </contour>
    <contour>
      <point x="352" y="583" type="line"/>
      <point x="257" y="274" type="line"/>
      <point x="446" y="274" type="line"/>
    </contour>
  </outline>
</glyph>
<glyph name="cdotaccent" format="2">
  <advance width="578"/>
  <unicode hex="010B"/>
  <outline>
    <contour>
      <point x="301" y="-11" type="curve" smooth="yes"/>
      <point x="148" y="-11"/>
      <point x="32" y="84"/>
      <point x="32" y="255" type="curve" smooth="yes"/>
      <point x="32" y="263" type="line" smooth="yes"/>
      <point x="32" y="432"/>
      <point x="153" y="535"/>
      <point x="302" y="535" type="curve" smooth="yes"/>
      <point x="423" y="535"/>
      <point x="535" y="482"/>
      <point x="548" y="332" type="curve"/>
      <point x="411" y="332" type="line"/>
      <point x="401" y="393"/>
      <point x="364" y="421"/>
      <point x="305" y="421" type="curve" smooth="yes"/>
      <point x="230" y="421"/>
      <point x="180" y="365"/>
      <point x="180" y="265" type="curve" smooth="yes"/>
      <point x="180" y="257" type="line" smooth="yes"/>
      <point x="180" y="152"/>
      <point x="227" y="98"/>
      <point x="308" y="98" type="curve" smooth="yes"/>
      <point x="366" y="98"/>
      <point x="413" y="132"/>
      <point x="420" y="199" type="curve"/>
      <point x="551" y="199" type="line"/>
      <point x="543" y="75"/>
      <point x="453" y="-11"/>
    </contour>
    <contour>
      <point x="300" y="598" type="curve" smooth="yes"/>
      <point x="254" y="598"/>
      <point x="219" y="632"/>
      <point x="219" y="675" type="curve" smooth="yes"/>
      <point x="219" y="719"/>
      <point x="254" y="752"/>
      <point x="300" y="752" type="curve" smooth="yes"/>
      <point x="345" y="752"/>
      <point x="381" y="719"/>
      <point x="381" y="675" type="curve" smooth="yes"/>
      <point x="381" y="632"/>
      <point x="345" y="598"/>
    </contour>
  </outline>
</glyph>
<glyph name="ccaron" format="2">
  <advance width="578"/>
  <unicode hex="010D"/>
  <outline>
    <contour>
      <point x="243" y="595" type="line"/>
      <point x="129" y="751" type="line"/>
      <point x="231" y="751" type="line"/>
      <point x="300" y="688" type="line"/>
      <point x="369" y="751" type="line"/>
      <point x="469" y="751" type="line"/>
      <point x="352" y="595" type="line"/>
    </contour>
    <contour>
      <point x="301" y="-11" type="curve" smooth="yes"/>
      <point x="148" y="-11"/>
      <point x="32" y="84"/>
      <point x="32" y="255" type="curve" smooth="yes"/>
      <point x="32" y="263" type="line" smooth="yes"/>
      <point x="32" y="432"/>
      <point x="153" y="535"/>
      <point x="302" y="535" type="curve" smooth="yes"/>
      <point x="423" y="535"/>
      <point x="535" y="482"/>
      <point x="548" y="332" type="curve"/>
      <point x="411" y="332" type="line"/>
      <point x="401" y="393"/>
      <point x="364" y="421"/>
      <point x="305" y="421" type="curve" smooth="yes"/>
      <point x="230" y="421"/>
      <point x="180" y="365"/>
      <point x="180" y="265" type="curve" smooth="yes"/>
      <point x="180" y="257" type="line" smooth="yes"/>
      <point x="180" y="152"/>
      <point x="227" y="98"/>
      <point x="308" y="98" type="curve" smooth="yes"/>
      <point x="366" y="98"/>
      <point x="413" y="132"/>
      <point x="420" y="199" type="curve"/>
      <point x="551" y="199" type="line"/>
      <point x="543" y="75"/>
      <point x="453" y="-11"/>
    </contour>
  </outline>
</glyph>
<glyph name="Dcaron" format="2">
  <advance width="726"/>
  <unicode hex="010E"/>
  <outline>
    <contour>
      <point x="265" y="763" type="line"/>
      <point x="157" y="902" type="line"/>
      <point x="261" y="902" type="line"/>
      <point x="330" y="850" type="line"/>
      <point x="398" y="902" type="line"/>
      <point x="500" y="902" type="line"/>
      <point x="388" y="763" type="line"/>
    </contour>
    <contour>
      <point x="239" y="126" type="line"/>
      <point x="305" y="126" type="line" smooth="yes"/>
      <point x="449" y="126"/>
      <point x="517" y="207"/>
      <point x="517" y="355" type="curve" smooth="yes"/>
      <point x="517" y="363" type="line" smooth="yes"/>
      <point x="517" y="510"/>
      <point x="454" y="589"/>
      <point x="303" y="589" type="curve" smooth="yes"/>
      <point x="239" y="589" type="line"/>
    </contour>
    <contour>
      <point x="77" y="0" type="line"/>
      <point x="77" y="715" type="line"/>
      <point x="311" y="715" type="line" smooth="yes"/>
      <point x="562" y="715"/>
      <point x="686" y="579"/>
      <point x="686" y="365" type="curve" smooth="yes"/>
      <point x="686" y="357" type="line" smooth="yes"/>
      <point x="686" y="143"/>
      <point x="561" y="0"/>
      <point x="310" y="0" type="curve" smooth="yes"/>
    </contour>
  </outline>
</glyph>
<glyph name="Dcroat" format="2">
  <advance width="753"/>
  <unicode hex="0110"/>
  <outline>
    <contour>
      <point x="31" y="303" type="line"/>
      <point x="31" y="415" type="line"/>
      <point x="96" y="415" type="line"/>
      <point x="96" y="715" type="line"/>
      <point x="330" y="715" type="line" smooth="yes"/>
      <point x="581" y="715"/>
      <point x="705" y="579"/>
      <point x="705" y="365" type="curve" smooth="yes"/>
      <point x="705" y="357" type="line" smooth="yes"/>
      <point x="705" y="143"/>
      <point x="580" y="0"/>
      <point x="329" y="0" type="curve" smooth="yes"/>
      <point x="96" y="0" type="line"/>
      <point x="96" y="303" type="line"/>
    </contour>
    <contour>
      <point x="256" y="126" type="line"/>
      <point x="324" y="126" type="line" smooth="yes"/>
      <point x="469" y="126"/>
      <point x="536" y="207"/>
      <point x="536" y="355" type="curve" smooth="yes"/>
      <point x="536" y="363" type="line" smooth="yes"/>
      <point x="536" y="510"/>
      <point x="473" y="589"/>
      <point x="323" y="589" type="curve" smooth="yes"/>
      <point x="256" y="589" type="line"/>
      <point x="256" y="415" type="line"/>
      <point x="407" y="415" type="line"/>
      <point x="407" y="303" type="line"/>
      <point x="256" y="303" type="line"/>
    </contour>
  </outline>
</glyph>
<glyph name="dcroat" format="2">
  <advance width="637"/>
  <unicode hex="0111"/>
  <outline>
    <contour>
      <point x="265" y="597" type="line"/>
      <point x="265" y="680" type="line"/>
      <point x="428" y="680" type="line"/>
      <point x="428" y="760" type="line"/>
      <point x="572" y="760" type="line"/>
      <point x="572" y="680" type="line"/>
      <point x="636" y="680" type="line"/>
      <point x="636" y="597" type="line"/>
      <point x="572" y="597" type="line"/>
      <point x="572" y="0" type="line"/>
      <point x="428" y="0" type="line"/>
      <point x="428" y="87" type="line"/>
      <point x="401" y="34"/>
      <point x="337" y="-11"/>
      <point x="260" y="-11" type="curve" smooth="yes"/>
      <point x="133" y="-11"/>
      <point x="33" y="80"/>
      <point x="33" y="254" type="curve" smooth="yes"/>
      <point x="33" y="262" type="line" smooth="yes"/>
      <point x="33" y="434"/>
      <point x="132" y="535"/>
      <point x="263" y="535" type="curve" smooth="yes"/>
      <point x="347" y="535"/>
      <point x="399" y="498"/>
      <point x="428" y="445" type="curve"/>
      <point x="428" y="597" type="line"/>
    </contour>
    <contour>
      <point x="303" y="102" type="curve" smooth="yes"/>
      <point x="379" y="102"/>
      <point x="432" y="153"/>
      <point x="432" y="259" type="curve" smooth="yes"/>
      <point x="432" y="267" type="line" smooth="yes"/>
      <point x="432" y="371"/>
      <point x="386" y="424"/>
      <point x="307" y="424" type="curve" smooth="yes"/>
      <point x="226" y="424"/>
      <point x="181" y="369"/>
      <point x="181" y="265" type="curve" smooth="yes"/>
      <point x="181" y="257" type="line" smooth="yes"/>
      <point x="181" y="153"/>
      <point x="231" y="102"/>
    </contour>
  </outline>
</glyph>
<glyph name="Emacron" format="2">
  <advance width="595"/>
  <unicode hex="0112"/>
  <outline>
    <contour>
      <point x="77" y="0" type="line"/>
      <point x="77" y="715" type="line"/>
      <point x="543" y="715" type="line"/>
      <point x="543" y="589" type="line"/>
      <point x="238" y="589" type="line"/>
      <point x="238" y="422" type="line"/>
      <point x="482" y="422" type="line"/>
      <point x="482" y="304" type="line"/>
      <point x="238" y="304" type="line"/>
      <point x="238" y="126" type="line"/>
      <point x="559" y="126" type="line"/>
      <point x="559" y="0" type="line"/>
    </contour>
    <contour>
      <point x="166" y="777" type="line"/>
      <point x="166" y="868" type="line"/>
      <point x="468" y="868" type="line"/>
      <point x="468" y="777" type="line"/>
    </contour>
  </outline>
</glyph>
<glyph name="Ebreve" format="2">
  <advance width="595"/>
  <unicode hex="0114"/>
  <outline>
    <contour>
      <point x="77" y="0" type="line"/>
      <point x="77" y="715" type="line"/>
      <point x="543" y="715" type="line"/>
      <point x="543" y="589" type="line"/>
      <point x="238" y="589" type="line"/>
      <point x="238" y="422" type="line"/>
      <point x="482" y="422" type="line"/>
      <point x="482" y="304" type="line"/>
      <point x="238" y="304" type="line"/>
      <point x="238" y="126" type="line"/>
      <point x="559" y="126" type="line"/>
      <point x="559" y="0" type="line"/>
    </contour>
    <contour>
      <point x="318" y="757" type="curve" smooth="yes"/>
      <point x="229" y="757"/>
      <point x="170" y="815"/>
      <point x="165" y="903" type="curve"/>
      <point x="262" y="903" type="line"/>
      <point x="267" y="871"/>
      <point x="285" y="851"/>
      <point x="318" y="851" type="curve" smooth="yes"/>
      <point x="351" y="851"/>
      <point x="371" y="871"/>
      <point x="377" y="903" type="curve"/>
      <point x="473" y="903" type="line"/>
      <point x="467" y="815"/>
      <point x="405" y="757"/>
    </contour>
  </outline>
</glyph>
<glyph name="ebreve" format="2">
  <advance width="587"/>
  <unicode hex="0115"/>
  <outline>
    <contour>
      <point x="305" y="-11" type="curve" smooth="yes"/>
      <point x="147" y="-11"/>
      <point x="32" y="88"/>
      <point x="32" y="255" type="curve" smooth="yes"/>
      <point x="32" y="263" type="line" smooth="yes"/>
      <point x="32" y="428"/>
      <point x="149" y="535"/>
      <point x="301" y="535" type="curve" smooth="yes"/>
      <point x="436" y="535"/>
      <point x="556" y="456"/>
      <point x="556" y="269" type="curve" smooth="yes"/>
      <point x="556" y="229" type="line"/>
      <point x="179" y="229" type="line"/>
      <point x="183" y="142"/>
      <point x="230" y="92"/>
      <point x="309" y="92" type="curve" smooth="yes"/>
      <point x="376" y="92"/>
      <point x="409" y="121"/>
      <point x="418" y="165" type="curve"/>
      <point x="555" y="165" type="line"/>
      <point x="538" y="52"/>
      <point x="448" y="-11"/>
    </contour>
    <contour>
      <point x="181" y="318" type="curve"/>
      <point x="415" y="318" type="line"/>
      <point x="410" y="397"/>
      <point x="370" y="435"/>
      <point x="301" y="435" type="curve" smooth="yes"/>
      <point x="236" y="435"/>
      <point x="192" y="392"/>
    </contour>
    <contour>
      <point x="291" y="598" type="curve" smooth="yes"/>
      <point x="204" y="598"/>
      <point x="144" y="655"/>
      <point x="139" y="747" type="curve"/>
      <point x="234" y="747" type="line"/>
      <point x="238" y="714"/>
      <point x="256" y="693"/>
      <point x="291" y="693" type="curve" smooth="yes"/>
      <point x="326" y="693"/>
      <point x="346" y="714"/>
      <point x="352" y="747" type="curve"/>
      <point x="445" y="747" type="line"/>
      <point x="440" y="655"/>
      <point x="376" y="598"/>
    </contour>
  </outline>
</glyph>
<glyph name="Edotaccent" format="2">
  <advance width="595"/>
  <unicode hex="0116"/>
  <outline>
    <contour>
      <point x="317" y="768" type="curve" smooth="yes"/>
      <point x="271" y="768"/>
      <point x="236" y="802"/>
      <point x="236" y="845" type="curve" smooth="yes"/>
      <point x="236" y="888"/>
      <point x="271" y="922"/>
      <point x="317" y="922" type="curve" smooth="yes"/>
      <point x="362" y="922"/>
      <point x="397" y="888"/>
      <point x="397" y="845" type="curve" smooth="yes"/>
      <point x="397" y="802"/>
      <point x="362" y="768"/>
    </contour>
    <contour>
      <point x="77" y="0" type="line"/>
      <point x="77" y="715" type="line"/>
      <point x="543" y="715" type="line"/>
      <point x="543" y="589" type="line"/>
      <point x="238" y="589" type="line"/>
      <point x="238" y="422" type="line"/>
      <point x="482" y="422" type="line"/>
      <point x="482" y="304" type="line"/>
      <point x="238" y="304" type="line"/>
      <point x="238" y="126" type="line"/>
      <point x="559" y="126" type="line"/>
      <point x="559" y="0" type="line"/>
    </contour>
  </outline>
</glyph>
<glyph name="edotaccent" format="2">
  <advance width="587"/>
  <unicode hex="0117"/>
  <outline>
    <contour>
      <point x="305" y="-11" type="curve" smooth="yes"/>
      <point x="147" y="-11"/>
      <point x="32" y="88"/>
      <point x="32" y="255" type="curve" smooth="yes"/>
      <point x="32" y="263" type="line" smooth="yes"/>
      <point x="32" y="428"/>
      <point x="149" y="535"/>
      <point x="301" y="535" type="curve" smooth="yes"/>
      <point x="436" y="535"/>
      <point x="556" y="456"/>
      <point x="556" y="269" type="curve" smooth="yes"/>
      <point x="556" y="229" type="line"/>
      <point x="179" y="229" type="line"/>
      <point x="183" y="142"/>
      <point x="230" y="92"/>
      <point x="309" y="92" type="curve" smooth="yes"/>
      <point x="376" y="92"/>
      <point x="409" y="121"/>
      <point x="418" y="165" type="curve"/>
      <point x="555" y="165" type="line"/>
      <point x="538" y="52"/>
      <point x="448" y="-11"/>
    </contour>
    <contour>
      <point x="181" y="318" type="curve"/>
      <point x="415" y="318" type="line"/>
      <point x="410" y="397"/>
      <point x="370" y="435"/>
      <point x="301" y="435" type="curve" smooth="yes"/>
      <point x="236" y="435"/>
      <point x="192" y="392"/>
    </contour>
    <contour>
      <point x="299" y="598" type="curve" smooth="yes"/>
      <point x="253" y="598"/>
      <point x="218" y="632"/>
      <point x="218" y="675" type="curve" smooth="yes"/>
      <point x="218" y="719"/>
      <point x="253" y="752"/>
      <point x="299" y="752" type="curve" smooth="yes"/>
      <point x="344" y="752"/>
      <point x="380" y="719"/>
      <point x="380" y="675" type="curve" smooth="yes"/>
      <point x="380" y="632"/>
      <point x="344" y="598"/>
    </contour>
  </outline>
</glyph>
<glyph name="Eogonek" format="2">
  <advance width="595"/>
  <unicode hex="0118"/>
  <outline>
    <contour>
      <point x="462" y="-182" type="curve" smooth="yes"/>
      <point x="392" y="-182"/>
      <point x="347" y="-151"/>
      <point x="347" y="-101" type="curve" smooth="yes"/>
      <point x="347" y="-55"/>
      <point x="388" y="-21"/>
      <point x="430" y="0" type="curve"/>
      <point x="77" y="0" type="line"/>
      <point x="77" y="715" type="line"/>
      <point x="543" y="715" type="line"/>
      <point x="543" y="589" type="line"/>
      <point x="238" y="589" type="line"/>
      <point x="238" y="422" type="line"/>
      <point x="482" y="422" type="line"/>
      <point x="482" y="304" type="line"/>
      <point x="238" y="304" type="line"/>
      <point x="238" y="126" type="line"/>
      <point x="559" y="126" type="line"/>
      <point x="559" y="0" type="line"/>
      <point x="525" y="0" type="line"/>
      <point x="491" y="-25"/>
      <point x="474" y="-45"/>
      <point x="474" y="-69" type="curve" smooth="yes"/>
      <point x="474" y="-89"/>
      <point x="486" y="-99"/>
      <point x="507" y="-99" type="curve" smooth="yes"/>
      <point x="521" y="-99"/>
      <point x="534" y="-97"/>
      <point x="545" y="-92" type="curve"/>
      <point x="545" y="-167" type="line"/>
      <point x="527" y="-175"/>
      <point x="500" y="-182"/>
    </contour>
  </outline>
</glyph>
<glyph name="eogonek" format="2">
  <advance width="587"/>
  <unicode hex="0119"/>
  <outline>
    <contour>
      <point x="399" y="-182" type="curve" smooth="yes"/>
      <point x="331" y="-182"/>
      <point x="286" y="-153"/>
      <point x="286" y="-103" type="curve" smooth="yes"/>
      <point x="286" y="-61"/>
      <point x="324" y="-29"/>
      <point x="363" y="-7" type="curve"/>
      <point x="346" y="-10"/>
      <point x="323" y="-11"/>
      <point x="305" y="-11" type="curve" smooth="yes"/>
      <point x="147" y="-11"/>
      <point x="32" y="88"/>
      <point x="32" y="255" type="curve" smooth="yes"/>
      <point x="32" y="263" type="line" smooth="yes"/>
      <point x="32" y="428"/>
      <point x="149" y="535"/>
      <point x="301" y="535" type="curve" smooth="yes"/>
      <point x="436" y="535"/>
      <point x="556" y="456"/>
      <point x="556" y="269" type="curve" smooth="yes"/>
      <point x="556" y="229" type="line"/>
      <point x="179" y="229" type="line"/>
      <point x="183" y="142"/>
      <point x="230" y="92"/>
      <point x="309" y="92" type="curve" smooth="yes"/>
      <point x="376" y="92"/>
      <point x="409" y="121"/>
      <point x="418" y="165" type="curve"/>
      <point x="555" y="165" type="line"/>
      <point x="544" y="93"/>
      <point x="504" y="54"/>
      <point x="476" y="28" type="curve" smooth="yes"/>
      <point x="435" y="-11"/>
      <point x="407" y="-41"/>
      <point x="407" y="-71" type="curve" smooth="yes"/>
      <point x="407" y="-92"/>
      <point x="420" y="-102"/>
      <point x="440" y="-102" type="curve" smooth="yes"/>
      <point x="454" y="-102"/>
      <point x="467" y="-100"/>
      <point x="478" y="-95" type="curve"/>
      <point x="478" y="-167" type="line"/>
      <point x="461" y="-175"/>
      <point x="439" y="-182"/>
    </contour>
    <contour>
      <point x="181" y="318" type="curve"/>
      <point x="415" y="318" type="line"/>
      <point x="410" y="397"/>
      <point x="370" y="435"/>
      <point x="301" y="435" type="curve" smooth="yes"/>
      <point x="236" y="435"/>
      <point x="192" y="392"/>
    </contour>
  </outline>
</glyph>
<glyph name="Ecaron" format="2">
  <advance width="595"/>
  <unicode hex="011A"/>
  <outline>
    <contour>
      <point x="255" y="763" type="line"/>
      <point x="147" y="902" type="line"/>
      <point x="251" y="902" type="line"/>
      <point x="320" y="850" type="line"/>
      <point x="388" y="902" type="line"/>
      <point x="490" y="902" type="line"/>
      <point x="378" y="763" type="line"/>
    </contour>
    <contour>
      <point x="77" y="0" type="line"/>
      <point x="77" y="715" type="line"/>
      <point x="543" y="715" type="line"/>
      <point x="543" y="589" type="line"/>
      <point x="238" y="589" type="line"/>
      <point x="238" y="422" type="line"/>
      <point x="482" y="422" type="line"/>
      <point x="482" y="304" type="line"/>
      <point x="238" y="304" type="line"/>
      <point x="238" y="126" type="line"/>
      <point x="559" y="126" type="line"/>
      <point x="559" y="0" type="line"/>
    </contour>
  </outline>
</glyph>
<glyph name="Gcircumflex" format="2">
  <advance width="780"/>
  <unicode hex="011C"/>
  <outline>
    <contour>
      <point x="404" y="-11" type="curve" smooth="yes"/>
      <point x="170" y="-11"/>
      <point x="40" y="141"/>
      <point x="40" y="353" type="curve" smooth="yes"/>
      <point x="40" y="361" type="line" smooth="yes"/>
      <point x="40" y="576"/>
      <point x="193" y="726"/>
      <point x="404" y="726" type="curve" smooth="yes"/>
      <point x="563" y="726"/>
      <point x="705" y="653"/>
      <point x="722" y="476" type="curve"/>
      <point x="561" y="476" type="line"/>
      <point x="547" y="560"/>
      <point x="492" y="598"/>
      <point x="406" y="598" type="curve" smooth="yes"/>
      <point x="282" y="598"/>
      <point x="209" y="505"/>
      <point x="209" y="359" type="curve" smooth="yes"/>
      <point x="209" y="351" type="line" smooth="yes"/>
      <point x="209" y="213"/>
      <point x="268" y="114"/>
      <point x="408" y="114" type="curve" smooth="yes"/>
      <point x="528" y="114"/>
      <point x="577" y="183"/>
      <point x="580" y="265" type="curve"/>
      <point x="419" y="265" type="line"/>
      <point x="419" y="383" type="line"/>
      <point x="740" y="383" type="line"/>
      <point x="740" y="307" type="line" smooth="yes"/>
      <point x="740" y="116"/>
      <point x="618" y="-11"/>
    </contour>
    <contour>
      <point x="228" y="763" type="line"/>
      <point x="340" y="902" type="line"/>
      <point x="463" y="902" type="line"/>
      <point x="571" y="763" type="line"/>
      <point x="467" y="763" type="line"/>
      <point x="399" y="816" type="line"/>
      <point x="330" y="763" type="line"/>
    </contour>
  </outline>
</glyph>
<glyph name="Gbreve" format="2">
  <advance width="780"/>
  <unicode hex="011E"/>
  <outline>
    <contour>
      <point x="404" y="-11" type="curve" smooth="yes"/>
      <point x="170" y="-11"/>
      <point x="40" y="141"/>
      <point x="40" y="353" type="curve" smooth="yes"/>
      <point x="40" y="361" type="line" smooth="yes"/>
      <point x="40" y="576"/>
      <point x="193" y="726"/>
      <point x="404" y="726" type="curve" smooth="yes"/>
      <point x="563" y="726"/>
      <point x="705" y="653"/>
      <point x="722" y="476" type="curve"/>
      <point x="561" y="476" type="line"/>
      <point x="547" y="560"/>
      <point x="492" y="598"/>
      <point x="406" y="598" type="curve" smooth="yes"/>
      <point x="282" y="598"/>
      <point x="209" y="505"/>
      <point x="209" y="359" type="curve" smooth="yes"/>
      <point x="209" y="351" type="line" smooth="yes"/>
      <point x="209" y="213"/>
      <point x="268" y="114"/>
      <point x="408" y="114" type="curve" smooth="yes"/>
      <point x="528" y="114"/>
      <point x="577" y="183"/>
      <point x="580" y="265" type="curve"/>
      <point x="419" y="265" type="line"/>
      <point x="419" y="383" type="line"/>
      <point x="740" y="383" type="line"/>
      <point x="740" y="307" type="line" smooth="yes"/>
      <point x="740" y="116"/>
      <point x="618" y="-11"/>
    </contour>
    <contour>
      <point x="399" y="757" type="curve" smooth="yes"/>
      <point x="310" y="757"/>
      <point x="251" y="815"/>
      <point x="246" y="903" type="curve"/>
      <point x="343" y="903" type="line"/>
      <point x="348" y="871"/>
      <point x="366" y="851"/>
      <point x="399" y="851" type="curve" smooth="yes"/>
      <point x="432" y="851"/>
      <point x="452" y="871"/>
      <point x="458" y="903" type="curve"/>
      <point x="554" y="903" type="line"/>
      <point x="548" y="815"/>
      <point x="486" y="757"/>
    </contour>
  </outline>
</glyph>
<glyph name="hcircumflex" format="2">
  <advance width="615"/>
  <unicode hex="0125"/>
  <outline>
    <contour>
      <point x="64" y="0" type="line"/>
      <point x="64" y="760" type="line"/>
      <point x="209" y="760" type="line"/>
      <point x="209" y="440" type="line"/>
      <point x="235" y="492"/>
      <point x="292" y="535"/>
      <point x="379" y="535" type="curve" smooth="yes"/>
      <point x="482" y="535"/>
      <point x="555" y="473"/>
      <point x="555" y="333" type="curve" smooth="yes"/>
      <point x="555" y="0" type="line"/>
      <point x="410" y="0" type="line"/>
      <point x="410" y="312" type="line" smooth="yes"/>
      <point x="410" y="383"/>
      <point x="382" y="417"/>
      <point x="318" y="417" type="curve" smooth="yes"/>
      <point x="256" y="417"/>
      <point x="209" y="379"/>
      <point x="209" y="302" type="curve" smooth="yes"/>
      <point x="209" y="0" type="line"/>
    </contour>
  </outline>
</glyph>
<glyph name="Hbar" format="2">
  <advance width="764"/>
  <unicode hex="0126"/>
  <outline>
    <contour>
      <point x="13" y="511" type="line"/>
      <point x="13" y="596" type="line"/>
      <point x="77" y="596" type="line"/>
      <point x="77" y="715" type="line"/>
      <point x="239" y="715" type="line"/>
      <point x="239" y="596" type="line"/>
      <point x="526" y="596" type="line"/>
      <point x="526" y="715" type="line"/>
      <point x="688" y="715" type="line"/>
      <point x="688" y="596" type="line"/>
      <point x="752" y="596" type="line"/>
      <point x="752" y="511" type="line"/>
      <point x="688" y="511" type="line"/>
      <point x="688" y="0" type="line"/>
      <point x="526" y="0" type="line"/>
      <point x="526" y="295" type="line"/>
      <point x="239" y="295" type="line"/>
      <point x="239" y="0" type="line"/>
      <point x="77" y="0" type="line"/>
      <point x="77" y="511" type="line"/>
    </contour>
    <contour>
      <point x="239" y="423" type="line"/>
      <point x="526" y="423" type="line"/>
      <point x="526" y="511" type="line"/>
      <point x="239" y="511" type="line"/>
    </contour>
  </outline>
</glyph>
<glyph name="Itilde" format="2">
  <advance width="325"/>
  <unicode hex="0128"/>
  <outline>
    <contour>
      <point x="81" y="0" type="line"/>
      <point x="81" y="715" type="line"/>
      <point x="244" y="715" type="line"/>
      <point x="244" y="0" type="line"/>
    </contour>
    <contour>
      <point x="225" y="764" type="curve" smooth="yes"/>
      <point x="173" y="764"/>
      <point x="139" y="801"/>
      <point x="110" y="801" type="curve" smooth="yes"/>
      <point x="92" y="801"/>
      <point x="79" y="785"/>
      <point x="75" y="764" type="curve"/>
      <point x="-11" y="764" type="line"/>
      <point x="-4" y="856"/>
      <point x="44" y="904"/>
      <point x="103" y="904" type="curve" smooth="yes"/>
      <point x="152" y="904"/>
      <point x="187" y="866"/>
      <point x="219" y="866" type="curve" smooth="yes"/>
      <point x="237" y="866"/>
      <point x="249" y="882"/>
      <point x="253" y="903" type="curve"/>
      <point x="340" y="903" type="line"/>
      <point x="332" y="811"/>
      <point x="282" y="764"/>
    </contour>
  </outline>
</glyph>
<glyph name="itilde" format="2">
  <advance width="281"/>
  <unicode hex="0129"/>
  <outline>
    <contour>
      <point x="68" y="0" type="line"/>
      <point x="68" y="523" type="line"/>
      <point x="212" y="523" type="line"/>
      <point x="212" y="0" type="line"/>
    </contour>
    <contour>
      <point x="201" y="598" type="curve" smooth="yes"/>
      <point x="150" y="598"/>
      <point x="118" y="636"/>
      <point x="88" y="636" type="curve" smooth="yes"/>
      <point x="71" y="636"/>
      <point x="57" y="620"/>
      <point x="53" y="599" type="curve"/>
      <point x="-30" y="599" type="line"/>
      <point x="-23" y="691"/>
      <point x="21" y="740"/>
      <point x="80" y="740" type="curve" smooth="yes"/>
      <point x="129" y="740"/>
      <point x="163" y="703"/>
      <point x="195" y="703" type="curve" smooth="yes"/>
      <point x="213" y="703"/>
      <point x="225" y="718"/>
      <point x="229" y="740" type="curve"/>
      <point x="313" y="740" type="line"/>
      <point x="305" y="647"/>
      <point x="258" y="598"/>
    </contour>
  </outline>
</glyph>
<glyph name="Ibreve" format="2">
  <advance width="325"/>
  <unicode hex="012C"/>
  <outline>
    <contour>
      <point x="81" y="0" type="line"/>
      <point x="81" y="715" type="line"/>
      <point x="244" y="715" type="line"/>
      <point x="244" y="0" type="line"/>
    </contour>
    <contour>
      <point x="163" y="757" type="curve" smooth="yes"/>
      <point x="74" y="757"/>
      <point x="15" y="815"/>
      <point x="10" y="903" type="curve"/>
      <point x="107" y="903" type="line"/>
      <point x="112" y="871"/>
      <point x="130" y="851"/>
      <point x="163" y="851" type="curve" smooth="yes"/>
      <point x="196" y="851"/>
      <point x="216" y="871"/>
      <point x="222" y="903" type="curve"/>
      <point x="318" y="903" type="line"/>
      <point x="312" y="815"/>
      <point x="250" y="757"/>
    </contour>
  </outline>
</glyph>
<glyph name="ibreve" format="2">
  <advance width="281"/>
  <unicode hex="012D"/>
  <outline>
    <contour>
      <point x="68" y="0" type="line"/>
      <point x="68" y="523" type="line"/>
      <point x="212" y="523" type="line"/>
      <point x="212" y="0" type="line"/>
    </contour>
    <contour>
      <point x="140" y="598" type="curve" smooth="yes"/>
      <point x="53" y="598"/>
      <point x="-7" y="655"/>
      <point x="-12" y="747" type="curve"/>
      <point x="83" y="747" type="line"/>
      <point x="87" y="714"/>
      <point x="105" y="693"/>
      <point x="140" y="693" type="curve" smooth="yes"/>
      <point x="175" y="693"/>
      <point x="195" y="714"/>
      <point x="201" y="747" type="curve"/>
      <point x="294" y="747" type="line"/>
      <point x="289" y="655"/>
      <point x="225" y="598"/>
    </contour>
  </outline>
</glyph>
<glyph name="Iogonek" format="2">
  <advance width="325"/>
  <unicode hex="012E"/>
  <outline>
    <contour>
      <point x="170" y="-182" type="curve" smooth="yes"/>
      <point x="99" y="-182"/>
      <point x="54" y="-151"/>
      <point x="54" y="-101" type="curve" smooth="yes"/>
      <point x="54" y="-55"/>
      <point x="95" y="-21"/>
      <point x="137" y="0" type="curve"/>
      <point x="81" y="0" type="line"/>
      <point x="81" y="715" type="line"/>
      <point x="244" y="715" type="line"/>
      <point x="244" y="9" type="line"/>
      <point x="202" y="-18"/>
      <point x="181" y="-43"/>
      <point x="181" y="-69" type="curve" smooth="yes"/>
      <point x="181" y="-89"/>
      <point x="193" y="-99"/>
      <point x="214" y="-99" type="curve" smooth="yes"/>
      <point x="228" y="-99"/>
      <point x="241" y="-97"/>
      <point x="252" y="-92" type="curve"/>
      <point x="252" y="-167" type="line"/>
      <point x="234" y="-175"/>
      <point x="208" y="-182"/>
    </contour>
  </outline>
</glyph>
<glyph name="iogonek" format="2">
  <advance width="281"/>
  <unicode hex="012F"/>
  <outline>
    <contour>
      <point x="142" y="-182" type="curve" smooth="yes"/>
      <point x="74" y="-182"/>
      <point x="30" y="-152"/>
      <point x="30" y="-101" type="curve" smooth="yes"/>
      <point x="30" y="-54"/>
      <point x="70" y="-21"/>
      <point x="113" y="0" type="curve"/>
      <point x="68" y="0" type="line"/>
      <point x="68" y="523" type="line"/>
      <point x="212" y="523" type="line"/>
      <point x="212" y="7" type="line"/>
      <point x="168" y="-23"/>
      <point x="151" y="-46"/>
      <point x="151" y="-71" type="curve" smooth="yes"/>
      <point x="151" y="-92"/>
      <point x="164" y="-102"/>
      <point x="185" y="-102" type="curve" smooth="yes"/>
      <point x="198" y="-102"/>
      <point x="212" y="-100"/>
      <point x="222" y="-95" type="curve"/>
      <point x="222" y="-167" type="line"/>
      <point x="205" y="-175"/>
      <point x="182" y="-182"/>
    </contour>
    <contour>
      <point x="139" y="594" type="curve" smooth="yes"/>
      <point x="93" y="594"/>
      <point x="57" y="628"/>
      <point x="57" y="673" type="curve" smooth="yes"/>
      <point x="57" y="718"/>
      <point x="93" y="752"/>
      <point x="139" y="752" type="curve" smooth="yes"/>
      <point x="186" y="752"/>
      <point x="222" y="718"/>
      <point x="222" y="673" type="curve" smooth="yes"/>
      <point x="222" y="628"/>
      <point x="186" y="594"/>
    </contour>
  </outline>
</glyph>
<glyph name="Idotaccent" format="2">
  <advance width="325"/>
  <unicode hex="0130"/>
  <outline>
    <contour>
      <point x="81" y="0" type="line"/>
      <point x="81" y="715" type="line"/>
      <point x="244" y="715" type="line"/>
      <point x="244" y="0" type="line"/>
    </contour>
    <contour>
      <point x="163" y="768" type="curve" smooth="yes"/>
      <point x="117" y="768"/>
      <point x="82" y="802"/>
      <point x="82" y="845" type="curve" smooth="yes"/>
      <point x="82" y="888"/>
      <point x="117" y="922"/>
      <point x="163" y="922" type="curve" smooth="yes"/>
      <point x="208" y="922"/>
      <point x="243" y="888"/>
      <point x="243" y="845" type="curve" smooth="yes"/>
      <point x="243" y="802"/>
      <point x="208" y="768"/>
    </contour>
  </outline>
</glyph>
<glyph name="IJ" format="2">
  <advance width="750"/>
  <unicode hex="0132"/>
  <outline>
    <contour>
      <point x="81" y="0" type="line"/>
      <point x="81" y="715" type="line"/>
      <point x="244" y="715" type="line"/>
      <point x="244" y="0" type="line"/>
    </contour>
    <contour>
      <point x="447" y="-9" type="curve" smooth="yes"/>
      <point x="385" y="-9"/>
      <point x="353" y="0"/>
      <point x="328" y="13" type="curve"/>
      <point x="328" y="137" type="line"/>
      <point x="352" y="128"/>
      <point x="376" y="120"/>
      <point x="418" y="120" type="curve" smooth="yes"/>
      <point x="479" y="120"/>
      <point x="519" y="151"/>
      <point x="519" y="233" type="curve" smooth="yes"/>
      <point x="519" y="715" type="line"/>
      <point x="682" y="715" type="line"/>
      <point x="682" y="231" type="line" smooth="yes"/>
      <point x="682" y="69"/>
      <point x="594" y="-9"/>
    </contour>
  </outline>
</glyph>
<glyph name="ij" format="2">
  <advance width="561"/>
  <unicode hex="0133"/>
  <outline>
    <contour>
      <point x="68" y="0" type="line"/>
      <point x="68" y="523" type="line"/>
      <point x="212" y="523" type="line"/>
      <point x="212" y="0" type="line"/>
    </contour>
    <contour>
      <point x="139" y="594" type="curve" smooth="yes"/>
      <point x="93" y="594"/>
      <point x="57" y="628"/>
      <point x="57" y="673" type="curve" smooth="yes"/>
      <point x="57" y="718"/>
      <point x="93" y="752"/>
      <point x="139" y="752" type="curve" smooth="yes"/>
      <point x="186" y="752"/>
      <point x="222" y="718"/>
      <point x="222" y="673" type="curve" smooth="yes"/>
      <point x="222" y="628"/>
      <point x="186" y="594"/>
    </contour>
    <contour>
      <point x="279" y="-187" type="curve"/>
      <point x="279" y="-79" type="line"/>
      <point x="329" y="-75"/>
      <point x="348" y="-52"/>
      <point x="348" y="-10" type="curve" smooth="yes"/>
      <point x="348" y="523" type="line"/>
      <point x="492" y="523" type="line"/>
      <point x="492" y="-9" type="line" smooth="yes"/>
      <point x="492" y="-118"/>
      <point x="442" y="-185"/>
    </contour>
    <contour>
      <point x="419" y="594" type="curve" smooth="yes"/>
      <point x="373" y="594"/>
      <point x="337" y="628"/>
      <point x="337" y="673" type="curve" smooth="yes"/>
      <point x="337" y="718"/>
      <point x="373" y="752"/>
      <point x="419" y="752" type="curve" smooth="yes"/>
      <point x="466" y="752"/>
      <point x="502" y="718"/>
      <point x="502" y="673" type="curve" smooth="yes"/>
      <point x="502" y="628"/>
      <point x="466" y="594"/>
    </contour>
  </outline>
</glyph>
<glyph name="jcircumflex" format="2">
  <advance width="281"/>
  <unicode hex="0135"/>
  <outline>
    <contour>
      <point x="-1" y="-187" type="curve"/>
      <point x="-1" y="-79" type="line"/>
      <point x="49" y="-75"/>
      <point x="68" y="-52"/>
      <point x="68" y="-10" type="curve" smooth="yes"/>
      <point x="68" y="523" type="line"/>
      <point x="212" y="523" type="line"/>
      <point x="212" y="-9" type="line" smooth="yes"/>
      <point x="212" y="-118"/>
      <point x="162" y="-185"/>
    </contour>
    <contour>
      <point x="-30" y="595" type="line"/>
      <point x="87" y="751" type="line"/>
      <point x="196" y="751" type="line"/>
      <point x="310" y="595" type="line"/>
      <point x="208" y="595" type="line"/>
      <point x="139" y="658" type="line"/>
      <point x="69" y="595" type="line"/>
    </contour>
  </outline>
</glyph>
<glyph name="kcommaaccent" format="2">
  <advance width="555"/>
  <unicode hex="0137"/>
  <outline>
    <contour>
      <point x="64" y="0" type="line"/>
      <point x="64" y="760" type="line"/>
      <point x="209" y="760" type="line"/>
      <point x="209" y="302" type="line"/>
      <point x="377" y="523" type="line"/>
      <point x="531" y="523" type="line"/>
      <point x="341" y="285" type="line"/>
      <point x="546" y="0" type="line"/>
      <point x="382" y="0" type="line"/>
      <point x="209" y="247" type="line"/>
      <point x="209" y="0" type="line"/>
    </contour>
    <contour>
      <point x="268" y="-228" type="line"/>
      <point x="186" y="-201" type="line"/>
      <point x="233" y="-31" type="line"/>
      <point x="363" y="-52" type="line"/>
    </contour>
  </outline>
</glyph>
<glyph name="Lacute" format="2">
  <advance width="560"/>
  <unicode hex="0139"/>
  <outline>
    <contour>
      <point x="99" y="763" type="line"/>
      <point x="152" y="902" type="line"/>
      <point x="309" y="902" type="line"/>
      <point x="208" y="763" type="line"/>
    </contour>
    <contour>
      <point x="77" y="0" type="line"/>
      <point x="77" y="715" type="line"/>
      <point x="239" y="715" type="line"/>
      <point x="239" y="127" type="line"/>
      <point x="530" y="127" type="line"/>
      <point x="530" y="0" type="line"/>
    </contour>
  </outline>
</glyph>
<glyph name="Lcommaaccent" format="2">
  <advance width="560"/>
  <unicode hex="013B"/>
  <outline>
    <contour>
      <point x="280" y="-228" type="line"/>
      <point x="198" y="-201" type="line"/>
      <point x="245" y="-31" type="line"/>
      <point x="375" y="-52" type="line"/>
    </contour>
    <contour>
      <point x="77" y="0" type="line"/>
      <point x="77" y="715" type="line"/>
      <point x="239" y="715" type="line"/>
      <point x="239" y="127" type="line"/>
      <point x="530" y="127" type="line"/>
      <point x="530" y="0" type="line"/>
    </contour>
  </outline>
</glyph>
<glyph name="Lcaron" format="2">
  <advance width="560"/>
  <unicode hex="013D"/>
  <outline>
    <contour>
      <point x="325" y="546" type="line"/>
      <point x="344" y="715" type="line"/>
      <point x="472" y="715" type="line"/>
      <point x="412" y="546" type="line"/>
    </contour>
    <contour>
      <point x="77" y="0" type="line"/>
      <point x="77" y="715" type="line"/>
      <point x="239" y="715" type="line"/>
      <point x="239" y="127" type="line"/>
      <point x="530" y="127" type="line"/>
      <point x="530" y="0" type="line"/>
    </contour>
  </outline>
</glyph>
<glyph name="lcaron" format="2">
  <advance width="280"/>
  <unicode hex="013E"/>
  <outline>
    <contour>
      <point x="253" y="586" type="line"/>
      <point x="263" y="760" type="line"/>
      <point x="382" y="760" type="line"/>
      <point x="333" y="586" type="line"/>
    </contour>
    <contour>
      <point x="68" y="0" type="line"/>
      <point x="68" y="760" type="line"/>
      <point x="212" y="760" type="line"/>
      <point x="212" y="0" type="line"/>
    </contour>
  </outline>
</glyph>
<glyph name="Ldot" format="2">
  <advance width="577"/>
  <unicode hex="013F"/>
  <outline>
    <contour>
      <point x="77" y="0" type="line"/>
      <point x="77" y="715" type="line"/>
      <point x="239" y="715" type="line"/>
      <point x="239" y="127" type="line"/>
      <point x="530" y="127" type="line"/>
      <point x="530" y="0" type="line"/>
    </contour>
    <contour>
      <point x="447" y="307" type="curve" smooth="yes"/>
      <point x="397" y="307"/>
      <point x="358" y="346"/>
      <point x="358" y="395" type="curve" smooth="yes"/>
      <point x="358" y="443"/>
      <point x="397" y="482"/>
      <point x="447" y="482" type="curve" smooth="yes"/>
      <point x="498" y="482"/>
      <point x="537" y="443"/>
      <point x="537" y="395" type="curve" smooth="yes"/>
      <point x="537" y="346"/>
      <point x="498" y="307"/>
    </contour>
  </outline>
</glyph>
<glyph name="ldot" format="2">
  <advance width="409"/>
  <unicode hex="0140"/>
  <outline>
    <contour>
      <point x="68" y="0" type="line"/>
      <point x="68" y="760" type="line"/>
      <point x="212" y="760" type="line"/>
      <point x="212" y="0" type="line"/>
    </contour>
    <contour>
      <point x="342" y="274" type="curve" smooth="yes"/>
      <point x="292" y="274"/>
      <point x="253" y="313"/>
      <point x="253" y="362" type="curve" smooth="yes"/>
      <point x="253" y="410"/>
      <point x="292" y="449"/>
      <point x="342" y="449" type="curve" smooth="yes"/>
      <point x="393" y="449"/>
      <point x="432" y="410"/>
      <point x="432" y="362" type="curve" smooth="yes"/>
      <point x="432" y="313"/>
      <point x="393" y="274"/>
    </contour>
  </outline>
</glyph>
<glyph name="Lslash" format="2">
  <advance width="579"/>
  <unicode hex="0141"/>
  <outline>
    <contour>
      <point x="31" y="237" type="line"/>
      <point x="31" y="330" type="line"/>
      <point x="96" y="353" type="line"/>
      <point x="96" y="715" type="line"/>
      <point x="258" y="715" type="line"/>
      <point x="258" y="410" type="line"/>
      <point x="445" y="477" type="line"/>
      <point x="445" y="383" type="line"/>
      <point x="258" y="317" type="line"/>
      <point x="258" y="127" type="line"/>
      <point x="549" y="127" type="line"/>
      <point x="549" y="0" type="line"/>
      <point x="96" y="0" type="line"/>
      <point x="96" y="260" type="line"/>
    </contour>
  </outline>
</glyph>
<glyph name="lslash" format="2">
  <advance width="313"/>
  <unicode hex="0142"/>
  <outline>
    <contour>
      <point x="18" y="279" type="line"/>
      <point x="18" y="378" type="line"/>
      <point x="84" y="411" type="line"/>
      <point x="84" y="760" type="line"/>
      <point x="228" y="760" type="line"/>
      <point x="228" y="485" type="line"/>
      <point x="298" y="521" type="line"/>
      <point x="298" y="422" type="line"/>
      <point x="228" y="386" type="line"/>
      <point x="228" y="0" type="line"/>
      <point x="84" y="0" type="line"/>
      <point x="84" y="312" type="line"/>
    </contour>
  </outline>
</glyph>
<glyph name="Nacute" format="2">
  <advance width="758"/>
  <unicode hex="0143"/>
  <outline>
    <contour>
      <point x="332" y="763" type="line"/>
      <point x="385" y="902" type="line"/>
      <point x="542" y="902" type="line"/>
      <point x="441" y="763" type="line"/>
    </contour>
    <contour>
      <point x="77" y="0" type="line"/>
      <point x="77" y="715" type="line"/>
      <point x="265" y="715" type="line"/>
      <point x="537" y="244" type="line"/>
      <point x="537" y="715" type="line"/>
      <point x="681" y="715" type="line"/>
      <point x="681" y="0" type="line"/>
      <point x="519" y="0" type="line"/>
      <point x="221" y="509" type="line"/>
      <point x="221" y="0" type="line"/>
    </contour>
  </outline>
</glyph>
<glyph name="Ncaron" format="2">
  <advance width="758"/>
  <unicode hex="0147"/>
  <outline>
    <contour>
      <point x="330" y="763" type="line"/>
      <point x="222" y="902" type="line"/>
      <point x="326" y="902" type="line"/>
      <point x="395" y="850" type="line"/>
      <point x="463" y="902" type="line"/>
      <point x="565" y="902" type="line"/>
      <point x="453" y="763" type="line"/>
    </contour>
    <contour>
      <point x="77" y="0" type="line"/>
      <point x="77" y="715" type="line"/>
      <point x="265" y="715" type="line"/>
      <point x="537" y="244" type="line"/>
      <point x="537" y="715" type="line"/>
      <point x="681" y="715" type="line"/>
      <point x="681" y="0" type="line"/>
      <point x="519" y="0" type="line"/>
      <point x="221" y="509" type="line"/>
      <point x="221" y="0" type="line"/>
    </contour>
  </outline>
</glyph>
<glyph name="napostrophe" format="2">
  <advance width="690"/>
  <unicode hex="0149"/>
  <outline>
    <contour>
      <point x="47" y="450" type="line"/>
      <point x="-36" y="484" type="line"/>
      <point x="47" y="727" type="line"/>
      <point x="176" y="681" type="line"/>
    </contour>
    <contour>
      <point x="139" y="0" type="line"/>
      <point x="139" y="523" type="line"/>
      <point x="284" y="523" type="line"/>
      <point x="284" y="440" type="line"/>
      <point x="310" y="492"/>
      <point x="367" y="535"/>
      <point x="454" y="535" type="curve" smooth="yes"/>
      <point x="557" y="535"/>
      <point x="630" y="473"/>
      <point x="630" y="333" type="curve" smooth="yes"/>
      <point x="630" y="0" type="line"/>
      <point x="485" y="0" type="line"/>
      <point x="485" y="312" type="line" smooth="yes"/>
      <point x="485" y="383"/>
      <point x="457" y="417"/>
      <point x="393" y="417" type="curve" smooth="yes"/>
      <point x="331" y="417"/>
      <point x="284" y="379"/>
      <point x="284" y="302" type="curve" smooth="yes"/>
      <point x="284" y="0" type="line"/>
    </contour>
  </outline>
</glyph>
<glyph name="Eng" format="2">
  <advance width="758"/>
  <unicode hex="014A"/>
  <outline>
    <contour>
      <point x="456" y="-193" type="curve" smooth="yes"/>
      <point x="396" y="-193"/>
      <point x="366" y="-183"/>
      <point x="341" y="-171" type="curve"/>
      <point x="341" y="-52" type="line"/>
      <point x="365" y="-61"/>
      <point x="386" y="-69"/>
      <point x="425" y="-69" type="curve" smooth="yes"/>
      <point x="478" y="-69"/>
      <point x="514" y="-44"/>
      <point x="520" y="10" type="curve"/>
      <point x="224" y="519" type="line"/>
      <point x="224" y="0" type="line"/>
      <point x="77" y="0" type="line"/>
      <point x="77" y="715" type="line"/>
      <point x="267" y="715" type="line"/>
      <point x="534" y="246" type="line"/>
      <point x="534" y="715" type="line"/>
      <point x="681" y="715" type="line"/>
      <point x="681" y="18" type="line" smooth="yes"/>
      <point x="681" y="-116"/>
      <point x="597" y="-193"/>
    </contour>
  </outline>
</glyph>
<glyph name="Obreve" format="2">
  <advance width="816"/>
  <unicode hex="014E"/>
  <outline>
    <contour>
      <point x="406" y="757" type="curve" smooth="yes"/>
      <point x="317" y="757"/>
      <point x="258" y="815"/>
      <point x="253" y="903" type="curve"/>
      <point x="350" y="903" type="line"/>
      <point x="355" y="871"/>
      <point x="373" y="851"/>
      <point x="406" y="851" type="curve" smooth="yes"/>
      <point x="439" y="851"/>
      <point x="459" y="871"/>
      <point x="465" y="903" type="curve"/>
      <point x="561" y="903" type="line"/>
      <point x="555" y="815"/>
      <point x="493" y="757"/>
    </contour>
    <contour>
      <point x="410" y="118" type="curve" smooth="yes"/>
      <point x="531" y="118"/>
      <point x="607" y="211"/>
      <point x="607" y="355" type="curve" smooth="yes"/>
      <point x="607" y="363" type="line" smooth="yes"/>
      <point x="607" y="502"/>
      <point x="533" y="597"/>
      <point x="408" y="597" type="curve" smooth="yes"/>
      <point x="284" y="597"/>
      <point x="209" y="506"/>
      <point x="209" y="362" type="curve" smooth="yes"/>
      <point x="209" y="354" type="line" smooth="yes"/>
      <point x="209" y="208"/>
      <point x="293" y="118"/>
    </contour>
    <contour>
      <point x="407" y="-11" type="curve" smooth="yes"/>
      <point x="183" y="-11"/>
      <point x="40" y="144"/>
      <point x="40" y="353" type="curve" smooth="yes"/>
      <point x="40" y="361" type="line" smooth="yes"/>
      <point x="40" y="574"/>
      <point x="196" y="725"/>
      <point x="408" y="725" type="curve" smooth="yes"/>
      <point x="623" y="725"/>
      <point x="776" y="580"/>
      <point x="776" y="365" type="curve" smooth="yes"/>
      <point x="776" y="357" type="line" smooth="yes"/>
      <point x="776" y="144"/>
      <point x="630" y="-11"/>
    </contour>
  </outline>
</glyph>
